<svg width="48" height="48" viewBox="0 0 48 48" fill="none" xmlns="http://www.w3.org/2000/svg">
<rect width="48" height="48" fill="black"/>
<path d="M29.2057 20.7314C28.3104 20.731 27.429 20.9525 26.6402 21.3759C26.5683 21.1863 26.4403 21.0232 26.2734 20.908C26.1064 20.7929 25.9084 20.7313 25.7057 20.7314H21.7057C21.5743 20.7313 21.4442 20.7571 21.3229 20.8074C21.2015 20.8576 21.0913 20.9312 20.9984 21.0241C20.9055 21.117 20.8319 21.2273 20.7816 21.3486C20.7314 21.47 20.7056 21.6 20.7057 21.7314V33.7314C20.7056 33.8627 20.7314 33.9928 20.7816 34.1142C20.8319 34.2355 20.9055 34.3458 20.9984 34.4387C21.0913 34.5315 21.2015 34.6052 21.3229 34.6554C21.4442 34.7057 21.5743 34.7315 21.7057 34.7314H25.7057C25.837 34.7315 25.9671 34.7057 26.0884 34.6554C26.2098 34.6052 26.3201 34.5315 26.4129 34.4387C26.5058 34.3458 26.5795 34.2355 26.6297 34.1142C26.6799 33.9928 26.7057 33.8627 26.7057 33.7314V28.2314C26.7057 27.9662 26.811 27.7118 26.9986 27.5243C27.1861 27.3367 27.4404 27.2314 27.7057 27.2314C27.9709 27.2314 28.2252 27.3367 28.4128 27.5243C28.6003 27.7118 28.7057 27.9662 28.7057 28.2314V33.7314C28.7056 33.8627 28.7314 33.9928 28.7816 34.1142C28.8319 34.2355 28.9055 34.3458 28.9984 34.4387C29.0913 34.5315 29.2015 34.6052 29.3229 34.6554C29.4442 34.7057 29.5743 34.7315 29.7057 34.7314H33.7057C33.837 34.7315 33.9671 34.7057 34.0884 34.6554C34.2098 34.6052 34.3201 34.5315 34.4129 34.4387C34.5058 34.3458 34.5795 34.2355 34.6297 34.1142C34.6799 33.9928 34.7057 33.8627 34.7057 33.7314V26.2314C34.7038 24.7733 34.1238 23.3754 33.0927 22.3443C32.0617 21.3132 30.6638 20.7332 29.2057 20.7314V20.7314ZM32.7057 32.7314H30.7057V28.2314C30.7057 27.4357 30.3896 26.6727 29.827 26.1101C29.2644 25.5475 28.5013 25.2314 27.7057 25.2314C26.91 25.2314 26.1469 25.5475 25.5843 26.1101C25.0217 26.6727 24.7057 27.4357 24.7057 28.2314V32.7314H22.7057V22.7314H24.7057V23.4345C24.7058 23.6417 24.7702 23.8438 24.8901 24.0128C25.01 24.1818 25.1794 24.3094 25.3749 24.378C25.5704 24.4466 25.7824 24.4528 25.9816 24.3958C26.1808 24.3387 26.3573 24.2212 26.4869 24.0595C26.9357 23.4896 27.5512 23.074 28.2476 22.8708C28.944 22.6676 29.6865 22.6869 30.3714 22.9261C31.0563 23.1653 31.6493 23.6124 32.0678 24.2049C32.4863 24.7975 32.7093 25.506 32.7057 26.2314V32.7314ZM18.7057 20.7314H14.7057C14.5743 20.7313 14.4442 20.7571 14.3229 20.8074C14.2015 20.8576 14.0913 20.9312 13.9984 21.0241C13.9055 21.117 13.8319 21.2273 13.7816 21.3486C13.7314 21.47 13.7056 21.6 13.7057 21.7314V33.7314C13.7056 33.8627 13.7314 33.9928 13.7816 34.1142C13.8319 34.2355 13.9055 34.3458 13.9984 34.4387C14.0913 34.5315 14.2015 34.6052 14.3229 34.6554C14.4442 34.7057 14.5743 34.7315 14.7057 34.7314H18.7057C18.837 34.7315 18.9671 34.7057 19.0884 34.6554C19.2098 34.6052 19.3201 34.5315 19.4129 34.4387C19.5058 34.3458 19.5795 34.2355 19.6297 34.1142C19.6799 33.9928 19.7057 33.8627 19.7057 33.7314V21.7314C19.7057 21.6 19.6799 21.47 19.6297 21.3486C19.5795 21.2273 19.5058 21.117 19.4129 21.0241C19.3201 20.9312 19.2098 20.8576 19.0884 20.8074C18.9671 20.7571 18.837 20.7313 18.7057 20.7314V20.7314ZM17.7057 32.7314H15.7057V22.7314H17.7057V32.7314ZM16.7203 13.2744C16.2827 13.2482 15.8443 13.3113 15.4318 13.4598C15.0193 13.6084 14.6413 13.8393 14.3209 14.1385C14.0004 14.4377 13.7442 14.7989 13.5677 15.2003C13.3913 15.6016 13.2983 16.0347 13.2944 16.4731C13.2906 16.9115 13.376 17.3461 13.5453 17.7505C13.7147 18.1549 13.9646 18.5206 14.2798 18.8253C14.5949 19.1301 14.9688 19.3676 15.3786 19.5234C15.7884 19.6791 16.2256 19.7499 16.6637 19.7314H16.692C17.1308 19.7575 17.5703 19.6938 17.9836 19.5442C18.397 19.3947 18.7755 19.1625 19.0961 18.8617C19.4166 18.5609 19.6725 18.198 19.8481 17.795C20.0236 17.392 20.1151 16.9574 20.1171 16.5179C20.119 16.0783 20.0313 15.6429 19.8593 15.2384C19.6873 14.8339 19.4346 14.4687 19.1167 14.1651C18.7988 13.8616 18.4223 13.626 18.0103 13.4729C17.5982 13.3197 17.1593 13.2522 16.7203 13.2744H16.7203ZM16.692 17.7314H16.6637C16.4907 17.7524 16.3153 17.7362 16.1492 17.6838C15.983 17.6315 15.83 17.5442 15.7003 17.4279C15.5706 17.3115 15.4674 17.1688 15.3974 17.0093C15.3274 16.8497 15.2923 16.6771 15.2945 16.5029C15.2945 15.7568 15.8541 15.2744 16.7203 15.2744C16.895 15.2511 17.0727 15.2655 17.2413 15.3167C17.41 15.3678 17.5657 15.4545 17.698 15.5709C17.8304 15.6873 17.9362 15.8308 18.0084 15.9915C18.0807 16.1523 18.1176 16.3267 18.1168 16.5029C18.1168 17.249 17.5572 17.7314 16.692 17.7314Z" fill="white"/>
</svg>
