<svg width="77" height="676" viewBox="0 0 77 676" fill="none" xmlns="http://www.w3.org/2000/svg">
<path d="M14.5 0.339746L5.83975 9L14.5 17.6603L23.1603 9L14.5 0.339746ZM14.5 675.66L23.1602 667L14.5 658.34L5.83972 667L14.5 675.66ZM13 9L13 667L16 667L16 9L13 9Z" fill="black"/>
<path d="M0.666667 112.5C0.666667 119.864 6.6362 125.833 14 125.833C21.3638 125.833 27.3333 119.864 27.3333 112.5C27.3333 105.136 21.3638 99.1667 14 99.1667C6.6362 99.1667 0.666667 105.136 0.666667 112.5ZM14 115H77V110H14V115Z" fill="black"/>
<path d="M0.666667 346C0.666667 353.364 6.6362 359.333 14 359.333C21.3638 359.333 27.3333 353.364 27.3333 346C27.3333 338.636 21.3638 332.667 14 332.667C6.6362 332.667 0.666667 338.636 0.666667 346ZM14 348.5H77V343.5H14V348.5Z" fill="black"/>
<path d="M0.666667 568C0.666667 575.364 6.6362 581.333 14 581.333C21.3638 581.333 27.3333 575.364 27.3333 568C27.3333 560.636 21.3638 554.667 14 554.667C6.6362 554.667 0.666667 560.636 0.666667 568ZM14 570.5H77V565.5H14V570.5Z" fill="black"/>
</svg>
