<svg width="32" height="32" viewBox="0 0 32 32" fill="none" xmlns="http://www.w3.org/2000/svg">
<path d="M27.005 29.3698C27.005 30.8248 22.075 31.9998 16 31.9998C9.925 31.9998 4.995 30.8248 4.995 29.3698C4.995 28.0698 8.945 26.9998 14.125 26.7798H17.875C23.06 26.9998 27.005 28.0698 27.005 29.3698V29.3698Z" fill="#C20085"/>
<path d="M16 0C10.35 0 5.77002 4.575 5.77002 10.225C5.77002 15.875 16 29.37 16 29.37C16 29.37 26.225 15.875 26.225 10.225C26.225 4.575 21.65 0 16 0ZM16 16.995C12.26 16.995 9.23002 13.965 9.23002 10.225C9.23002 6.485 12.26 3.455 16 3.455C19.74 3.455 22.77 6.485 22.77 10.225C22.77 13.965 19.74 16.995 16 16.995Z" fill="#C20085"/>
</svg>
