<svg width="32" height="32" viewBox="0 0 32 32" fill="none" xmlns="http://www.w3.org/2000/svg">
<path d="M27.8132 5.16895H4.18884C3.36033 5.16989 2.56602 5.49943 1.98018 6.08528C1.39433 6.67112 1.06479 7.46543 1.06384 8.29395V23.7064C1.06479 24.535 1.39433 25.3293 1.98018 25.9151C2.56602 26.501 3.36033 26.8305 4.18884 26.8314H27.8131C28.6416 26.8305 29.4359 26.501 30.0218 25.9151C30.6076 25.3293 30.9372 24.535 30.9381 23.7064V8.29395C30.9372 7.46543 30.6077 6.67112 30.0218 6.08526C29.436 5.49941 28.6417 5.16987 27.8132 5.16895V5.16895ZM22.2569 15.9959L29.6882 10.1636V23.2097L22.2569 15.9959ZM4.18884 6.41895H27.8131C28.3102 6.41951 28.7868 6.61723 29.1383 6.96874C29.4898 7.32025 29.6875 7.79684 29.6881 8.29395V8.57457L17.6625 18.0132C17.2228 18.3564 16.6809 18.5427 16.1231 18.5422C15.5653 18.5418 15.0237 18.3547 14.5846 18.0107L2.31384 8.5722V8.29395C2.31441 7.79684 2.51213 7.32025 2.86364 6.96874C3.21515 6.61723 3.69173 6.41951 4.18884 6.41895V6.41895ZM9.96622 16.0352L2.31384 23.2349V10.1492L9.96622 16.0352ZM27.8132 25.5814H4.18884C3.86874 25.5813 3.55402 25.4991 3.27463 25.3429C2.99524 25.1867 2.76049 24.9616 2.59272 24.6889L10.9698 16.8077L13.8187 18.9989C14.4776 19.5136 15.2896 19.793 16.1257 19.7928C16.9617 19.7926 17.7736 19.5127 18.4322 18.9978L21.2647 16.7752L29.4125 24.6839C29.245 24.9579 29.01 25.1843 28.73 25.3415C28.4499 25.4986 28.1343 25.5813 27.8132 25.5814V25.5814Z" fill="#C20085"/>
</svg>
