<svg width="32" height="32" viewBox="0 0 32 32" fill="none" xmlns="http://www.w3.org/2000/svg">
<g clip-path="url(#clip0_30_1060)">
<path d="M26.5 8V28C26.5 28.7956 26.1839 29.5587 25.6213 30.1213C25.0587 30.6839 24.2956 31 23.5 31H5.5V5H23.5C24.2956 5 25.0587 5.31607 25.6213 5.87868C26.1839 6.44129 26.5 7.20435 26.5 8V8Z" fill="#FF6EE7"/>
<path d="M23.5 3.22002V5.00002H5.5C22.11 0.715022 20.88 1.00002 21.28 1.00002C21.8688 1.00002 22.4334 1.23391 22.8498 1.65025C23.2661 2.06658 23.5 2.63124 23.5 3.22002V3.22002Z" fill="#FF6EE7"/>
<path d="M16 21C19.3137 21 22 18.3137 22 15C22 11.6863 19.3137 9 16 9C12.6863 9 10 11.6863 10 15C10 18.3137 12.6863 21 16 21Z" fill="#D1E7FF"/>
<path d="M24.5 4.12973V3.21973C24.4986 2.36614 24.159 1.54789 23.5554 0.944311C22.9518 0.340731 22.1336 0.00105691 21.28 -0.000265466C20.695 -0.0352655 5.14496 4.06473 5.09496 4.08973C4.9815 4.13864 4.87809 4.20815 4.78996 4.29473C4.36996 4.71973 4.49996 2.67974 4.49996 30.9997C4.49996 31.265 4.60532 31.5193 4.79286 31.7068C4.98039 31.8944 5.23475 31.9997 5.49996 31.9997H23.5C24.5608 31.9997 25.5782 31.5783 26.3284 30.8282C27.0785 30.078 27.5 29.0606 27.5 27.9997V7.99973C27.4993 7.11346 27.2043 6.25251 26.6613 5.55205C26.1183 4.85159 25.3581 4.3513 24.5 4.12973V4.12973ZM21.28 1.99973C21.6035 1.99973 21.9138 2.12827 22.1426 2.35706C22.3714 2.58586 22.5 2.89617 22.5 3.21973V3.99973H13.37C21.555 1.87973 21.1 1.99973 21.28 1.99973ZM25.5 27.9997C25.5 28.5302 25.2892 29.0389 24.9142 29.4139C24.5391 29.789 24.0304 29.9997 23.5 29.9997H6.49996V5.99973H23.5C24.0304 5.99973 24.5391 6.21045 24.9142 6.58552C25.2892 6.96059 25.5 7.4693 25.5 7.99973V27.9997Z" fill="#2E58FF"/>
<path d="M16.04 8.00011C14.6539 7.99219 13.2966 8.39599 12.1402 9.16033C10.9838 9.92467 10.0803 11.0151 9.5444 12.2935C9.00845 13.5719 8.8641 14.9806 9.12966 16.3411C9.39523 17.7016 10.0587 18.9526 11.0361 19.9355C12.0134 20.9185 13.2606 21.5892 14.6196 21.8625C15.9785 22.1359 17.3881 21.9996 18.6695 21.471C19.9509 20.9424 21.0465 20.0452 21.8175 18.8932C22.5884 17.7412 23 16.3863 23 15.0001C23 13.1505 22.268 11.3761 20.9639 10.0645C19.6598 8.75285 17.8896 8.01068 16.04 8.00011V8.00011ZM20.9 14.0001H19.435C19.3136 12.8261 18.9745 11.6849 18.435 10.6351C19.0639 10.9855 19.6097 11.4675 20.0352 12.0483C20.4606 12.629 20.7556 13.2948 20.9 14.0001V14.0001ZM14.58 14.0001C14.7453 12.731 15.2343 11.5257 16 10.5001C16.7657 11.5257 17.2547 12.731 17.42 14.0001H14.58ZM17.42 16.0001C17.2547 17.2693 16.7657 18.4746 16 19.5001C15.2343 18.4746 14.7453 17.2693 14.58 16.0001H17.42ZM13.565 10.6351C13.0255 11.6849 12.6864 12.8261 12.565 14.0001H11.1C11.2444 13.2948 11.5394 12.629 11.9648 12.0483C12.3903 11.4675 12.9361 10.9855 13.565 10.6351V10.6351ZM11.1 16.0001H12.565C12.6864 17.1742 13.0255 18.3153 13.565 19.3651C12.9361 19.0147 12.3903 18.5327 11.9648 17.9519C11.5394 17.3712 11.2444 16.7054 11.1 16.0001V16.0001ZM18.435 19.3651C18.9745 18.3153 19.3136 17.1742 19.435 16.0001H20.9C20.7556 16.7054 20.4606 17.3712 20.0352 17.9519C19.6097 18.5327 19.0639 19.0147 18.435 19.3651V19.3651ZM21 25.0001H11C10.7348 25.0001 10.4804 25.1055 10.2929 25.293C10.1054 25.4805 10 25.7349 10 26.0001C10 26.2653 10.1054 26.5197 10.2929 26.7072C10.4804 26.8948 10.7348 27.0001 11 27.0001H21C21.2652 27.0001 21.5196 26.8948 21.7071 26.7072C21.8946 26.5197 22 26.2653 22 26.0001C22 25.7349 21.8946 25.4805 21.7071 25.293C21.5196 25.1055 21.2652 25.0001 21 25.0001Z" fill="#2E58FF"/>
</g>
<defs>
<clipPath id="clip0_30_1060">
<rect width="32" height="32" fill="white"/>
</clipPath>
</defs>
</svg>
