<svg width="32" height="32" viewBox="0 0 32 32" fill="none" xmlns="http://www.w3.org/2000/svg">
<path d="M22.8038 29.8164C21.6682 29.8168 20.5522 29.5205 19.5663 28.9568L19.4273 28.8785C13.0175 25.2119 7.65506 19.963 3.85211 13.6332L3.12715 12.425C2.38463 11.1897 2.07694 9.74143 2.25312 8.31097C2.42931 6.88052 3.07922 5.55019 4.09928 4.532L5.5437 3.08759C6.75749 1.8738 8.73156 1.8738 9.94425 3.08759L13.1266 6.26994C13.6055 6.75113 13.9146 7.3753 14.007 8.04789C14.0994 8.72049 13.97 9.40488 13.6386 9.99738L12.4425 12.1215C12.4173 12.1662 12.4075 12.2179 12.4145 12.2687C12.4214 12.3195 12.4448 12.3666 12.4811 12.4029L19.5663 19.4881C19.6032 19.5242 19.6507 19.5474 19.7019 19.5542C19.753 19.5609 19.8049 19.5509 19.8499 19.5257L21.9707 18.3306L21.9718 18.3295C22.5644 17.9984 23.2487 17.8693 23.9212 17.9617C24.5938 18.0541 25.2179 18.3629 25.6993 18.8415L28.8827 22.0261C30.0965 23.2399 30.0965 25.2139 28.8827 26.4266L27.3743 27.9339C26.7736 28.5327 26.0607 29.0071 25.2765 29.3301C24.4922 29.6532 23.652 29.8184 22.8038 29.8164V29.8164ZM7.74397 4.38414C7.51225 4.38414 7.28053 4.47242 7.10397 4.64897L5.65956 6.09228C4.98819 6.76245 4.56043 7.63803 4.44445 8.57952C4.32846 9.52102 4.53092 10.4742 5.01956 11.2873L5.74453 12.4956C9.35186 18.5003 14.4385 23.4798 20.5186 26.9585L20.6576 27.0368C22.3415 28.0001 24.4601 27.7276 25.8129 26.3726L27.3214 24.8652C27.4054 24.7812 27.4721 24.6814 27.5176 24.5716C27.5631 24.4618 27.5866 24.3441 27.5866 24.2252C27.5866 24.1064 27.5631 23.9887 27.5176 23.8789C27.4721 23.769 27.4054 23.6693 27.3214 23.5852L24.1379 20.4007C23.9978 20.2614 23.8161 20.1716 23.6203 20.145C23.4246 20.1183 23.2255 20.1561 23.0532 20.2528L20.9324 21.4479C20.4674 21.7082 19.9302 21.81 19.4021 21.7377C18.8741 21.6654 18.384 21.4231 18.006 21.0473L10.9208 13.9621C10.5447 13.5846 10.302 13.0946 10.2297 12.5667C10.1574 12.0387 10.2594 11.5015 10.5202 11.0368L11.7164 8.9138C11.8125 8.74148 11.8499 8.54257 11.8231 8.3471C11.7962 8.15163 11.7065 7.97021 11.5674 7.83021L8.38397 4.64897C8.29999 4.56486 8.20022 4.49817 8.09039 4.45273C7.98056 4.40728 7.86283 4.38397 7.74397 4.38414Z" fill="#C20085"/>
</svg>
