<svg width="128" height="49" viewBox="0 0 128 49" fill="none" xmlns="http://www.w3.org/2000/svg">
<path d="M47.67 37.5045C47.6702 39.3912 47.1573 41.2428 46.1859 42.8628C45.2146 44.4829 43.8208 45.8111 42.1525 46.7065C40.4842 47.6019 38.6036 48.0312 36.71 47.9488C34.8164 47.8665 32.9805 47.2755 31.3971 46.2386C30.7405 45.7541 30.1136 45.231 29.5197 44.672C28.0067 43.4023 25.8863 42.9626 23.7659 42.9626C21.8553 42.9626 19.9282 43.2649 18.5146 44.3368C17.8356 45.1203 17.0427 45.7983 16.1623 46.3485C16.1441 46.3569 16.1274 46.368 16.1126 46.3815V46.387C16.0972 46.3981 16.0805 46.4073 16.0629 46.4145C16.0519 46.4254 16.0464 46.4254 16.0464 46.4254C14.4002 47.4314 12.5057 47.9623 10.5742 47.959H10.5024C8.34895 47.9583 6.24772 47.2989 4.48323 46.07C2.71874 44.8412 1.37625 43.1023 0.637513 41.0887C-0.101224 39.0752 -0.200513 36.8843 0.353097 34.8128C0.906708 32.7412 2.08647 30.8891 3.73264 29.507C4.32086 28.7052 4.71747 27.7803 4.89222 26.8027C4.89371 26.7659 4.89739 26.7291 4.90326 26.6928C5.04686 25.9039 5.11527 25.1034 5.10757 24.3018C5.10757 22.2021 4.68239 20.1079 3.42341 18.6184C2.8278 18.0003 2.27263 17.3449 1.76133 16.656C0.731373 15.0774 0.148564 13.2512 0.0743756 11.3702C0.000186821 9.48932 0.437366 7.62329 1.33981 5.96905C2.24226 4.31482 3.5765 2.93373 5.20178 1.97144C6.82708 1.00915 8.68313 0.501349 10.5742 0.501618H10.6902C13.456 0.533305 16.0978 1.64933 18.0422 3.60754C19.9867 5.56576 21.0771 8.20823 21.0768 10.9616V11.011C21.068 13.0359 20.4675 15.0145 19.3484 16.7055C18.8606 17.3582 18.3351 17.9822 17.7747 18.5743C16.4991 20.0804 16.0574 22.1856 16.0574 24.3018C16.0531 24.9785 16.0993 25.6546 16.1954 26.3245C16.3342 27.551 16.8078 28.7164 17.5649 29.6939C17.7968 29.9742 18.0453 30.2435 18.2937 30.5129C18.3269 30.5349 18.3545 30.5623 18.3821 30.5843C19.7902 31.7551 21.7946 32.0629 23.7659 32.0629C23.9978 32.0629 24.2353 32.0574 24.4672 32.0464C26.328 31.9585 28.1392 31.5023 29.47 30.381C30.0931 29.7901 30.7534 29.2393 31.4468 28.732C32.7495 27.8902 34.2233 27.3461 35.7623 27.139C37.3014 26.9318 38.8676 27.0666 40.348 27.5337C40.3601 27.5369 40.3714 27.5425 40.3811 27.5503C42.4989 28.2266 44.3462 29.5552 45.6562 31.3443C46.9663 33.1334 47.6715 35.2906 47.67 37.5045Z" fill="url(#paint0_linear_2_91)"/>
<path d="M47.6701 10.96C47.6702 13.0049 47.0682 15.0051 45.9384 16.713C44.8085 18.4209 43.2005 19.7617 41.3132 20.5694C39.4259 21.3771 37.3421 21.6164 35.3196 21.2576C33.2971 20.8988 31.4247 19.9578 29.9339 18.5507L29.9173 18.5343C28.9082 17.5794 28.1009 16.4336 27.5424 15.1641C26.9839 13.8947 26.6856 12.5271 26.6649 11.1414V11.121C26.6603 11.068 26.6585 11.0148 26.6594 10.9616C26.6593 9.13968 27.1373 7.34928 28.0461 5.76779C28.9549 4.18628 30.2629 2.86851 31.8406 1.94496C33.4184 1.02142 35.2112 0.524139 37.0413 0.502365C38.8715 0.48059 40.6757 0.935071 42.2752 1.82082C42.3138 1.8483 42.3304 1.8593 42.3304 1.8593C44.1645 2.88818 45.6443 4.4436 46.5767 6.32252C46.5821 6.33467 46.5895 6.34583 46.5988 6.3555C47.3051 7.78851 47.6715 9.36378 47.6701 10.96Z" fill="url(#paint1_linear_2_91)"/>
<g style="mix-blend-mode:screen" opacity="0.6">
<path d="M11.8212 0.648401H11.4236C11.1641 0.631912 10.7886 0.6649 10.3137 0.692383C9.74654 0.750232 9.18391 0.845713 8.62952 0.978199C7.91913 1.15042 7.22747 1.39159 6.56435 1.69825C5.28538 2.28499 4.14231 3.12903 3.20718 4.17719C2.27204 5.22535 1.56509 6.45493 1.13087 7.78845C0.804988 8.77107 0.637262 9.79877 0.633905 10.8336C0.61158 11.8667 0.747495 12.8972 1.03699 13.8896C1.31568 14.8473 1.74228 15.7559 2.3015 16.583C2.84816 17.369 3.61019 18.0451 4.15685 18.9135C4.64408 19.7067 4.97397 20.5855 5.12869 21.5024C5.26781 22.2528 5.33439 23.0149 5.32748 23.778C5.33115 24.3612 5.28868 24.9438 5.20047 25.5204C5.14854 25.8894 5.07291 26.2548 4.97407 26.6142C4.91885 26.7956 4.88021 26.911 4.86365 26.966C4.86917 26.9385 4.8802 26.8835 4.89125 26.8011C4.89273 26.7643 4.89641 26.7275 4.90228 26.6912C5.04589 25.9023 5.11431 25.1018 5.10661 24.3001C5.10661 22.2005 4.68142 20.1063 3.42243 18.6167C2.82682 17.9987 2.27167 17.3432 1.76037 16.6544C0.73041 15.0757 0.147586 13.2496 0.0733975 11.3686C-0.000791356 9.48766 0.436405 7.62163 1.33885 5.96743C2.24129 4.31321 3.57554 2.9321 5.20082 1.9698C6.82609 1.00752 8.6822 0.499732 10.5732 0.5H10.6892C10.9372 0.516221 11.1842 0.54558 11.4291 0.587947C11.6831 0.626423 11.8212 0.648401 11.8212 0.648401Z" fill="#C20085"/>
</g>
<g style="mix-blend-mode:multiply" opacity="0.25">
<path d="M16.1955 26.3466L16.1402 26.1652C16.1043 26.047 16.0491 25.8739 15.9978 25.6469C15.8474 25.0204 15.7577 24.3809 15.73 23.7373C15.6807 22.8111 15.77 21.8826 15.995 20.9825C16.1211 20.4593 16.3063 19.952 16.5472 19.4704C16.8105 18.9827 17.122 18.5224 17.4771 18.0962C17.8266 17.679 18.2098 17.3014 18.5014 16.9381C18.8039 16.5693 19.0833 16.1824 19.3379 15.7794C19.5741 15.3955 19.7895 14.9991 19.9829 14.5922C20.1585 14.2074 20.3142 13.8226 20.4423 13.4659C20.6458 12.8796 20.8101 12.2804 20.9338 11.6724C21.0249 11.2261 21.0663 10.9639 21.0663 10.9639C21.1085 11.203 21.1375 11.4443 21.153 11.6867C21.1978 12.3327 21.1657 12.9818 21.0574 13.6204C20.9077 14.5386 20.6133 15.4275 20.185 16.2543C19.9444 16.7261 19.6611 17.175 19.3385 17.5955C18.995 18.0407 18.64 18.4057 18.328 18.7965C18.0083 19.1603 17.726 19.5551 17.4854 19.9749C17.2615 20.3855 17.0738 20.8145 16.9243 21.2573C16.6533 22.0721 16.4643 22.9117 16.36 23.7637C16.2645 24.5234 16.2297 25.1709 16.2137 25.6271L16.1955 26.3466Z" fill="white"/>
</g>
<g style="mix-blend-mode:screen" opacity="0.6">
<path d="M40.3812 27.5486C40.3204 27.5431 40.0554 27.4992 39.6468 27.4497C39.4093 27.4222 39.1277 27.4002 38.8019 27.3837C38.4415 27.3625 38.0802 27.3606 37.7196 27.3782C37.5208 27.3892 37.2779 27.3947 37.1012 27.4112C36.8803 27.4332 36.6594 27.4497 36.4441 27.4772C35.9796 27.5435 35.5189 27.6334 35.0636 27.7465C34.5817 27.8675 34.1077 28.018 33.6445 28.1972C33.1692 28.3801 32.7094 28.6007 32.2696 28.8568C31.8287 29.105 31.4111 29.392 31.0216 29.7143C30.6351 30.0441 30.232 30.3903 29.8123 30.7201C29.4007 31.0456 28.9477 31.3154 28.465 31.5226C28.0422 31.7042 27.6018 31.8424 27.1508 31.9349C26.7777 32.0134 26.3994 32.0649 26.0188 32.0888C25.7266 32.1097 25.4334 32.1115 25.1409 32.0943C24.6605 32.0778 24.3899 32.0613 24.3899 32.0613L24.4672 32.0448C26.3281 31.9569 28.1392 31.5007 29.47 30.3794C30.0931 29.7885 30.7533 29.2377 31.4468 28.7304C32.7495 27.8886 34.2233 27.3445 35.7624 27.1374C37.3015 26.9302 38.8676 27.065 40.348 27.5321C40.3601 27.5353 40.3714 27.5409 40.3812 27.5486Z" fill="#C20085"/>
</g>
<g style="mix-blend-mode:multiply" opacity="0.25">
<path d="M16.0425 46.425C16.0425 46.425 16.2021 46.3194 16.4842 46.1029C16.8906 45.789 17.2762 45.4491 17.6383 45.0854C17.879 44.8546 18.0961 44.5737 18.4036 44.2791C18.736 43.9743 19.1093 43.7169 19.513 43.5145C20.4843 43.0562 21.5281 42.7692 22.598 42.6664C23.8622 42.511 25.1432 42.5563 26.3932 42.8005C26.7378 42.8673 27.0783 42.9526 27.4136 43.0561C27.7593 43.1645 28.095 43.3022 28.4169 43.4678C29.063 43.8127 29.6734 44.2201 30.2392 44.6842C30.8085 45.1283 31.3612 45.5818 31.9476 45.9572C32.2374 46.1461 32.541 46.3131 32.856 46.4568C33.1769 46.6088 33.5062 46.7427 33.8422 46.8581C35.2094 47.33 36.6631 47.5022 38.1034 47.3627L38.3728 47.3352L38.6384 47.2962C38.8267 47.2676 39.025 47.2412 39.1862 47.2016C39.536 47.1304 39.8817 47.0411 40.2221 46.9339C40.9069 46.7162 41.5655 46.4236 42.1857 46.0616C43.3687 45.3881 44.4035 44.4845 45.2283 43.4046C46.0532 42.3247 46.6513 41.0905 46.9869 39.7758C47.2752 38.6241 47.3562 37.4306 47.226 36.2508C47.1165 35.2425 46.8642 34.2547 46.4767 33.3167C46.1791 32.5847 45.7992 31.8886 45.3442 31.2418C45.1631 30.967 44.9737 30.7383 44.8135 30.536C44.6825 30.3611 44.5403 30.1947 44.3878 30.038L44.014 29.6373L44.4298 29.9957C44.6004 30.1358 44.7615 30.2871 44.9118 30.4486C45.1282 30.6557 45.3299 30.8776 45.5154 31.1126C46.0362 31.7381 46.4842 32.4204 46.8505 33.1463C47.9291 35.2454 48.26 37.6465 47.7892 39.9571C47.4969 41.3624 46.9195 42.6936 46.0924 43.869C44.7367 45.7896 42.7956 47.2245 40.5567 47.9612C40.1717 48.0866 39.7802 48.1909 39.3839 48.274C39.1768 48.324 38.9935 48.3482 38.8046 48.3784L38.5037 48.4252L38.2039 48.4565C36.6065 48.5979 34.9973 48.3939 33.4866 47.8585C32.7403 47.6025 32.0316 47.2491 31.3789 46.8075C30.7356 46.3711 30.1762 45.8852 29.6295 45.4367C29.1182 44.9983 28.5693 44.6055 27.989 44.2626C27.712 44.1042 27.4213 43.9708 27.1204 43.8641C26.8237 43.7607 26.5221 43.6721 26.2165 43.5986C25.0506 43.3245 23.8507 43.2214 22.6549 43.2925C21.6404 43.3346 20.6386 43.534 19.6858 43.8833C19.2973 44.0404 18.9327 44.2506 18.6024 44.5078C18.3075 44.7458 18.0447 45.0299 17.7846 45.241C17.3886 45.579 16.9651 45.8836 16.5185 46.1518C16.2126 46.3376 16.0425 46.425 16.0425 46.425Z" fill="white"/>
</g>
<g style="mix-blend-mode:multiply" opacity="0.25">
<path d="M46.4953 6.1944L46.6693 6.47747C46.8311 6.74768 46.9785 7.02619 47.111 7.31185C47.5907 8.34663 47.8836 9.45738 47.9763 10.5933L47.9945 10.8626L47.9989 10.9308C48.0004 10.9491 48.0004 10.9675 47.9989 10.9858V11.0187V11.1529C47.9956 11.3324 47.9923 11.5156 47.989 11.7025C47.9857 11.8894 47.9809 12.0785 47.9746 12.2698C47.9608 12.4638 47.915 12.671 47.8857 12.8744C47.7626 13.7373 47.5232 14.5799 47.174 15.3792C46.9978 15.8031 46.7875 16.212 46.545 16.6022C46.3135 17.0127 46.043 17.4004 45.7372 17.7597L45.2805 18.3121C45.1176 18.4875 44.9371 18.6474 44.7653 18.8162C44.5936 18.9849 44.4208 19.1548 44.2363 19.3109L43.6582 19.7506C42.8786 20.3174 42.0285 20.7813 41.1292 21.1308C40.6889 21.3014 40.238 21.4431 39.7791 21.5551C39.3269 21.6705 38.8636 21.7123 38.4185 21.7904C37.9685 21.8365 37.5201 21.8349 37.0861 21.8453C36.6515 21.8338 36.2285 21.7645 35.8161 21.7272C35.0509 21.6123 34.3029 21.4039 33.5891 21.1066C32.9807 20.8849 32.4014 20.5911 31.8635 20.2315C31.4487 19.9624 31.0567 19.66 30.6912 19.3274C30.4572 19.1165 30.2359 18.8921 30.0286 18.6551L29.8077 18.4034C30.9752 19.3758 32.3344 20.0937 33.7978 20.5108C34.1276 20.6227 34.467 20.7047 34.8116 20.7559C35.1754 20.8263 35.5426 20.8784 35.9116 20.912C36.2926 20.9181 36.6846 20.9571 37.08 20.9395C37.4765 20.8933 37.884 20.8917 38.2915 20.8296C38.6946 20.7383 39.1121 20.6867 39.5179 20.5635L40.1253 20.364C40.3339 20.3089 40.5372 20.2353 40.7327 20.1441C41.5421 19.8159 42.3056 19.3853 43.0044 18.8629L43.5345 18.4743C43.7002 18.3358 43.8559 18.1791 44.0177 18.0346C44.1795 17.89 44.3424 17.7427 44.4914 17.586L44.9105 17.0913C45.19 16.7696 45.4447 16.4275 45.6726 16.0679C45.908 15.7234 46.1146 15.3604 46.2905 14.9823C46.472 14.6214 46.6269 14.2477 46.7537 13.8643C46.8916 13.5069 46.9976 13.1381 47.0707 12.7622C47.111 12.5792 47.1673 12.4077 47.1938 12.2208C47.2203 12.034 47.2341 11.8416 47.2535 11.6569C47.2728 11.4722 47.2954 11.2903 47.3159 11.1116L47.3313 10.9786L47.3352 10.9451C47.3352 10.9781 47.3352 10.9346 47.3352 10.9346V10.8709L47.3429 10.6175C47.3553 9.52609 47.2074 8.4387 46.9039 7.3899C46.7907 6.98398 46.6543 6.58476 46.4953 6.1944Z" fill="white"/>
</g>
<g style="mix-blend-mode:screen" opacity="0.6">
<path d="M42.3292 1.85765C42.3292 1.85765 41.9924 1.74222 41.4126 1.52235C41.1365 1.40692 40.761 1.33547 40.3579 1.22005C40.1536 1.17607 39.9327 1.13211 39.7008 1.08813C39.4689 1.05516 39.2204 1.01668 38.9664 0.9837C38.7124 0.967211 38.4418 0.945221 38.1657 0.928731C37.8896 0.934228 37.608 0.912242 37.3154 0.928731C36.705 0.955121 36.0976 1.02863 35.4987 1.14859C35.1895 1.19806 34.8802 1.297 34.5655 1.37395C34.2618 1.48388 33.9415 1.56633 33.6378 1.69825C33.0154 1.93612 32.418 2.23437 31.8543 2.58869C31.5837 2.77557 31.28 2.94598 31.037 3.14935L30.6505 3.45165L30.264 3.79794C28.9305 5.02145 27.9359 6.56608 27.376 8.28315C27.1114 9.07554 26.9319 9.89359 26.8404 10.7236C26.8073 11.0259 26.7797 11.2733 26.7742 11.4382C26.7686 11.6031 26.7576 11.691 26.7576 11.691C26.7576 11.691 26.741 11.6031 26.7134 11.4382C26.6968 11.3612 26.6858 11.2568 26.6637 11.1414V11.121C26.6591 11.068 26.6573 11.0148 26.6582 10.9616C26.6581 9.13968 27.1361 7.34928 28.0449 5.76779C28.9537 4.18628 30.2617 2.86851 31.8395 1.94496C33.4172 1.02142 35.2099 0.524139 37.0402 0.502365C38.8704 0.48059 40.6745 0.935071 42.274 1.82082C42.3137 1.84665 42.3292 1.85765 42.3292 1.85765Z" fill="#C20085"/>
</g>
<path d="M72.742 11.168C74.013 11.168 75.1238 11.3075 76.0745 11.5865C77.0252 11.8655 77.7898 12.16 78.3685 12.47C78.9472 12.78 79.2985 12.9867 79.4225 13.09L77.1905 16.8255C77.0252 16.7015 76.741 16.5207 76.338 16.283C75.9453 16.0453 75.4752 15.8335 74.9275 15.6475C74.3902 15.4615 73.827 15.3685 73.238 15.3685C72.4423 15.3685 71.7965 15.5132 71.3005 15.8025C70.8148 16.0815 70.572 16.5 70.572 17.058C70.572 17.4403 70.7012 17.7865 70.9595 18.0965C71.2282 18.3962 71.6312 18.6855 72.1685 18.9645C72.7162 19.2332 73.4085 19.5277 74.2455 19.848C75.0102 20.127 75.7283 20.4577 76.4 20.84C77.0717 21.2223 77.6607 21.677 78.167 22.204C78.6837 22.7207 79.0918 23.32 79.3915 24.002C79.6912 24.684 79.841 25.459 79.841 26.327C79.841 27.3603 79.6292 28.2593 79.2055 29.024C78.7818 29.7783 78.2032 30.4035 77.4695 30.8995C76.7462 31.3955 75.9195 31.7623 74.9895 32C74.0698 32.248 73.114 32.372 72.122 32.372C70.7167 32.372 69.456 32.2118 68.34 31.8915C67.2343 31.5712 66.3405 31.225 65.6585 30.853C64.9765 30.481 64.5683 30.233 64.434 30.109L66.7435 26.2185C66.8675 26.3115 67.1052 26.4613 67.4565 26.668C67.8182 26.8747 68.2573 27.0917 68.774 27.319C69.2907 27.536 69.8383 27.722 70.417 27.877C71.006 28.032 71.5847 28.1095 72.153 28.1095C73.1037 28.1095 73.8167 27.9287 74.292 27.567C74.7673 27.195 75.005 26.7093 75.005 26.11C75.005 25.6657 74.8552 25.2678 74.5555 24.9165C74.2558 24.5652 73.8063 24.2345 73.207 23.9245C72.6077 23.6042 71.8585 23.2683 70.9595 22.917C70.0605 22.5553 69.2183 22.1162 68.433 21.5995C67.658 21.0828 67.0277 20.437 66.542 19.662C66.0563 18.887 65.8135 17.926 65.8135 16.779C65.8135 15.632 66.1338 14.64 66.7745 13.803C67.4255 12.9557 68.278 12.3047 69.332 11.85C70.3963 11.3953 71.533 11.168 72.742 11.168ZM89.2672 11.54H93.8707L101.946 32H97.0017L95.5137 27.8925H87.6397L86.1362 32H81.1762L89.2672 11.54ZM89.1897 23.8315H93.9792L91.6077 17.12H91.5612L89.1897 23.8315ZM125.375 11.54V32H120.756V19.9565L120.958 16.531L120.167 20.4525L116.726 30.357H112.185L108.759 20.4525L107.984 16.531L108.186 19.9565V32H103.551V11.54H110.061L114.184 25.1955L114.463 26.823L114.742 25.1955L118.865 11.54H125.375Z" fill="white"/>
<defs>
<linearGradient id="paint0_linear_2_91" x1="23.835" y1="1.78297" x2="23.835" y2="47.5793" gradientUnits="userSpaceOnUse">
<stop stop-color="#F92FB5"/>
<stop offset="0.195" stop-color="#F92FB5"/>
<stop offset="0.452" stop-color="#FF6EE7"/>
<stop offset="0.743" stop-color="#F92FB5"/>
<stop offset="1" stop-color="#FF6EE7"/>
</linearGradient>
<linearGradient id="paint1_linear_2_91" x1="37.1646" y1="0.292435" x2="37.1646" y2="20.604" gradientUnits="userSpaceOnUse">
<stop stop-color="#F92FB5"/>
<stop offset="0.195" stop-color="#FF6EE7"/>
<stop offset="0.452" stop-color="#FF6EE7"/>
<stop offset="0.743" stop-color="#FF6EE7"/>
<stop offset="1" stop-color="#F92FB5"/>
</linearGradient>
</defs>
</svg>
