<svg width="49" height="48" viewBox="0 0 49 48" fill="none" xmlns="http://www.w3.org/2000/svg">
<path d="M47.1667 48H1.83333C1.47971 48 1.14057 47.8595 0.890525 47.6095C0.640476 47.3594 0.5 47.0203 0.5 46.6667V1.33333C0.5 0.979711 0.640476 0.640573 0.890525 0.390525C1.14057 0.140476 1.47971 0 1.83333 0H47.1667C47.5203 0 47.8594 0.140476 48.1095 0.390525C48.3595 0.640573 48.5 0.979711 48.5 1.33333V46.6667C48.5 47.0203 48.3595 47.3594 48.1095 47.6095C47.8594 47.8595 47.5203 48 47.1667 48ZM3.16667 45.3333H45.8333V2.66667H3.16667V45.3333Z" fill="#FF6EE7"/>
<path d="M7.16671 8.00004C7.90309 8.00004 8.50004 7.40309 8.50004 6.66671C8.50004 5.93033 7.90309 5.33337 7.16671 5.33337C6.43033 5.33337 5.83337 5.93033 5.83337 6.66671C5.83337 7.40309 6.43033 8.00004 7.16671 8.00004Z" fill="#FF6EE7"/>
<path d="M12.5 8.00004C13.2363 8.00004 13.8333 7.40309 13.8333 6.66671C13.8333 5.93033 13.2363 5.33337 12.5 5.33337C11.7636 5.33337 11.1666 5.93033 11.1666 6.66671C11.1666 7.40309 11.7636 8.00004 12.5 8.00004Z" fill="#FF6EE7"/>
<path d="M17.8333 8.00004C18.5697 8.00004 19.1667 7.40309 19.1667 6.66671C19.1667 5.93033 18.5697 5.33337 17.8333 5.33337C17.097 5.33337 16.5 5.93033 16.5 6.66671C16.5 7.40309 17.097 8.00004 17.8333 8.00004Z" fill="#FF6EE7"/>
<path d="M20.5 13.3334H1.83333C1.47971 13.3334 1.14057 13.1929 0.890525 12.9429C0.640476 12.6928 0.5 12.3537 0.5 12.0001C0.5 11.6464 0.640476 11.3073 0.890525 11.0573C1.14057 10.8072 1.47971 10.6667 1.83333 10.6667H19.9533L24.8867 5.72006C25.0113 5.59649 25.159 5.49872 25.3215 5.43237C25.4839 5.36602 25.6579 5.33238 25.8333 5.3334H47.1667C47.5203 5.3334 47.8594 5.47387 48.1095 5.72392C48.3595 5.97397 48.5 6.31311 48.5 6.66673C48.5 7.02035 48.3595 7.35949 48.1095 7.60954C47.8594 7.85959 47.5203 8.00006 47.1667 8.00006H26.38L21.4467 12.9467C21.3221 13.0703 21.1743 13.1681 21.0119 13.2344C20.8494 13.3008 20.6755 13.3344 20.5 13.3334ZM16.86 25.3334H16.14C15.1757 25.3299 14.2519 24.9453 13.57 24.2634C12.8881 23.5815 12.5035 22.6577 12.5 21.6934V17.3334C12.5 16.9798 12.6405 16.6406 12.8905 16.3906C13.1406 16.1405 13.4797 16.0001 13.8333 16.0001H19.1667C19.5203 16.0001 19.8594 16.1405 20.1095 16.3906C20.3595 16.6406 20.5 16.9798 20.5 17.3334V21.6934C20.4965 22.6577 20.1119 23.5815 19.43 24.2634C18.7481 24.9453 17.8243 25.3299 16.86 25.3334V25.3334ZM15.1667 18.6667V21.6934C15.1667 21.8212 15.1918 21.9478 15.2408 22.0659C15.2897 22.184 15.3614 22.2913 15.4517 22.3816C15.5421 22.472 15.6494 22.5437 15.7675 22.5926C15.8856 22.6416 16.0122 22.6667 16.14 22.6667H16.86C16.9878 22.6667 17.1144 22.6416 17.2325 22.5926C17.3506 22.5437 17.4579 22.472 17.5483 22.3816C17.6386 22.2913 17.7103 22.184 17.7592 22.0659C17.8082 21.9478 17.8333 21.8212 17.8333 21.6934V18.6667H15.1667ZM20.5 37.3334H12.5C12.1464 37.3334 11.8072 37.1929 11.5572 36.9429C11.3071 36.6928 11.1667 36.3537 11.1667 36.0001C11.1667 35.6464 11.3071 35.3073 11.5572 35.0573C11.8072 34.8072 12.1464 34.6667 12.5 34.6667H20.5C20.8536 34.6667 21.1928 34.8072 21.4428 35.0573C21.6929 35.3073 21.8333 35.6464 21.8333 36.0001C21.8333 36.3537 21.6929 36.6928 21.4428 36.9429C21.1928 37.1929 20.8536 37.3334 20.5 37.3334Z" fill="#FF6EE7"/>
<path d="M21.8334 48H11.1667C10.8131 48 10.4739 47.8595 10.2239 47.6094C9.97385 47.3594 9.83337 47.0202 9.83337 46.6666V41.3333C9.83337 40.9797 9.97385 40.6405 10.2239 40.3905C10.4739 40.1404 10.8131 40 11.1667 40C11.5203 40 11.8595 39.8595 12.1095 39.6094C12.3596 39.3594 12.5 39.0202 12.5 38.6666V36C12.5 35.6463 12.6405 35.3072 12.8906 35.0571C13.1406 34.8071 13.4798 34.6666 13.8334 34.6666H19.1667C19.5203 34.6666 19.8595 34.8071 20.1095 35.0571C20.3596 35.3072 20.5 35.6463 20.5 36V38.6666C20.4972 38.8384 20.5302 39.0089 20.5967 39.1672C20.6633 39.3256 20.762 39.4684 20.8867 39.5866C21.0091 39.715 21.1558 39.8177 21.3184 39.8887C21.4809 39.9597 21.656 39.9975 21.8334 40C22.187 40 22.5261 40.1404 22.7762 40.3905C23.0262 40.6405 23.1667 40.9797 23.1667 41.3333V46.6666C23.1667 47.0202 23.0262 47.3594 22.7762 47.6094C22.5261 47.8595 22.187 48 21.8334 48ZM12.5 45.3333H20.5V42.44C19.7198 42.1641 19.0444 41.6531 18.5668 40.9773C18.0892 40.3015 17.8329 39.4942 17.8334 38.6666V37.3333H15.1667V38.6666C15.1671 39.4942 14.9109 40.3015 14.4333 40.9773C13.9557 41.6531 13.2802 42.1641 12.5 42.44V45.3333Z" fill="#FF6EE7"/>
<path d="M16.5 37.3333C16.1463 37.3333 15.8072 37.1929 15.5571 36.9428C15.3071 36.6928 15.1666 36.3536 15.1666 36V24C15.1666 23.6464 15.3071 23.3072 15.5571 23.0572C15.8072 22.8071 16.1463 22.6667 16.5 22.6667C16.8536 22.6667 17.1927 22.8071 17.4428 23.0572C17.6928 23.3072 17.8333 23.6464 17.8333 24V36C17.8333 36.3536 17.6928 36.6928 17.4428 36.9428C17.1927 37.1929 16.8536 37.3333 16.5 37.3333ZM35.1666 17.0667C34.9113 16.9201 34.6488 16.7866 34.38 16.6667C34.1771 16.5755 33.9547 16.5365 33.7329 16.5532C33.5112 16.57 33.2971 16.6419 33.1103 16.7625C32.9234 16.8831 32.7697 17.0485 32.6631 17.2437C32.5565 17.4389 32.5004 17.6576 32.5 17.88V23.2133L31.1666 23.88L29.8333 23.2133V17.88C29.8328 17.6576 29.7767 17.4389 29.6701 17.2437C29.5636 17.0485 29.4098 16.8831 29.223 16.7625C29.0361 16.6419 28.8221 16.57 28.6003 16.5532C28.3786 16.5365 28.1561 16.5755 27.9533 16.6667C26.599 17.2609 25.4359 18.2189 24.5933 19.4343C23.7507 20.6497 23.2614 22.0749 23.1799 23.5516C23.0984 25.0283 23.4279 26.4986 24.1316 27.7994C24.8354 29.1001 25.886 30.1803 27.1666 30.92V46.6667C27.1666 47.0203 27.3071 47.3594 27.5571 47.6095C27.8072 47.8595 28.1463 48 28.5 48H33.8333C34.1869 48 34.5261 47.8595 34.7761 47.6095C35.0262 47.3594 35.1666 47.0203 35.1666 46.6667V30.92C36.3821 30.2176 37.3913 29.2078 38.0929 27.992C38.7946 26.7762 39.164 25.3971 39.164 23.9933C39.164 22.5896 38.7946 21.2105 38.0929 19.9947C37.3913 18.7788 36.3821 17.769 35.1666 17.0667V17.0667ZM35.1666 27.52C34.6485 28.0946 34.0115 28.5495 33.3 28.8533C33.0615 28.9574 32.8586 29.129 32.7165 29.347C32.5743 29.565 32.4991 29.8198 32.5 30.08V45.3333H29.8333V30.1067C29.8342 29.8464 29.7589 29.5916 29.6168 29.3737C29.4746 29.1557 29.2718 28.9841 29.0333 28.88C28.2658 28.5432 27.5885 28.0302 27.0564 27.3827C26.5242 26.7352 26.1521 25.9714 25.9703 25.1533C25.7885 24.3351 25.802 23.4856 26.0099 22.6736C26.2178 21.8617 26.614 21.1102 27.1666 20.48V24C27.1674 24.2462 27.2363 24.4874 27.3657 24.6969C27.4952 24.9063 27.6801 25.0759 27.9 25.1867L30.5666 26.52C30.7527 26.6138 30.9582 26.6626 31.1666 26.6626C31.375 26.6626 31.5805 26.6138 31.7666 26.52L34.4333 25.1867C34.6532 25.0759 34.8381 24.9063 34.9675 24.6969C35.097 24.4874 35.1659 24.2462 35.1666 24V20.48C36.0217 21.4533 36.4932 22.7045 36.4932 24C36.4932 25.2955 36.0217 26.5467 35.1666 27.52V27.52Z" fill="#FF6EE7"/>
<path opacity="0.5" d="M45.8334 8H41.8334V45.3333H45.8334V8Z" fill="#FF6EE7"/>
<path opacity="0.5" d="M41.8333 41.3333V45.3333H37.8333C37.8333 44.2724 38.2547 43.255 39.0049 42.5049C39.755 41.7547 40.7724 41.3333 41.8333 41.3333ZM32.5 42.6666V45.3333H29.8333C29.8333 44.626 30.1142 43.9478 30.6143 43.4477C31.1144 42.9476 31.7927 42.6666 32.5 42.6666V42.6666ZM17.8333 42.6666V45.3333H15.1666C15.1666 44.626 15.4476 43.9478 15.9477 43.4477C16.4478 42.9476 17.126 42.6666 17.8333 42.6666V42.6666ZM17.8333 20V22.6666H15.1666C15.1666 21.9594 15.4476 21.2811 15.9477 20.781C16.4478 20.2809 17.126 20 17.8333 20V20ZM45.8333 5.33329H36.5C37.2072 5.33329 37.8855 5.05234 38.3856 4.55224C38.8857 4.05215 39.1666 3.37387 39.1666 2.66663H45.8333V5.33329Z" fill="#FF6EE7"/>
<path opacity="0.5" d="M20.5 38.6666H17.8334V45.3333H20.5V38.6666Z" fill="#FF6EE7"/>
</svg>
