<svg width="48" height="48" viewBox="0 0 48 48" fill="none" xmlns="http://www.w3.org/2000/svg">
<path d="M45.6873 15.4837C45.2218 15.4037 44.8436 15.0764 44.6618 14.64C44.6545 14.6328 44.6545 14.6328 44.6545 14.6255C44.4727 14.1891 44.5091 13.6946 44.7782 13.3091L45.28 12.5964L43.7018 11.0182L42.9818 11.52C42.5963 11.7964 42.0945 11.8255 41.6654 11.6437C41.6582 11.6437 41.6582 11.6364 41.6509 11.6364C41.2145 11.4546 40.88 11.0764 40.8073 10.611L40.6618 9.75277H38.4291L38.2836 10.611C38.2036 11.0764 37.8763 11.4546 37.44 11.6364C37.4327 11.6437 37.4327 11.6437 37.4254 11.6437C36.9891 11.8255 36.4873 11.7964 36.1018 11.52L35.3891 11.0182L33.8109 12.5964L34.3127 13.3091C34.5891 13.6946 34.6182 14.1964 34.4363 14.6255C34.4363 14.6328 34.4291 14.64 34.4291 14.64C34.2473 15.0764 33.8691 15.4037 33.4036 15.4837L32.5454 15.6291V17.8619L33.4036 18.0073C33.8691 18.0873 34.24 18.4146 34.4291 18.851C34.4291 18.8582 34.4363 18.8582 34.4363 18.8655C34.6182 19.3019 34.5891 19.7964 34.3127 20.1819L33.8109 20.9019L35.3891 22.48L36.1018 21.9782C36.4873 21.7019 36.9891 21.6728 37.4254 21.8546C37.4327 21.8619 37.4327 21.8619 37.44 21.8619C37.8763 22.0437 38.2109 22.4146 38.2836 22.8873L38.4291 23.7455H40.6618L40.8073 22.8873C40.8873 22.4219 41.2145 22.0437 41.6509 21.8619C41.6582 21.8546 41.6582 21.8546 41.6654 21.8546C42.1018 21.6728 42.5963 21.7019 42.9818 21.9782L43.7018 22.48L45.28 20.9019L44.7782 20.1819C44.5018 19.7964 44.4727 19.2946 44.6545 18.8655C44.6545 18.8582 44.6618 18.851 44.6618 18.851C44.8436 18.4146 45.2218 18.0873 45.6873 18.0073L46.5454 17.8619V15.6291L45.6873 15.4837V15.4837ZM39.5418 19.7819C37.8691 19.7819 36.5091 18.4291 36.5091 16.7491C36.5091 15.0691 37.8691 13.7164 39.5418 13.7164C40.3461 13.7164 41.1175 14.0359 41.6863 14.6047C42.255 15.1734 42.5745 15.9448 42.5745 16.7491C42.5745 17.5535 42.255 18.3249 41.6863 18.8936C41.1175 19.4623 40.3461 19.7819 39.5418 19.7819ZM30.24 5.25095C30.24 7.3455 23.7963 9.04732 15.84 9.04732C7.89817 9.05459 1.45453 7.35277 1.45453 5.25095C1.45453 3.15641 7.89817 1.45459 15.84 1.45459C23.7963 1.45459 30.24 3.15641 30.24 5.25095ZM1.45453 26.691C1.45453 28.7855 7.89817 30.4873 15.84 30.4873C23.7963 30.4873 30.24 28.7855 30.24 26.691V33.84C30.24 35.9346 23.7963 37.6364 15.84 37.6364C7.89817 37.6364 1.45453 35.9346 1.45453 33.84V26.691Z" fill="#C20085"/>
<path d="M1.45453 19.5419C1.45453 21.6364 7.89817 23.3382 15.84 23.3382C23.7963 23.3382 30.24 21.6364 30.24 19.5419V26.691C30.24 28.7855 23.7963 30.4873 15.84 30.4873C7.89817 30.4873 1.45453 28.7855 1.45453 26.691V19.5419V19.5419Z" fill="#FF6EE7"/>
<path d="M1.45453 12.4C1.45453 14.4946 7.89817 16.1964 15.84 16.1964C23.7963 16.1964 30.24 14.4946 30.24 12.4V19.5491C30.24 21.6437 23.7963 23.3455 15.84 23.3455C7.89817 23.3382 1.45453 21.6437 1.45453 19.5418V12.4Z" fill="#C20085"/>
<path d="M1.45453 5.25085C1.45453 7.3454 7.89817 9.04722 15.84 9.04722C23.7963 9.04722 30.24 7.3454 30.24 5.25085V12.3999C30.24 14.4945 23.7963 16.1963 15.84 16.1963C7.89817 16.1963 1.45453 14.4945 1.45453 12.3999V5.25085Z" fill="#FF6EE7"/>
<path opacity="0.3" d="M30.24 24.7564V5.25095C30.24 3.15641 23.7963 1.45459 15.8472 1.45459C15.3091 1.45459 14.7782 1.46186 14.2545 1.47641V16C14.2545 20.8364 18.1745 24.7564 23.0109 24.7564H30.24Z" fill="white"/>
<path opacity="0.3" d="M30.1309 23.0327H30.24V5.25088C30.24 3.25088 24.3563 1.60725 16.8945 1.46179C16.8945 2.27191 17.2163 3.04884 17.7892 3.62168C18.362 4.19452 19.139 4.51634 19.9491 4.51634H27.0836V19.9782C27.0822 20.3791 27.16 20.7763 27.3125 21.1471C27.4651 21.5179 27.6893 21.8548 27.9725 22.1387C28.2557 22.4225 28.5921 22.6476 28.9625 22.801C29.3329 22.9544 29.73 23.0332 30.1309 23.0327V23.0327Z" fill="white"/>
<path d="M39.2509 33.3236C38.5018 33.1927 37.8982 32.6691 37.6146 31.9709C37.6073 31.9636 37.6073 31.9564 37.6 31.9418C37.3164 31.2436 37.3673 30.4509 37.8036 29.8327L38.6109 28.6909L36.08 26.16L34.9309 26.9673C34.3127 27.4036 33.52 27.4545 32.8218 27.1636C32.8146 27.1636 32.8073 27.1564 32.8 27.1564C32.0946 26.8655 31.5709 26.2618 31.4473 25.5127L31.2146 24.1382H27.6364L27.4036 25.5127C27.28 26.2618 26.7491 26.8655 26.0509 27.1491C26.0436 27.1564 26.0364 27.1564 26.0291 27.1636C25.3236 27.4473 24.5309 27.4036 23.9127 26.9673L22.7709 26.16L20.24 28.6909L21.0473 29.8327C21.4836 30.4509 21.5346 31.2436 21.2436 31.9418C21.2436 31.9564 21.2364 31.9636 21.2364 31.9709C20.9527 32.6764 20.3418 33.1927 19.6 33.3236L18.2255 33.5564V37.1273L19.6 37.36C20.3418 37.4909 20.9455 38.0145 21.2364 38.7127C21.2364 38.72 21.2436 38.7273 21.2436 38.7418C21.5346 39.44 21.4836 40.2327 21.0473 40.8509L20.24 42L22.7709 44.5236L23.9127 43.7236C24.5309 43.28 25.3236 43.2364 26.0291 43.52C26.0364 43.5273 26.0436 43.5273 26.0509 43.5345C26.7564 43.8182 27.28 44.4218 27.4036 45.1709L27.6364 46.5455H31.2146L31.4473 45.1709C31.5709 44.4218 32.1018 43.8182 32.8 43.5345C32.8073 43.5273 32.8146 43.5273 32.8218 43.52C33.52 43.2364 34.3127 43.28 34.9309 43.7164L36.08 44.5236L38.6109 42L37.8036 40.8509C37.3673 40.2327 37.3164 39.44 37.6073 38.7418C37.6073 38.7273 37.6146 38.72 37.6146 38.7127C37.9055 38.0145 38.5091 37.4909 39.2509 37.36L40.6255 37.1273V33.5564L39.2509 33.3236V33.3236ZM29.4182 40.1964C26.7418 40.1964 24.5673 38.0291 24.5673 35.3455C24.5673 32.6618 26.7418 30.4945 29.4182 30.4945C30.0552 30.4945 30.686 30.62 31.2746 30.8638C31.8631 31.1076 32.3979 31.4649 32.8483 31.9153C33.2988 32.3658 33.6561 32.9006 33.8998 33.4891C34.1436 34.0776 34.2691 34.7084 34.2691 35.3455C34.2691 35.9825 34.1436 36.6133 33.8998 37.2018C33.6561 37.7904 33.2988 38.3251 32.8483 38.7756C32.3979 39.226 31.8631 39.5833 31.2746 39.8271C30.686 40.0709 30.0552 40.1964 29.4182 40.1964Z" fill="#F92FB5"/>
</svg>
