<svg width="49" height="48" viewBox="0 0 49 48" fill="none" xmlns="http://www.w3.org/2000/svg">
<path d="M35.1666 48H13.8333C13.5976 48 13.3715 47.9157 13.2048 47.7657C13.0381 47.6157 12.9444 47.4122 12.9444 47.2C12.9444 46.9878 13.0381 46.7843 13.2048 46.6343C13.3715 46.4843 13.5976 46.4 13.8333 46.4H35.1666C35.4024 46.4 35.6285 46.4843 35.7952 46.6343C35.9619 46.7843 36.0555 46.9878 36.0555 47.2C36.0555 47.4122 35.9619 47.6157 35.7952 47.7657C35.6285 47.9157 35.4024 48 35.1666 48ZM43.1666 0H5.83335C5.5976 0 5.37151 0.0842854 5.20481 0.234315C5.03811 0.384344 4.94446 0.587827 4.94446 0.8V6.4H44.0555V0.8C44.0555 0.587827 43.9619 0.384344 43.7952 0.234315C43.6285 0.0842854 43.4024 0 43.1666 0V0ZM23.6111 4H8.50001C8.26426 4 8.03817 3.91571 7.87147 3.76569C7.70477 3.61566 7.61112 3.41217 7.61112 3.2C7.61112 2.98783 7.70477 2.78434 7.87147 2.63431C8.03817 2.48429 8.26426 2.4 8.50001 2.4H23.6111C23.8469 2.4 24.0729 2.48429 24.2396 2.63431C24.4063 2.78434 24.5 2.98783 24.5 3.2C24.5 3.41217 24.4063 3.61566 24.2396 3.76569C24.0729 3.91571 23.8469 4 23.6111 4ZM28.9444 4.8C28.5928 4.8 28.2491 4.70616 27.9568 4.53035C27.6644 4.35454 27.4365 4.10466 27.302 3.81229C27.1674 3.51993 27.1322 3.19823 27.2008 2.88786C27.2694 2.57749 27.4387 2.29239 27.6874 2.06863C27.936 1.84487 28.2527 1.69248 28.5976 1.63074C28.9425 1.56901 29.2999 1.60069 29.6248 1.72179C29.9496 1.84289 30.2273 2.04797 30.4226 2.31109C30.6179 2.57421 30.7222 2.88355 30.7222 3.2C30.7222 3.62435 30.5349 4.03131 30.2015 4.33137C29.8681 4.63143 29.4159 4.8 28.9444 4.8ZM34.2778 4.8C33.9261 4.8 33.5824 4.70616 33.2901 4.53035C32.9977 4.35454 32.7699 4.10466 32.6353 3.81229C32.5008 3.51993 32.4655 3.19823 32.5341 2.88786C32.6027 2.57749 32.7721 2.29239 33.0207 2.06863C33.2693 1.84487 33.5861 1.69248 33.9309 1.63074C34.2758 1.56901 34.6332 1.60069 34.9581 1.72179C35.2829 1.84289 35.5606 2.04797 35.7559 2.31109C35.9513 2.57421 36.0555 2.88355 36.0555 3.2C36.0555 3.62435 35.8682 4.03131 35.5348 4.33137C35.2014 4.63143 34.7493 4.8 34.2778 4.8ZM39.6111 4.8C39.2595 4.8 38.9158 4.70616 38.6234 4.53035C38.3311 4.35454 38.1032 4.10466 37.9686 3.81229C37.8341 3.51993 37.7989 3.19823 37.8675 2.88786C37.9361 2.57749 38.1054 2.29239 38.354 2.06863C38.6026 1.84487 38.9194 1.69248 39.2643 1.63074C39.6091 1.56901 39.9666 1.60069 40.2914 1.72179C40.6163 1.84289 40.8939 2.04797 41.0893 2.31109C41.2846 2.57421 41.3889 2.88355 41.3889 3.2C41.3889 3.62435 41.2016 4.03131 40.8682 4.33137C40.5348 4.63143 40.0826 4.8 39.6111 4.8ZM4.94446 8V24C4.94446 24.2122 5.03811 24.4157 5.20481 24.5657C5.37151 24.7157 5.5976 24.8 5.83335 24.8H43.1666C43.4024 24.8 43.6285 24.7157 43.7952 24.5657C43.9619 24.4157 44.0555 24.2122 44.0555 24V8H4.94446ZM10.1267 18.76C10.2553 18.9364 10.3014 19.1513 10.2547 19.3581C10.2081 19.5649 10.0726 19.7467 9.87779 19.864C9.73464 19.9542 9.56365 20.0018 9.3889 20C9.24249 19.9993 9.09854 19.9661 8.96983 19.9033C8.84112 19.8405 8.73164 19.75 8.65112 19.64L6.87334 17.24C6.77776 17.1094 6.72683 16.9564 6.72683 16.8C6.72683 16.6436 6.77776 16.4906 6.87334 16.36L8.65112 13.96C8.79005 13.8048 8.98837 13.7018 9.20724 13.6713C9.4261 13.6408 9.64975 13.6849 9.83437 13.795C10.019 13.9051 10.1513 14.0732 10.2054 14.2665C10.2594 14.4598 10.2314 14.6643 10.1267 14.84L8.67779 16.8L10.1267 18.76ZM14.7222 13.904L12.9444 20.096C12.8941 20.272 12.7786 20.4273 12.617 20.5364C12.4554 20.6455 12.2574 20.7017 12.0556 20.696C11.9817 20.7038 11.9072 20.7038 11.8333 20.696C11.7147 20.6728 11.6026 20.628 11.5039 20.5644C11.4052 20.5007 11.3221 20.4195 11.2596 20.3258C11.1972 20.2321 11.1567 20.1279 11.1407 20.0196C11.1247 19.9112 11.1336 19.8011 11.1667 19.696L12.9444 13.504C13.0034 13.2982 13.1507 13.1219 13.3541 13.0139C13.5575 12.9058 13.8002 12.875 14.0289 12.928C14.2576 12.981 14.4535 13.1137 14.5735 13.2967C14.6935 13.4797 14.7278 13.6982 14.6689 13.904H14.7222ZM19.0422 17.24L17.2644 19.64C17.1815 19.7535 17.0678 19.8461 16.934 19.9091C16.8003 19.9721 16.6509 20.0033 16.5 20C16.3252 20.0018 16.1543 19.9542 16.0111 19.864C15.8163 19.7467 15.6808 19.5649 15.6342 19.3581C15.5875 19.1513 15.6336 18.9364 15.7622 18.76L17.2111 16.8L15.7622 14.84C15.6846 14.7533 15.628 14.653 15.596 14.5455C15.5639 14.438 15.5571 14.3256 15.5761 14.2156C15.595 14.1056 15.6392 14.0004 15.7059 13.9067C15.7727 13.8129 15.8604 13.7328 15.9635 13.6713C16.0666 13.6098 16.1828 13.5683 16.3047 13.5496C16.4266 13.5308 16.5515 13.5352 16.6715 13.5624C16.7914 13.5895 16.9037 13.6389 17.0012 13.7074C17.0988 13.7759 17.1793 13.8619 17.2378 13.96L19.0156 16.36C19.1111 16.4906 19.1621 16.6436 19.1621 16.8C19.1621 16.9564 19.1111 17.1094 19.0156 17.24H19.0422ZM42.2778 20.8C42.2778 21.4365 41.9968 22.047 41.4967 22.4971C40.9966 22.9471 40.3183 23.2 39.6111 23.2H24.5C23.7927 23.2 23.1145 22.9471 22.6144 22.4971C22.1143 22.047 21.8333 21.4365 21.8333 20.8V12.8C21.8333 12.1635 22.1143 11.553 22.6144 11.1029C23.1145 10.6529 23.7927 10.4 24.5 10.4H39.6111C40.3183 10.4 40.9966 10.6529 41.4967 11.1029C41.9968 11.553 42.2778 12.1635 42.2778 12.8V20.8Z" fill="#FF6EE7"/>
<path d="M48.5 7.2V28.8H0.500026V7.2C0.49708 6.4234 0.748437 5.66322 1.2227 5.01443C1.69696 4.36563 2.37311 3.85698 3.16669 3.552V24C3.16669 24.6365 3.44764 25.247 3.94774 25.6971C4.44783 26.1471 5.12611 26.4 5.83335 26.4H43.1666C43.8739 26.4 44.5522 26.1471 45.0523 25.6971C45.5524 25.247 45.8333 24.6365 45.8333 24V3.552C46.6269 3.85698 47.303 4.36563 47.7773 5.01443C48.2516 5.66322 48.5029 6.4234 48.5 7.2V7.2ZM32.4022 46.4H16.5978L19.6467 38.4H29.3533L32.4022 46.4Z" fill="#FF6EE7"/>
<path d="M0.5 30.4001V32.8001C0.5 33.8609 0.968252 34.8783 1.80175 35.6285C2.63524 36.3786 3.7657 36.8001 4.94444 36.8001H44.0555C45.2342 36.8001 46.3647 36.3786 47.1982 35.6285C48.0317 34.8783 48.4999 33.8609 48.4999 32.8001V30.4001H0.5ZM25.3889 34.4001H23.6111C23.3753 34.4001 23.1492 34.3158 22.9825 34.1657C22.8158 34.0157 22.7222 33.8122 22.7222 33.6001C22.7222 33.3879 22.8158 33.1844 22.9825 33.0344C23.1492 32.8843 23.3753 32.8001 23.6111 32.8001H25.3889C25.6246 32.8001 25.8507 32.8843 26.0174 33.0344C26.1841 33.1844 26.2778 33.3879 26.2778 33.6001C26.2778 33.8122 26.1841 34.0157 26.0174 34.1657C25.8507 34.3158 25.6246 34.4001 25.3889 34.4001ZM29.9489 21.6001H24.8644L27.1666 19.5521C27.2591 19.4662 27.3718 19.4 27.4964 19.3585C27.621 19.317 27.7543 19.3011 27.8866 19.3121C28.0177 19.325 28.1439 19.364 28.2561 19.4263C28.3684 19.4885 28.4638 19.5725 28.5355 19.6721L29.9489 21.6001ZM39.4066 21.6001H32.0822L30.9444 20.0561L33.6111 17.1441C33.6937 17.0548 33.7969 16.9828 33.9136 16.933C34.0302 16.8833 34.1575 16.857 34.2866 16.8561C34.4143 16.8468 34.5424 16.867 34.659 16.9146C34.7756 16.9621 34.8769 17.0356 34.9533 17.1281L39.4066 21.6001Z" fill="#FF6EE7"/>
<path d="M39.6111 12H24.5C24.2642 12 24.0381 12.0843 23.8714 12.2343C23.7047 12.3843 23.6111 12.5878 23.6111 12.8V20.472L25.8866 18.4C26.1572 18.1588 26.4821 17.9726 26.8393 17.8538C27.1966 17.7351 27.578 17.6866 27.9578 17.7116C28.3376 17.7366 28.7071 17.8345 29.0413 17.9988C29.3756 18.1631 29.6668 18.3899 29.8955 18.664L32.2689 16.104C32.5164 15.8411 32.824 15.6293 33.1706 15.483C33.5173 15.3367 33.8949 15.2593 34.2777 15.256C34.6535 15.2556 35.0252 15.3266 35.3683 15.4645C35.7114 15.6023 36.0183 15.8039 36.2688 16.056L40.5 20.296V12.8C40.5 12.5878 40.4063 12.3843 40.2396 12.2343C40.0729 12.0843 39.8468 12 39.6111 12ZM28.0555 16.8C27.7039 16.8 27.3602 16.7062 27.0678 16.5304C26.7755 16.3545 26.5476 16.1047 26.4131 15.8123C26.2785 15.5199 26.2433 15.1982 26.3119 14.8879C26.3805 14.5775 26.5498 14.2924 26.7984 14.0686C27.0471 13.8449 27.3638 13.6925 27.7087 13.6307C28.0535 13.569 28.411 13.6007 28.7358 13.7218C29.0607 13.8429 29.3383 14.048 29.5337 14.3111C29.729 14.5742 29.8333 14.8835 29.8333 15.2C29.8333 15.6243 29.646 16.0313 29.3126 16.3314C28.9792 16.6314 28.527 16.8 28.0555 16.8Z" fill="#FF6EE7"/>
</svg>
