<svg width="48" height="48" viewBox="0 0 48 48" fill="none" xmlns="http://www.w3.org/2000/svg">
<path d="M29 2H7C5.34315 2 4 3.34315 4 5V43C4 44.6569 5.34315 46 7 46H29C30.6569 46 32 44.6569 32 43V5C32 3.34315 30.6569 2 29 2Z" fill="#BEC6C6"/>
<path d="M7 5H29V43H7V5Z" fill="#F8F9F9"/>
<path d="M18 27C22.4183 27 26 23.4183 26 19C26 14.5817 22.4183 11 18 11C13.5817 11 10 14.5817 10 19C10 23.4183 13.5817 27 18 27Z" fill="#BEC6C6"/>
<path d="M18 24C20.7614 24 23 21.7614 23 19C23 16.2386 20.7614 14 18 14C15.2386 14 13 16.2386 13 19C13 21.7614 15.2386 24 18 24Z" fill="#6457FF"/>
<path d="M29 47H7C5.93913 47 4.92172 46.5786 4.17157 45.8284C3.42143 45.0783 3 44.0609 3 43V5C3 3.93913 3.42143 2.92172 4.17157 2.17157C4.92172 1.42143 5.93913 1 7 1H29C30.0609 1 31.0783 1.42143 31.8284 2.17157C32.5786 2.92172 33 3.93913 33 5V43C33 44.0609 32.5786 45.0783 31.8284 45.8284C31.0783 46.5786 30.0609 47 29 47ZM7 3C6.46957 3 5.96086 3.21071 5.58579 3.58579C5.21071 3.96086 5 4.46957 5 5V43C5 43.5304 5.21071 44.0391 5.58579 44.4142C5.96086 44.7893 6.46957 45 7 45H29C29.5304 45 30.0391 44.7893 30.4142 44.4142C30.7893 44.0391 31 43.5304 31 43V5C31 4.46957 30.7893 3.96086 30.4142 3.58579C30.0391 3.21071 29.5304 3 29 3H7Z" fill="#FF6EE7"/>
<path d="M21 7H15C14.4696 7 13.9609 6.78929 13.5858 6.41421C13.2107 6.03914 13 5.53043 13 5H23C23 5.53043 22.7893 6.03914 22.4142 6.41421C22.0391 6.78929 21.5304 7 21 7Z" fill="#BEC6C6"/>
<path d="M37.73 24.1401L42.63 32.6201C43.0223 33.306 43.2064 34.0912 43.16 34.8801C43.01 37.1801 42.96 37.1901 43.16 37.5301L44 39.0001L31.88 46.0001L30.7 44.0001C30.4858 43.6355 30.1646 43.3457 29.78 43.17L18 37.8801L18.3 37.0601C18.6689 36.0704 19.4143 35.2669 20.3735 34.8247C21.3327 34.3826 22.4279 34.3378 23.42 34.7001L25.93 35.6101L17.93 21.7501C17.6909 21.293 17.6376 20.7612 17.7813 20.2658C17.9251 19.7703 18.2547 19.3496 18.7013 19.0915C19.1479 18.8333 19.6769 18.7577 20.178 18.8804C20.679 19.0032 21.1132 19.3147 21.39 19.7501L25.39 26.6801C25.1509 26.223 25.0976 25.6912 25.2413 25.1958C25.3851 24.7003 25.7147 24.2796 26.1613 24.0215C26.6079 23.7633 27.1369 23.6877 27.638 23.8104C28.139 23.9332 28.5732 24.2447 28.85 24.6801L29.85 26.4101C29.5848 25.9499 29.5132 25.4032 29.651 24.8903C29.7889 24.3774 30.1248 23.9403 30.585 23.6751C31.0451 23.4098 31.5918 23.3383 32.1047 23.4761C32.6176 23.614 33.0548 23.9499 33.32 24.4101L34.32 26.1401C34.1753 25.9124 34.0781 25.6579 34.0343 25.3917C33.9906 25.1255 34.0011 24.8533 34.0652 24.5913C34.1294 24.3293 34.2459 24.083 34.4078 23.8672C34.5696 23.6514 34.7734 23.4706 35.0069 23.3356C35.2405 23.2006 35.4989 23.1142 35.7666 23.0817C36.0344 23.0492 36.306 23.0711 36.5651 23.1463C36.8241 23.2215 37.0653 23.3482 37.2741 23.519C37.4829 23.6898 37.655 23.901 37.78 24.1401H37.73Z" fill="#F8F9F9"/>
<path d="M32.0001 47C31.8327 46.9997 31.6682 46.9574 31.5214 46.8771C31.3747 46.7967 31.2504 46.6808 31.1601 46.54L29.8601 44.54C29.5901 44.08 30.3301 44.54 17.5401 38.83C17.2969 38.7282 17.1037 38.5345 17.0026 38.2911C16.9014 38.0476 16.9005 37.7741 17.0001 37.53L17.3101 36.71C17.7619 35.4827 18.6766 34.4814 19.858 33.9206C21.0394 33.3598 22.3936 33.2842 23.6301 33.71L17.0001 22.25C16.6022 21.5604 16.4946 20.741 16.7009 19.9721C16.9072 19.2032 17.4105 18.5478 18.1001 18.15C18.7896 17.7521 19.609 17.6445 20.3779 17.8508C21.1468 18.0571 21.8022 18.5604 22.2001 19.25L24.7801 23.73C25.0482 23.4168 25.3781 23.1623 25.749 22.9823C26.1199 22.8023 26.5239 22.7007 26.9359 22.6838C27.3478 22.6669 27.7588 22.7351 28.1432 22.8841C28.5276 23.0331 28.8772 23.2598 29.1701 23.55C29.4319 23.218 29.7611 22.9451 30.1358 22.7492C30.5106 22.5534 30.9225 22.4389 31.3446 22.4134C31.7666 22.3879 32.1894 22.452 32.585 22.6013C32.9806 22.7506 33.3401 22.9819 33.6401 23.28C33.9423 22.8854 34.3379 22.5721 34.7912 22.3682C35.2445 22.1643 35.7414 22.0763 36.2371 22.112C36.7329 22.1477 37.212 22.306 37.6314 22.5727C38.0509 22.8394 38.3975 23.2061 38.6401 23.64L43.5301 32.12C44.4501 33.71 44.1901 34.98 44.0601 37.03L44.9101 38.5C44.9757 38.6142 45.0182 38.7403 45.0352 38.871C45.0521 39.0016 45.0432 39.1344 45.0088 39.2616C44.9744 39.3888 44.9154 39.508 44.8349 39.6124C44.7545 39.7168 44.6543 39.8043 44.5401 39.87C44.4258 39.9356 44.2997 39.9781 44.1691 39.9951C44.0384 40.012 43.9056 40.0031 43.7784 39.9687C43.6512 39.9343 43.532 39.8753 43.4276 39.7948C43.3232 39.7144 43.2357 39.6142 43.1701 39.5C42.3601 38.15 42.0001 37.7 42.0001 36.9C42.1201 35.01 42.3401 34.16 41.7401 33.12L36.8501 24.64C36.7844 24.5257 36.6969 24.4255 36.5925 24.3451C36.4881 24.2647 36.3689 24.2056 36.2417 24.1712C36.1145 24.1369 35.9817 24.1279 35.8511 24.1448C35.7204 24.1618 35.5943 24.2043 35.4801 24.27C35.3658 24.3356 35.2656 24.4231 35.1852 24.5275C35.1048 24.6319 35.0457 24.7511 35.0113 24.8783C34.977 25.0056 34.968 25.1383 34.9849 25.269C35.0019 25.3997 35.0444 25.5257 35.1101 25.64L37.1101 29.11C37.2413 29.3384 37.2771 29.6093 37.2097 29.864C37.1422 30.1186 36.9771 30.3364 36.7501 30.47C36.6365 30.5365 36.511 30.58 36.3806 30.5979C36.2502 30.6158 36.1176 30.6078 35.9903 30.5744C35.8631 30.5409 35.7436 30.4827 35.6389 30.403C35.5342 30.3233 35.4462 30.2237 35.3801 30.11L32.3801 24.91C32.2456 24.6819 32.0263 24.5165 31.7701 24.45C31.5801 24.4011 31.3801 24.4092 31.1947 24.4731C31.0093 24.5371 30.8468 24.6542 30.7275 24.8098C30.6081 24.9654 30.5372 25.1526 30.5234 25.3482C30.5096 25.5438 30.5537 25.7392 30.6501 25.91L33.6501 31.11C33.7696 31.3385 33.7962 31.6044 33.7244 31.8521C33.6525 32.0998 33.4877 32.3102 33.2644 32.4393C33.0411 32.5683 32.7766 32.6061 32.5261 32.5448C32.2756 32.4834 32.0584 32.3276 31.9201 32.11L27.9201 25.18C27.8544 25.0657 27.7669 24.9655 27.6625 24.8851C27.5581 24.8047 27.4389 24.7456 27.3117 24.7112C27.1845 24.6769 27.0517 24.6679 26.9211 24.6848C26.7904 24.7018 26.6643 24.7443 26.5501 24.81C26.4358 24.8756 26.3356 24.9631 26.2552 25.0675C26.1748 25.1719 26.1157 25.2911 26.0813 25.4183C26.047 25.5456 26.038 25.6783 26.0549 25.809C26.0719 25.9397 26.1144 26.0657 26.1801 26.18C30.5301 33.71 30.3201 33.18 30.3201 33.61C30.3216 33.8314 30.2496 34.047 30.1154 34.2232C29.9812 34.3993 29.7923 34.5258 29.5784 34.583C29.3645 34.6402 29.1376 34.6248 28.9334 34.5392C28.7292 34.4536 28.5592 34.3026 28.4501 34.11L20.4501 20.25C20.3117 20.0323 20.0946 19.8765 19.8441 19.8152C19.5935 19.7538 19.329 19.7916 19.1057 19.9207C18.8824 20.0497 18.7176 20.2601 18.6457 20.5078C18.5739 20.7555 18.6005 21.0214 18.7201 21.25L26.7201 35.11C26.8231 35.2879 26.8689 35.4932 26.851 35.698C26.8332 35.9028 26.7526 36.0972 26.6204 36.2546C26.4881 36.412 26.3106 36.5248 26.1119 36.5776C25.9132 36.6305 25.7031 36.6208 25.5101 36.55L23.0001 35.64C22.2685 35.3736 21.4621 35.402 20.7512 35.7192C20.0402 36.0365 19.4804 36.6176 19.1901 37.34L30.1901 42.22C31.1901 42.68 31.4501 43.28 32.8401 45.46C32.9369 45.6109 32.9914 45.7852 32.9978 45.9644C33.0041 46.1437 32.9622 46.3214 32.8763 46.4788C32.7904 46.6363 32.6637 46.7677 32.5096 46.8594C32.3554 46.9511 32.1794 46.9997 32.0001 47Z" fill="#FF6EE7"/>
</svg>
