<svg width="28" height="29" viewBox="0 0 28 29" fill="none" xmlns="http://www.w3.org/2000/svg">
<g clip-path="url(#clip0_30_1061)">
<path d="M21.8089 12.2742C21.8089 13.708 21.3241 15.0335 20.3545 16.2507C19.3849 17.4678 18.062 18.4297 16.3858 19.1363C14.7096 19.8429 12.8864 20.1962 10.9162 20.1962C10.0291 20.1962 9.12141 20.1137 8.19306 19.9486C6.914 20.8563 5.48021 21.5165 3.89169 21.9291C3.52035 22.0219 3.07681 22.1045 2.56106 22.1767H2.51464C2.40117 22.1767 2.29544 22.1354 2.19745 22.0529C2.09946 21.9704 2.04015 21.862 2.01952 21.728C2.0092 21.697 2.00404 21.6635 2.00404 21.6274C2.00404 21.5913 2.00662 21.5578 2.01178 21.5268C2.01694 21.4959 2.02725 21.4649 2.04273 21.434L2.08141 21.3566L2.13556 21.2715L2.19745 21.1942L2.26708 21.1168L2.32897 21.0472C2.38054 20.9853 2.49917 20.8563 2.68484 20.6603C2.87051 20.4644 3.0046 20.3122 3.08712 20.2039C3.16964 20.0956 3.28569 19.946 3.43525 19.7552C3.58482 19.5644 3.71376 19.3658 3.82207 19.1595C3.93038 18.9532 4.0361 18.7263 4.13925 18.4787C2.86019 17.736 1.85448 16.8232 1.12211 15.7401C0.389743 14.657 0.0235596 13.5017 0.0235596 12.2742C0.0235596 10.8404 0.508366 9.51496 1.47798 8.29779C2.44759 7.08062 3.77049 6.11874 5.44668 5.41216C7.12288 4.70558 8.94606 4.35229 10.9162 4.35229C12.8864 4.35229 14.7096 4.70558 16.3858 5.41216C18.062 6.11874 19.3849 7.08062 20.3545 8.29779C21.3241 9.51496 21.8089 10.8404 21.8089 12.2742ZM27.7503 16.2352C27.7503 17.473 27.3842 18.6309 26.6518 19.7088C25.9194 20.7867 24.9137 21.697 23.6347 22.4397C23.7378 22.6873 23.8435 22.9142 23.9518 23.1205C24.0601 23.3268 24.1891 23.5253 24.3387 23.7162C24.4882 23.907 24.6043 24.0566 24.6868 24.1649C24.7693 24.2732 24.9034 24.4253 25.0891 24.6213C25.2747 24.8173 25.3934 24.9462 25.4449 25.0081C25.4553 25.0184 25.4759 25.0417 25.5068 25.0778C25.5378 25.1139 25.561 25.1396 25.5765 25.1551C25.5919 25.1706 25.6126 25.1964 25.6383 25.2325C25.6641 25.2686 25.6822 25.297 25.6925 25.3176L25.7312 25.3949L25.7621 25.4878L25.7699 25.5884L25.7544 25.6889C25.7234 25.8333 25.6564 25.9468 25.5532 26.0293C25.4501 26.1118 25.3366 26.1479 25.2128 26.1376C24.6971 26.0654 24.2536 25.9829 23.8822 25.8901C22.2937 25.4775 20.8599 24.8173 19.5808 23.9096C18.6525 24.0746 17.7448 24.1571 16.8577 24.1571C14.0623 24.1571 11.628 23.4764 9.55464 22.1148C10.1529 22.156 10.6068 22.1767 10.9162 22.1767C12.5769 22.1767 14.1706 21.9446 15.6972 21.4804C17.2239 21.0162 18.5854 20.3509 19.782 19.4844C21.0714 18.5355 22.0616 17.4421 22.7527 16.2043C23.4438 14.9665 23.7894 13.6564 23.7894 12.2742C23.7894 11.48 23.6708 10.696 23.4335 9.92241C24.7641 10.6548 25.8163 11.5728 26.5899 12.6765C27.3635 13.7802 27.7503 14.9665 27.7503 16.2352Z" fill="#FF6EE7"/>
</g>
<defs>
<clipPath id="clip0_30_1061">
<rect width="27.7268" height="27.7268" fill="white" transform="translate(0.0235596 0.391357)"/>
</clipPath>
</defs>
</svg>
