<svg width="29" height="29" viewBox="0 0 29 29" fill="none" xmlns="http://www.w3.org/2000/svg">
<g clip-path="url(#clip0_30_1062)">
<path d="M14.6959 1.09124L15.5946 2.91216C15.6324 2.98882 15.6883 3.05514 15.7575 3.10539C15.8266 3.15564 15.907 3.18833 15.9916 3.20064L18.0012 3.49264C18.0985 3.50679 18.19 3.5479 18.2652 3.61132C18.3404 3.67474 18.3964 3.75794 18.4268 3.85151C18.4572 3.94508 18.4608 4.04529 18.4372 4.14081C18.4137 4.23633 18.3638 4.32335 18.2934 4.39203L16.8392 5.80945C16.778 5.86912 16.7322 5.94278 16.7058 6.02409C16.6794 6.10539 16.6732 6.19189 16.6876 6.27615L17.0309 8.27757C17.0475 8.37453 17.0367 8.47421 16.9996 8.56534C16.9625 8.65647 16.9007 8.73541 16.8211 8.79324C16.7415 8.85106 16.6473 8.88547 16.5492 8.89257C16.4511 8.89967 16.3529 8.87917 16.2659 8.8334L14.4684 7.88847C14.3928 7.84869 14.3086 7.8279 14.2231 7.8279C14.1376 7.8279 14.0534 7.84869 13.9777 7.88847L12.1803 8.83346C12.0932 8.87925 11.9951 8.89975 11.8969 8.89266C11.7988 8.88557 11.7046 8.85116 11.625 8.79332C11.5454 8.73549 11.4836 8.65653 11.4465 8.56539C11.4094 8.47424 11.3986 8.37454 11.4152 8.27757L11.7585 6.27615C11.773 6.19189 11.7667 6.10539 11.7403 6.02409C11.7139 5.94278 11.6681 5.86912 11.6069 5.80945L10.1528 4.39203C10.0823 4.32335 10.0325 4.23633 10.0089 4.14081C9.98532 4.04529 9.98893 3.94508 10.0193 3.85151C10.0497 3.75794 10.1057 3.67474 10.1809 3.61132C10.2561 3.5479 10.3476 3.50679 10.445 3.49264L12.4545 3.20064C12.5391 3.18834 12.6195 3.15566 12.6886 3.1054C12.7578 3.05515 12.8137 2.98883 12.8515 2.91216L13.7503 1.09124C13.7938 1.00302 13.8612 0.928752 13.9447 0.876819C14.0283 0.824886 14.1247 0.797363 14.2231 0.797363C14.3214 0.797363 14.4179 0.824886 14.5014 0.876819C14.585 0.928752 14.6523 1.00302 14.6959 1.09124V1.09124Z" fill="#FFE966"/>
<path d="M18.2935 4.39208C18.3639 4.3234 18.4137 4.23639 18.4373 4.14087C18.4609 4.04535 18.4573 3.94514 18.4269 3.85157C18.3965 3.758 18.3405 3.6748 18.2653 3.61138C18.1901 3.54796 18.0986 3.50685 18.0012 3.49269L15.9917 3.2007C15.9071 3.1884 15.8267 3.15571 15.7576 3.10546C15.6884 3.0552 15.6325 2.98888 15.5947 2.91222L14.6959 1.09124C14.6524 1.00302 14.585 0.928752 14.5014 0.876819C14.4179 0.824886 14.3215 0.797363 14.2231 0.797363C14.1247 0.797363 14.0283 0.824886 13.9447 0.876819C13.8612 0.928752 13.7938 1.00302 13.7503 1.09124L13.5996 1.39656L14.4753 3.17102C14.5132 3.24767 14.5691 3.31398 14.6382 3.36423C14.7074 3.41447 14.7877 3.44715 14.8723 3.45944L16.8819 3.75144C16.9793 3.76559 17.0708 3.80671 17.146 3.87013C17.2212 3.93355 17.2772 4.01674 17.3076 4.11032C17.338 4.20389 17.3416 4.3041 17.318 4.39961C17.2944 4.49513 17.2446 4.58215 17.1741 4.65083L15.72 6.06825C15.6588 6.12792 15.613 6.20159 15.5866 6.28289C15.5602 6.36419 15.5539 6.45069 15.5684 6.53495L15.9117 8.53642C15.9182 8.5743 15.9207 8.61277 15.9191 8.65117L16.2659 8.83346C16.353 8.87922 16.4511 8.89972 16.5492 8.89262C16.6474 8.88552 16.7415 8.85111 16.8211 8.79329C16.9007 8.73546 16.9625 8.65652 16.9996 8.5654C17.0367 8.47427 17.0475 8.37459 17.0309 8.27762L16.6876 6.2762C16.6732 6.19195 16.6794 6.10544 16.7058 6.02414C16.7323 5.94284 16.778 5.86918 16.8393 5.8095L18.2935 4.39208Z" fill="#FFE236"/>
<path d="M5.04974 8.10004L5.86833 9.75878C5.90279 9.82861 5.95372 9.88902 6.01672 9.93479C6.07972 9.98057 6.15291 10.0103 6.22997 10.0215L8.06048 10.2875C8.14917 10.3004 8.23248 10.3378 8.301 10.3956C8.36952 10.4534 8.42051 10.5291 8.4482 10.6144C8.47589 10.6996 8.47918 10.7909 8.4577 10.8779C8.43622 10.9649 8.39083 11.0442 8.32665 11.1067L7.00204 12.3979C6.94629 12.4522 6.90459 12.5193 6.88053 12.5934C6.85648 12.6674 6.85079 12.7462 6.86395 12.823L7.17664 14.6461C7.19179 14.7344 7.18193 14.8252 7.14816 14.9082C7.1144 14.9912 7.05809 15.0631 6.98559 15.1158C6.91308 15.1685 6.82729 15.1998 6.73791 15.2063C6.64852 15.2128 6.55911 15.1941 6.47978 15.1524L4.84255 14.2916C4.77362 14.2554 4.69691 14.2364 4.61903 14.2364C4.54115 14.2364 4.46444 14.2554 4.39551 14.2916L2.75828 15.1524C2.67895 15.1941 2.58954 15.2128 2.50015 15.2063C2.41077 15.1998 2.32498 15.1685 2.25247 15.1158C2.17997 15.0631 2.12366 14.9912 2.0899 14.9082C2.05613 14.8252 2.04627 14.7344 2.06142 14.6461L2.37411 12.823C2.38727 12.7462 2.38158 12.6674 2.35753 12.5934C2.33347 12.5193 2.29177 12.4522 2.23602 12.3979L0.911412 11.1067C0.847234 11.0442 0.801838 10.9649 0.780357 10.8779C0.758877 10.7909 0.762169 10.6996 0.789861 10.6144C0.817553 10.5291 0.868541 10.4534 0.937058 10.3956C1.00558 10.3378 1.08889 10.3004 1.17758 10.2875L3.00809 10.0215C3.08515 10.0103 3.15834 9.98057 3.22134 9.93479C3.28434 9.88902 3.33527 9.82861 3.36973 9.75878L4.18832 8.10004C4.22798 8.01967 4.28933 7.95199 4.36545 7.90467C4.44157 7.85735 4.5294 7.83228 4.61903 7.83228C4.70866 7.83228 4.7965 7.85735 4.87261 7.90467C4.94873 7.95199 5.01008 8.01967 5.04974 8.10004V8.10004ZM24.2579 8.10004L25.0764 9.75878C25.1109 9.82861 25.1618 9.88902 25.2248 9.93479C25.2878 9.98057 25.361 10.0103 25.4381 10.0215L27.2686 10.2875C27.3573 10.3004 27.4406 10.3378 27.5091 10.3956C27.5776 10.4534 27.6286 10.5291 27.6563 10.6144C27.684 10.6996 27.6873 10.7909 27.6658 10.8779C27.6443 10.9649 27.5989 11.0442 27.5348 11.1067L26.2102 12.3979C26.1544 12.4522 26.1127 12.5193 26.0886 12.5934C26.0646 12.6674 26.0589 12.7462 26.0721 12.823L26.3847 14.6461C26.3999 14.7344 26.39 14.8252 26.3563 14.9082C26.3225 14.9912 26.2662 15.0631 26.1937 15.1158C26.1212 15.1685 26.0354 15.1998 25.946 15.2063C25.8566 15.2128 25.7672 15.1941 25.6879 15.1524L24.0507 14.2916C23.9817 14.2554 23.905 14.2364 23.8271 14.2364C23.7493 14.2364 23.6726 14.2554 23.6036 14.2916L21.9664 15.1524C21.8871 15.1941 21.7976 15.2128 21.7083 15.2063C21.6189 15.1998 21.5331 15.1685 21.4606 15.1158C21.3881 15.0631 21.3318 14.9912 21.298 14.9082C21.2642 14.8252 21.2544 14.7344 21.2695 14.6461L21.5822 12.823C21.5954 12.7462 21.5897 12.6674 21.5656 12.5934C21.5416 12.5193 21.4999 12.4522 21.4441 12.3979L20.1195 11.1067C20.0553 11.0442 20.0099 10.9649 19.9885 10.8779C19.967 10.7909 19.9703 10.6996 19.998 10.6144C20.0257 10.5291 20.0767 10.4534 20.1452 10.3956C20.2137 10.3378 20.297 10.3004 20.3857 10.2875L22.2162 10.0215C22.2933 10.0103 22.3664 9.98057 22.4294 9.93479C22.4924 9.88902 22.5434 9.82861 22.5778 9.75878L23.3964 8.10004C23.4361 8.01967 23.4974 7.95199 23.5736 7.90467C23.6497 7.85735 23.7375 7.83228 23.8271 7.83228C23.9168 7.83228 24.0046 7.85735 24.0807 7.90467C24.1568 7.95199 24.2182 8.01967 24.2579 8.10004V8.10004Z" fill="#FFE966"/>
<path d="M8.3265 11.1067C8.39068 11.0442 8.43607 10.9649 8.45755 10.8779C8.47903 10.7909 8.47574 10.6996 8.44805 10.6144C8.42036 10.5291 8.36937 10.4534 8.30085 10.3956C8.23234 10.3378 8.14902 10.3004 8.06033 10.2875L6.22982 10.0215C6.15276 10.0103 6.07957 9.98057 6.01657 9.93479C5.95357 9.88902 5.90265 9.82861 5.86818 9.75878L5.04959 8.10004C5.00994 8.01967 4.94858 7.95199 4.87246 7.90467C4.79635 7.85735 4.70851 7.83228 4.61888 7.83228C4.52925 7.83228 4.44142 7.85735 4.3653 7.90467C4.28918 7.95199 4.22783 8.01967 4.18817 8.10004L4.05029 8.37948C4.05787 8.39204 4.06589 8.40406 4.0726 8.41766L4.89125 10.0764C4.92572 10.1462 4.97664 10.2066 5.03963 10.2523C5.10262 10.2981 5.17579 10.3278 5.25283 10.339L7.08334 10.6051C7.17202 10.618 7.25532 10.6554 7.32383 10.7132C7.39234 10.771 7.44332 10.8467 7.47101 10.932C7.4987 11.0172 7.502 11.1085 7.48052 11.1955C7.45905 11.2825 7.41367 11.3617 7.34951 11.4243L6.02496 12.7154C5.96921 12.7698 5.9275 12.8369 5.90345 12.9109C5.87939 12.985 5.8737 13.0638 5.88687 13.1405L6.1995 14.9636C6.20204 14.9785 6.20264 14.9929 6.20383 15.0074L6.47964 15.1524C6.55896 15.1941 6.64837 15.2128 6.73776 15.2063C6.82714 15.1998 6.91294 15.1685 6.98544 15.1158C7.05794 15.0631 7.11425 14.9912 7.14802 14.9082C7.18178 14.8252 7.19164 14.7344 7.17649 14.6461L6.8638 12.823C6.85064 12.7462 6.85633 12.6674 6.88039 12.5934C6.90445 12.5193 6.94615 12.4522 7.0019 12.3979L8.3265 11.1067Z" fill="#FFE236"/>
<path d="M9.22257 19.6023C9.2489 19.4985 9.30538 19.4049 9.38487 19.3332C10.1668 18.6256 10.911 17.8773 11.6143 17.0915C12.4833 16.1205 13.2883 15.094 14.0241 14.0186C14.1533 13.8323 14.3388 13.6925 14.5535 13.6196C14.7681 13.5468 15.0005 13.5448 15.2163 13.6139L15.2389 13.621C15.3775 13.6641 15.5058 13.735 15.616 13.8295C15.7261 13.9239 15.8159 14.0399 15.8796 14.1703C15.9434 14.3006 15.9798 14.4427 15.9867 14.5876C15.9936 14.7326 15.9708 14.8774 15.9197 15.0133L14.9812 17.5092C14.9658 17.5501 14.9606 17.5942 14.966 17.6377C14.9713 17.6811 14.9871 17.7226 15.0121 17.7586C15.037 17.7946 15.0702 17.824 15.109 17.8443C15.1478 17.8646 15.1909 17.8752 15.2347 17.8752H19.8446C20.4821 17.8752 21.0251 18.371 21.0478 19.0081C21.0535 19.166 21.0274 19.3234 20.9709 19.471C20.9145 19.6186 20.8289 19.7533 20.7192 19.867C20.6095 19.9808 20.478 20.0712 20.3326 20.133C20.1872 20.1948 20.0308 20.2267 19.8728 20.2267H19.8446C20.4821 20.2267 21.0251 20.7224 21.0478 21.3596C21.0535 21.5175 21.0274 21.6749 20.9709 21.8225C20.9145 21.9701 20.8289 22.1047 20.7192 22.2185C20.6095 22.3322 20.478 22.4227 20.3326 22.4845C20.1872 22.5463 20.0308 22.5781 19.8728 22.5781H19.0608C19.6983 22.5781 20.2413 23.0738 20.2639 23.711C20.2697 23.8689 20.2436 24.0263 20.1871 24.1739C20.1307 24.3214 20.0451 24.4561 19.9354 24.5699C19.8257 24.6836 19.6942 24.7741 19.5488 24.8359C19.4034 24.8977 19.247 24.9295 19.089 24.9295H18.3052C18.617 24.9295 18.9161 25.0534 19.1365 25.2739C19.357 25.4944 19.4809 25.7934 19.4809 26.1052V26.2525C19.4812 26.5404 19.376 26.8184 19.1851 27.034C18.9943 27.2495 18.7311 27.3877 18.4452 27.4222C14.9308 27.8414 11.1824 27.9435 7.79264 26.7735C7.77314 26.7668 7.43955 26.6569 7.4408 26.6521L9.22257 19.6023ZM17.5404 26.7736C17.5209 26.7668 17.1873 26.657 17.1885 26.6521Z" fill="#FFCD85"/>
<path d="M0.359619 18.79H7.76262C7.943 18.79 8.12162 18.8256 8.28827 18.8946C8.45493 18.9636 8.60635 19.0648 8.7339 19.1923C8.86146 19.3199 8.96264 19.4713 9.03167 19.6379C9.1007 19.8046 9.13623 19.9832 9.13623 20.1636V26.2811C9.13623 26.4615 9.1007 26.6401 9.03167 26.8067C8.96264 26.9734 8.86146 27.1248 8.7339 27.2524C8.60635 27.3799 8.45493 27.4811 8.28827 27.5501C8.12162 27.6191 7.943 27.6547 7.76262 27.6546H0.359619" fill="#66C1FF"/>
<path d="M6.62847 26.0299C7.0771 26.0299 7.44078 25.6662 7.44078 25.2176C7.44078 24.769 7.0771 24.4053 6.62847 24.4053C6.17984 24.4053 5.81616 24.769 5.81616 25.2176C5.81616 25.6662 6.17984 26.0299 6.62847 26.0299Z" fill="white"/>
<path d="M11.3233 6.10046C11.3374 6.11416 11.3479 6.13109 11.354 6.14977C11.36 6.16844 11.3615 6.18832 11.3582 6.20768L11.0148 8.20921C10.9854 8.38088 11.0046 8.55735 11.0702 8.71868C11.1358 8.88002 11.2453 9.01977 11.3862 9.12214C11.5271 9.22452 11.6939 9.28542 11.8676 9.29798C12.0413 9.31053 12.2151 9.27423 12.3692 9.19319L14.1666 8.2482C14.184 8.23906 14.2033 8.23428 14.223 8.23428C14.2426 8.23428 14.262 8.23906 14.2793 8.2482L16.0768 9.19319C16.2309 9.27424 16.4047 9.31054 16.5784 9.29798C16.7521 9.28543 16.9189 9.22451 17.0598 9.12213C17.2007 9.01975 17.3102 8.87999 17.3758 8.71865C17.4414 8.55731 17.4606 8.38082 17.4311 8.20916L17.0879 6.20763C17.0846 6.18829 17.086 6.16843 17.0921 6.14977C17.0981 6.13112 17.1086 6.11421 17.1227 6.10051L18.5768 4.68309C18.7015 4.56152 18.7898 4.40748 18.8315 4.23839C18.8733 4.06929 18.8669 3.89189 18.8131 3.72624C18.7592 3.5606 18.6601 3.41331 18.527 3.30104C18.3938 3.18878 18.2319 3.11601 18.0595 3.09096L16.0499 2.79897C16.0305 2.79613 16.012 2.78861 15.9962 2.77706C15.9803 2.7655 15.9674 2.75025 15.9588 2.73263L15.06 0.911704C14.9829 0.755513 14.8637 0.624003 14.7158 0.532047C14.5679 0.440091 14.3972 0.391357 14.223 0.391357C14.0488 0.391357 13.8781 0.440091 13.7302 0.532047C13.5823 0.624003 13.463 0.755513 13.386 0.911704L12.4872 2.73268C12.4785 2.75029 12.4657 2.76552 12.4498 2.77707C12.4339 2.78861 12.4155 2.79613 12.3961 2.79897L10.3865 3.09096C10.2142 3.116 10.0522 3.18876 9.91908 3.30103C9.78591 3.41329 9.68681 3.56057 9.63299 3.72622C9.57916 3.89187 9.57276 4.06928 9.6145 4.23838C9.65625 4.40747 9.74447 4.56152 9.8692 4.68309L11.3233 6.10046ZM10.4055 3.97719C10.4118 3.95531 10.4245 3.93579 10.4419 3.92111C10.4593 3.90644 10.4807 3.89727 10.5033 3.89477L12.5129 3.60277C12.6627 3.58103 12.8049 3.52319 12.9273 3.43424C13.0498 3.34528 13.1487 3.22788 13.2157 3.09216L14.1144 1.27118C14.1244 1.2509 14.1398 1.23383 14.159 1.2219C14.1782 1.20996 14.2004 1.20363 14.223 1.20363C14.2456 1.20363 14.2677 1.20996 14.2869 1.2219C14.3061 1.23383 14.3216 1.2509 14.3316 1.27118L15.2303 3.09216C15.2972 3.22789 15.3962 3.34531 15.5187 3.43427C15.6411 3.52324 15.7834 3.58109 15.9331 3.60283L17.9427 3.89482C17.9651 3.89807 17.9861 3.90751 18.0034 3.92207C18.0207 3.93664 18.0335 3.95576 18.0405 3.97726C18.0475 3.99876 18.0483 4.02178 18.0429 4.04372C18.0375 4.06567 18.026 4.08565 18.0098 4.10142L16.5557 5.5189C16.4473 5.62452 16.3662 5.75492 16.3195 5.89885C16.2727 6.04277 16.2617 6.19592 16.2872 6.34507L16.6305 8.34649C16.6343 8.36876 16.6319 8.39166 16.6233 8.41259C16.6148 8.43352 16.6006 8.45165 16.5823 8.46493C16.5641 8.47822 16.5424 8.48612 16.5199 8.48776C16.4974 8.48939 16.4748 8.48469 16.4548 8.47418L14.6574 7.5292C14.5234 7.45877 14.3744 7.42198 14.223 7.42198C14.0717 7.42198 13.9226 7.45877 13.7886 7.5292L11.9912 8.47418C11.9712 8.48471 11.9487 8.48942 11.9261 8.4878C11.9036 8.48618 11.882 8.47828 11.8637 8.465C11.8454 8.45172 11.8312 8.43358 11.8227 8.41265C11.8142 8.39172 11.8117 8.36882 11.8155 8.34654L12.1588 6.34512C12.1844 6.19596 12.1733 6.04281 12.1265 5.89887C12.0798 5.75494 11.9987 5.62453 11.8903 5.5189L10.4362 4.10142C10.4193 4.0861 10.4074 4.06611 10.402 4.044C10.3965 4.02189 10.3978 3.99865 10.4055 3.97725V3.97719ZM27.8182 11.3974C27.9366 11.2819 28.0203 11.1357 28.06 10.9751C28.0996 10.8145 28.0935 10.646 28.0424 10.4888C27.9913 10.3315 27.8972 10.1916 27.7708 10.085C27.6443 9.97836 27.4906 9.90924 27.3269 9.88543L25.4964 9.61943C25.4845 9.61771 25.4732 9.61311 25.4635 9.60605C25.4538 9.59898 25.4459 9.58965 25.4406 9.57887L24.622 7.92014C24.5487 7.77183 24.4355 7.64697 24.295 7.55966C24.1546 7.47236 23.9925 7.42609 23.8271 7.42609C23.6617 7.42609 23.4996 7.47236 23.3591 7.55966C23.2186 7.64697 23.1054 7.77183 23.0322 7.92014L22.2135 9.57887C22.2082 9.58965 22.2004 9.59898 22.1906 9.60606C22.1809 9.61313 22.1696 9.61774 22.1577 9.61948L20.3272 9.88543C20.1636 9.90922 20.0098 9.97833 19.8833 10.0849C19.7569 10.1916 19.6628 10.3314 19.6117 10.4887C19.5606 10.646 19.5545 10.8145 19.5941 10.9751C19.6337 11.1357 19.7175 11.282 19.836 11.3974L21.1605 12.6885C21.1691 12.6969 21.1755 12.7073 21.1793 12.7187C21.183 12.7302 21.1838 12.7423 21.1818 12.7542L20.8691 14.5773C20.8412 14.7403 20.8594 14.9079 20.9217 15.0611C20.984 15.2143 21.088 15.347 21.2218 15.4442C21.3556 15.5415 21.5139 15.5993 21.6789 15.6112C21.8439 15.6232 22.0089 15.5887 22.1553 15.5118L23.7925 14.651C23.8032 14.6454 23.815 14.6425 23.827 14.6425C23.8391 14.6425 23.8509 14.6454 23.8615 14.651L25.4988 15.5118C25.6452 15.5887 25.8102 15.6231 25.9752 15.6112C26.1402 15.5993 26.2985 15.5414 26.4323 15.4442C26.5661 15.347 26.67 15.2143 26.7324 15.0611C26.7947 14.9079 26.8129 14.7403 26.785 14.5773L26.4723 12.7541C26.4703 12.7423 26.4712 12.7301 26.4749 12.7187C26.4786 12.7073 26.485 12.697 26.4936 12.6886L27.8182 11.3974ZM25.9266 12.1069C25.8237 12.2072 25.7467 12.331 25.7023 12.4677C25.6579 12.6044 25.6474 12.7499 25.6717 12.8915L25.9844 14.7146C25.9867 14.7282 25.9852 14.7423 25.98 14.7551C25.9748 14.7679 25.9661 14.779 25.9549 14.7871C25.9437 14.7952 25.9304 14.8001 25.9167 14.8011C25.9029 14.8021 25.8891 14.7992 25.8768 14.7928L24.2395 13.932C24.1123 13.8651 23.9708 13.8301 23.827 13.8301C23.6833 13.8301 23.5418 13.8651 23.4145 13.932L21.7773 14.7928C21.7651 14.7992 21.7513 14.8021 21.7375 14.8011C21.7237 14.8001 21.7104 14.7952 21.6993 14.7871C21.6881 14.779 21.6794 14.7679 21.6742 14.7551C21.669 14.7423 21.6674 14.7282 21.6698 14.7146L21.9824 12.8915C22.0068 12.7499 21.9963 12.6044 21.9519 12.4677C21.9074 12.331 21.8304 12.2071 21.7275 12.1068L20.4029 10.8158C20.393 10.8061 20.386 10.7939 20.3827 10.7805C20.3794 10.767 20.3799 10.7529 20.3842 10.7398C20.3885 10.7266 20.3964 10.7149 20.4069 10.706C20.4175 10.6971 20.4304 10.6913 20.444 10.6893L22.2746 10.4233C22.4168 10.4026 22.5518 10.3477 22.6681 10.2632C22.7844 10.1787 22.8783 10.0673 22.9419 9.9384L23.7606 8.27966C23.7667 8.26726 23.7762 8.25682 23.7879 8.24952C23.7997 8.24222 23.8132 8.23835 23.8271 8.23835C23.8409 8.23835 23.8545 8.24222 23.8662 8.24952C23.8779 8.25682 23.8874 8.26726 23.8935 8.27966L24.7121 9.9384C24.7757 10.0673 24.8697 10.1788 24.986 10.2632C25.1023 10.3477 25.2373 10.4026 25.3796 10.4233L27.2101 10.6893C27.2238 10.6913 27.2366 10.6971 27.2472 10.706C27.2578 10.7149 27.2657 10.7266 27.2699 10.7397C27.2742 10.7529 27.2747 10.767 27.2714 10.7804C27.2681 10.7939 27.2611 10.8061 27.2512 10.8157L25.9266 12.1069ZM1.95239 12.6885C1.96101 12.6969 1.96746 12.7073 1.97118 12.7187C1.9749 12.7302 1.97577 12.7423 1.97373 12.7542L1.6611 14.5773C1.63316 14.7403 1.65139 14.9079 1.71371 15.0611C1.77603 15.2143 1.87997 15.347 2.01378 15.4442C2.14758 15.5414 2.30591 15.5993 2.47087 15.6112C2.63584 15.6231 2.80085 15.5887 2.94725 15.5118L4.58449 14.651C4.59512 14.6454 4.60696 14.6425 4.61898 14.6425C4.631 14.6425 4.64284 14.6454 4.65348 14.651L6.29077 15.5118C6.43718 15.5887 6.60219 15.6231 6.76715 15.6112C6.93211 15.5993 7.09044 15.5414 7.22425 15.4442C7.35805 15.347 7.46199 15.2143 7.52431 15.0611C7.58664 14.9079 7.60486 14.7403 7.57692 14.5773L7.26424 12.7541C7.26221 12.7423 7.26309 12.7302 7.2668 12.7187C7.27051 12.7073 7.27693 12.697 7.28552 12.6886L8.61012 11.3974C8.72854 11.2819 8.81229 11.1357 8.85192 10.9751C8.89154 10.8145 8.88545 10.646 8.83434 10.4888C8.78323 10.3315 8.68914 10.1916 8.5627 10.085C8.43626 9.97836 8.28251 9.90924 8.11884 9.88543L6.28839 9.61943C6.27649 9.6177 6.26519 9.6131 6.25547 9.60604C6.24574 9.59897 6.23788 9.58965 6.23255 9.57887L5.41391 7.92014C5.34122 7.77141 5.2281 7.64618 5.08752 7.55879C4.94693 7.4714 4.78457 7.42539 4.61904 7.42604C4.45349 7.42539 4.29111 7.4714 4.15051 7.55879C4.00991 7.64618 3.89677 7.77141 3.82406 7.92014L3.00547 9.57887C3.00016 9.58965 2.99231 9.59898 2.98259 9.60606C2.97287 9.61313 2.96158 9.61774 2.94969 9.61948L1.11918 9.88538C0.955489 9.90916 0.801716 9.97827 0.675252 10.0849C0.548787 10.1915 0.454677 10.3314 0.403563 10.4887C0.352448 10.646 0.34637 10.8145 0.386014 10.9751C0.425659 11.1357 0.509445 11.282 0.627897 11.3974L1.95239 12.6885ZM1.1761 10.7397C1.17974 10.7262 1.18743 10.7141 1.19814 10.7051C1.20885 10.6961 1.22206 10.6906 1.23599 10.6893L3.06645 10.4233C3.20868 10.4026 3.34375 10.3477 3.46003 10.2632C3.57631 10.1788 3.67029 10.0673 3.73389 9.9384L4.55254 8.27966C4.55866 8.26726 4.56813 8.25682 4.57988 8.24952C4.59163 8.24222 4.60518 8.23835 4.61901 8.23835C4.63284 8.23835 4.6464 8.24222 4.65814 8.24952C4.66989 8.25682 4.67936 8.26726 4.68548 8.27966L5.50407 9.9384C5.56768 10.0673 5.66167 10.1788 5.77794 10.2632C5.89422 10.3477 6.02929 10.4026 6.17152 10.4233L8.00203 10.6893C8.01571 10.6913 8.02857 10.6971 8.03914 10.706C8.04971 10.7149 8.05758 10.7266 8.06186 10.7397C8.06614 10.7529 8.06666 10.767 8.06336 10.7804C8.06006 10.7938 8.05307 10.8061 8.04319 10.8157L6.71858 12.1069C6.61565 12.2072 6.53866 12.331 6.49424 12.4677C6.44982 12.6044 6.43932 12.7499 6.46363 12.8915L6.77631 14.7146C6.77865 14.7282 6.77712 14.7423 6.77191 14.7551C6.7667 14.7679 6.758 14.779 6.74682 14.7871C6.73563 14.7952 6.72239 14.8001 6.7086 14.8011C6.6948 14.8021 6.68101 14.7992 6.66876 14.7928L5.03147 13.932C4.90427 13.8651 4.7627 13.8301 4.61898 13.8301C4.47527 13.8301 4.3337 13.8651 4.20649 13.932L2.56931 14.7928C2.55707 14.7992 2.54326 14.8021 2.52946 14.8011C2.51566 14.8001 2.50241 14.7953 2.49121 14.7871C2.48002 14.779 2.47132 14.7679 2.46611 14.7551C2.46089 14.7423 2.45937 14.7282 2.46171 14.7146L2.77439 12.8915C2.79872 12.7499 2.78822 12.6044 2.7438 12.4677C2.69939 12.331 2.62238 12.2071 2.51944 12.1068L1.19489 10.8158C1.18437 10.8065 1.17694 10.7943 1.17359 10.7807C1.17024 10.7671 1.17113 10.7528 1.17615 10.7397H1.1761ZM7.84693 25.2178C7.84693 24.9768 7.77547 24.7412 7.64159 24.5408C7.5077 24.3404 7.3174 24.1843 7.09476 24.092C6.87211 23.9998 6.62712 23.9757 6.39076 24.0227C6.1544 24.0697 5.93729 24.1858 5.76689 24.3562C5.59648 24.5266 5.48044 24.7437 5.43342 24.98C5.38641 25.2164 5.41054 25.4614 5.50276 25.684C5.59498 25.9067 5.75116 26.097 5.95153 26.2309C6.15191 26.3648 6.38748 26.4362 6.62847 26.4362C6.95152 26.4359 7.26123 26.3074 7.48966 26.0789C7.71809 25.8505 7.84658 25.5408 7.84693 25.2178V25.2178ZM6.22232 25.2178C6.22232 25.1374 6.24614 25.0589 6.29077 24.9921C6.3354 24.9253 6.39883 24.8733 6.47304 24.8425C6.54726 24.8118 6.62892 24.8037 6.70771 24.8194C6.78649 24.8351 6.85886 24.8738 6.91567 24.9306C6.97247 24.9874 7.01115 25.0597 7.02682 25.1385C7.04249 25.2173 7.03445 25.299 7.00371 25.3732C6.97297 25.4474 6.92091 25.5108 6.85412 25.5555C6.78733 25.6001 6.7088 25.6239 6.62847 25.6239C6.52079 25.6238 6.41755 25.581 6.3414 25.5048C6.26526 25.4287 6.22243 25.3254 6.22232 25.2178ZM21.4534 18.9937C21.4241 18.1528 20.7025 17.4688 19.8448 17.4688H15.4302L16.2999 15.1558C16.3704 14.9681 16.4018 14.768 16.3923 14.5678C16.3827 14.3676 16.3323 14.1714 16.2442 13.9913C16.1561 13.8112 16.0321 13.651 15.8799 13.5206C15.7277 13.3901 15.5504 13.2921 15.359 13.2326L15.3368 13.2258C15.0381 13.1299 14.7165 13.1329 14.4196 13.2344C14.1228 13.3359 13.8667 13.5305 13.6892 13.7892C12.9629 14.8497 12.1687 15.8622 11.3119 16.8204C10.6216 17.5911 9.89161 18.3254 9.12497 19.0202C8.95823 18.821 8.74982 18.6607 8.51445 18.5508C8.27907 18.4409 8.02245 18.3839 7.76267 18.384H0.765773C0.658054 18.384 0.554748 18.4268 0.478579 18.5029C0.40241 18.5791 0.359619 18.6824 0.359619 18.7901C0.359619 18.8978 0.40241 19.0011 0.478579 19.0773C0.554748 19.1535 0.658054 19.1963 0.765773 19.1963H7.76262C8.0191 19.1966 8.265 19.2986 8.44636 19.4799C8.62772 19.6613 8.72973 19.9072 8.73002 20.1637V26.2811C8.72973 26.5376 8.62772 26.7835 8.44636 26.9649C8.265 27.1462 8.0191 27.2482 7.76262 27.2485H0.765773C0.658054 27.2485 0.554748 27.2913 0.478579 27.3675C0.40241 27.4437 0.359619 27.547 0.359619 27.6547C0.359619 27.7624 0.40241 27.8657 0.478579 27.9419C0.554748 28.018 0.658054 28.0608 0.765773 28.0608H7.76262C8.22684 28.0611 8.67265 27.8793 9.00431 27.5544C10.1101 27.8313 11.6828 28.1147 14.0229 28.1147C15.5176 28.1067 17.0105 28.0101 18.4938 27.8255C18.8781 27.7789 19.232 27.5931 19.4887 27.3033C19.7454 27.0134 19.8871 26.6397 19.887 26.2525V26.1052C19.8872 25.7984 19.7977 25.4982 19.6294 25.2416C19.9437 25.1268 20.2136 24.9156 20.4005 24.6381C20.5874 24.3605 20.6816 24.031 20.6698 23.6966C20.66 23.4093 20.571 23.1303 20.4125 22.8904C20.6699 22.7986 20.8988 22.6412 21.0767 22.4338C21.2545 22.2264 21.3752 21.9762 21.4267 21.7079C21.4782 21.4395 21.4587 21.1624 21.3703 20.9039C21.2818 20.6454 21.1274 20.4144 20.9223 20.2339C20.9528 20.2069 20.9823 20.1788 21.0107 20.1496C21.159 19.997 21.2746 19.8158 21.3507 19.6171C21.4268 19.4184 21.4617 19.2063 21.4534 18.9937H21.4534ZM17.9131 20.633H19.8447C20.2698 20.633 20.6274 20.9652 20.6416 21.3737C20.6455 21.4771 20.6285 21.5802 20.5916 21.6769C20.5547 21.7735 20.4987 21.8618 20.427 21.9363C20.3552 22.0108 20.2692 22.0701 20.1739 22.1106C20.0787 22.1512 19.9763 22.1721 19.8729 22.1721H17.9131C17.8053 22.1721 17.702 22.2149 17.6259 22.291C17.5497 22.3672 17.5069 22.4705 17.5069 22.5782C17.5069 22.686 17.5497 22.7893 17.6259 22.8654C17.702 22.9416 17.8053 22.9844 17.9131 22.9844H19.0606C19.4857 22.9844 19.8434 23.3169 19.858 23.7256C19.8618 23.829 19.8447 23.9321 19.8078 24.0287C19.7709 24.1254 19.7148 24.2136 19.643 24.2881C19.5712 24.3626 19.4851 24.4218 19.3898 24.4622C19.2946 24.5027 19.1922 24.5235 19.0887 24.5234H17.9131C17.8053 24.5234 17.702 24.5662 17.6259 24.6424C17.5497 24.7186 17.5069 24.8219 17.5069 24.9296C17.5069 25.0373 17.5497 25.1406 17.6259 25.2168C17.702 25.293 17.8053 25.3358 17.9131 25.3358H18.3051C18.5092 25.336 18.7047 25.4171 18.849 25.5614C18.9933 25.7057 19.0744 25.9013 19.0747 26.1053V26.2526C19.0749 26.441 19.0061 26.623 18.8813 26.7642C18.7565 26.9054 18.5843 26.996 18.3973 27.019C16.0748 27.2959 12.6725 27.5659 9.4566 26.8262C9.51345 26.6501 9.54238 26.4662 9.54233 26.2811V20.1637C9.54233 20.115 9.53984 20.067 9.53599 20.0193L9.61598 19.7029C9.62268 19.6763 9.6371 19.6523 9.65741 19.6339C10.4498 18.9167 11.204 18.1584 11.9171 17.3622C12.7975 16.3777 13.6134 15.3374 14.3596 14.2478C14.4396 14.133 14.5544 14.047 14.6871 14.0026C14.8198 13.9583 14.9632 13.9579 15.0961 14.0016L15.1183 14.0084C15.204 14.0351 15.2834 14.0791 15.3515 14.1375C15.4197 14.196 15.4752 14.2677 15.5146 14.3484C15.554 14.4291 15.5766 14.5169 15.5809 14.6066C15.5852 14.6963 15.5711 14.7859 15.5395 14.87L14.601 17.3659C14.5625 17.4683 14.5494 17.5785 14.5628 17.6871C14.5763 17.7957 14.6158 17.8994 14.6781 17.9894C14.7404 18.0794 14.8236 18.1529 14.9205 18.2037C15.0174 18.2545 15.1252 18.281 15.2346 18.2811H19.8447C20.2698 18.2811 20.6273 18.6135 20.6416 19.0223C20.6454 19.1257 20.6284 19.2288 20.5915 19.3254C20.5546 19.4221 20.4986 19.5103 20.4269 19.5848C20.3551 19.6594 20.2691 19.7186 20.1739 19.7592C20.0787 19.7997 19.9763 19.8206 19.8729 19.8207H17.9131C17.8053 19.8207 17.702 19.8635 17.6259 19.9396C17.5497 20.0158 17.5069 20.1191 17.5069 20.2268C17.5069 20.3345 17.5497 20.4378 17.6259 20.514C17.702 20.5902 17.8053 20.633 17.9131 20.633V20.633Z" fill="#272A33"/>
</g>
<defs>
<clipPath id="clip0_30_1062">
<rect width="27.7268" height="27.7268" fill="white" transform="translate(0.359619 0.391357)"/>
</clipPath>
</defs>
</svg>
