<svg width="17" height="16" viewBox="0 0 17 16" fill="none" xmlns="http://www.w3.org/2000/svg">
<path d="M1.69141 14.0732H2.21153C2.44853 14.0732 2.62066 14.107 2.72766 14.1745C2.83478 14.242 2.88828 14.3492 2.88828 14.4964C2.88828 14.5963 2.86478 14.6781 2.81791 14.7421C2.77103 14.8061 2.70866 14.8446 2.63091 14.8576V14.869C2.73691 14.8926 2.81328 14.9369 2.86016 15.0016C2.90703 15.0664 2.93053 15.1525 2.93053 15.26C2.93053 15.4125 2.87553 15.5314 2.76528 15.6167C2.65516 15.7021 2.50553 15.7448 2.31653 15.7448H1.69141V14.0732ZM2.04578 14.7353H2.25153C2.34753 14.7353 2.41716 14.7204 2.46016 14.6908C2.50328 14.661 2.52478 14.6119 2.52478 14.5433C2.52478 14.4792 2.50141 14.4334 2.45453 14.4055C2.40766 14.3776 2.33353 14.3638 2.23216 14.3638H2.04578V14.7353ZM2.04578 15.0165V15.4521H2.27678C2.37428 15.4521 2.44628 15.4335 2.49291 15.3961C2.53953 15.3587 2.56266 15.3016 2.56266 15.2246C2.56266 15.086 2.46353 15.0165 2.26541 15.0165H2.04578ZM4.78153 14.9067C4.78153 15.1834 4.71291 15.3961 4.57578 15.5448C4.43866 15.6934 4.24203 15.7677 3.98591 15.7677C3.72978 15.7677 3.53316 15.6934 3.39603 15.5448C3.25878 15.3961 3.19028 15.1827 3.19028 14.9045C3.19028 14.6263 3.25903 14.4139 3.39666 14.2671C3.53428 14.1204 3.73141 14.047 3.98828 14.047C4.24516 14.047 4.44153 14.121 4.57766 14.2688C4.71353 14.4166 4.78153 14.6294 4.78153 14.9067ZM3.56178 14.9067C3.56178 15.0935 3.59716 15.2341 3.66816 15.3286C3.73903 15.4231 3.84491 15.4704 3.98591 15.4704C4.26866 15.4704 4.41003 15.2825 4.41003 14.9067C4.41003 14.5302 4.26941 14.342 3.98816 14.342C3.84716 14.342 3.74078 14.3894 3.66916 14.4844C3.59753 14.5794 3.56178 14.72 3.56178 14.9067ZM6.64516 14.9067C6.64516 15.1834 6.57653 15.3961 6.43941 15.5448C6.30228 15.6934 6.10566 15.7677 5.84953 15.7677C5.59341 15.7677 5.39678 15.6934 5.25966 15.5448C5.12241 15.3961 5.05391 15.1827 5.05391 14.9045C5.05391 14.6263 5.12266 14.4139 5.26028 14.2671C5.39791 14.1204 5.59503 14.047 5.85191 14.047C6.10878 14.047 6.30516 14.121 6.44128 14.2688C6.57703 14.4166 6.64516 14.6294 6.64516 14.9067ZM5.42528 14.9067C5.42528 15.0935 5.46066 15.2341 5.53166 15.3286C5.60253 15.4231 5.70841 15.4704 5.84941 15.4704C6.13216 15.4704 6.27353 15.2825 6.27353 14.9067C6.27353 14.5302 6.13291 14.342 5.85166 14.342C5.71066 14.342 5.60428 14.3894 5.53266 14.4844C5.46103 14.5794 5.42528 14.72 5.42528 14.9067ZM7.63628 15.7448H7.28191V14.3682H6.82803V14.0732H8.09016V14.3682H7.63628V15.7448ZM9.33391 15.2806C9.33391 15.4316 9.27966 15.5505 9.17103 15.6374C9.06241 15.7242 8.91128 15.7677 8.71778 15.7677C8.53941 15.7677 8.38166 15.7341 8.24453 15.6671V15.3379C8.35728 15.3881 8.45278 15.4236 8.53091 15.4443C8.60903 15.4649 8.68041 15.4751 8.74528 15.4751C8.82303 15.4751 8.88266 15.4602 8.92416 15.4306C8.96578 15.4009 8.98653 15.3568 8.98653 15.298C8.98653 15.2653 8.97741 15.2361 8.95916 15.2105C8.94091 15.185 8.91403 15.1604 8.87853 15.1368C8.84303 15.1131 8.77091 15.0754 8.66191 15.0236C8.55978 14.9756 8.48316 14.9295 8.43216 14.8853C8.38103 14.841 8.34028 14.7896 8.30978 14.731C8.27928 14.6722 8.26403 14.6036 8.26403 14.5253C8.26403 14.3774 8.31416 14.2611 8.41441 14.1765C8.51466 14.0919 8.65316 14.0496 8.83003 14.0496C8.91691 14.0496 8.99978 14.0599 9.07866 14.0805C9.15753 14.1011 9.24003 14.13 9.32616 14.1674L9.21178 14.4429C9.12266 14.4064 9.04891 14.3807 8.99053 14.3663C8.93216 14.3518 8.87491 14.3445 8.81853 14.3445C8.75141 14.3445 8.70003 14.3601 8.66416 14.3914C8.62828 14.4226 8.61041 14.4634 8.61041 14.5138C8.61041 14.545 8.61766 14.5723 8.63216 14.5955C8.64666 14.6187 8.66966 14.6412 8.70128 14.663C8.73291 14.6848 8.80778 14.7237 8.92591 14.7802C9.08216 14.855 9.18928 14.9299 9.24716 15.0049C9.30503 15.0799 9.33391 15.1716 9.33391 15.2806ZM10.2818 15.7448H9.92741V14.3682H9.47353V14.0732H10.7357V14.3682H10.2818V15.7448ZM11.3473 15.1034V15.7448H10.9929V14.0732H11.4799C11.707 14.0732 11.875 14.1146 11.984 14.1973C12.093 14.28 12.1475 14.4056 12.1475 14.574C12.1475 14.6724 12.1205 14.7598 12.0664 14.8364C12.0123 14.913 11.9357 14.973 11.8367 15.0164C12.0882 15.3921 12.252 15.6349 12.3283 15.7446H11.935L11.536 15.1032H11.3473V15.1034ZM11.3473 14.8153H11.4617C11.5737 14.8153 11.6564 14.7966 11.7098 14.7592C11.7632 14.7219 11.7898 14.6631 11.7898 14.5831C11.7898 14.5039 11.7625 14.4475 11.708 14.4139C11.6535 14.3804 11.5692 14.3636 11.4548 14.3636H11.3473V14.8153ZM13.5618 15.7448L13.4405 15.3469H12.8312L12.7099 15.7448H12.328L12.9179 14.0665H13.3512L13.9434 15.7448H13.5618ZM13.3559 15.0496C13.2439 14.6891 13.1808 14.4852 13.1667 14.438C13.1525 14.3907 13.1425 14.3534 13.1364 14.326C13.1113 14.4235 13.0393 14.6648 12.9203 15.0496H13.3559ZM15.3087 14.5946C15.3087 14.7745 15.2524 14.9121 15.14 15.0072C15.0277 15.1026 14.8678 15.1503 14.6604 15.1503H14.5084V15.7448H14.154V14.0732H14.6879C14.8907 14.0732 15.0448 14.1169 15.1504 14.2041C15.2559 14.2915 15.3087 14.4216 15.3087 14.5946ZM14.5084 14.8599H14.625C14.734 14.8599 14.8155 14.8384 14.8697 14.7952C14.9238 14.7521 14.9508 14.6895 14.9508 14.6073C14.9508 14.5241 14.928 14.4628 14.8828 14.4231C14.8374 14.3835 14.7663 14.3636 14.6695 14.3636H14.5083V14.8599H14.5084ZM9.74391 7.09487C9.49603 7.01325 9.13916 7 8.67328 7H7.00003V9.5H8.80303C9.11578 9.5 9.33541 9.46888 9.46191 9.44538C9.68478 9.40563 9.87116 9.32913 10.0209 9.23588C10.1707 9.14287 10.2938 9.00225 10.3903 8.82425C10.4867 8.64625 10.535 8.43837 10.535 8.20537C10.535 7.93237 10.4652 7.70788 10.3254 7.50663C10.1858 7.30525 9.99191 7.17637 9.74391 7.09487ZM9.48691 6.01837C9.73316 5.94513 9.91878 5.81262 10.0434 5.643C10.1683 5.47338 10.2307 5.25513 10.2307 4.99875C10.2307 4.75588 10.1724 4.53937 10.0559 4.3545C9.93941 4.16975 9.77303 4.04437 9.55691 3.97613C9.34041 3.90812 8.96941 3.875 8.44366 3.875H7.00003V6.125H8.56341C8.99278 6.125 9.30053 6.07512 9.48691 6.01837ZM15.125 2.01575C15.125 1.0405 14.3344 0.25 13.3592 0.25H3.64091C2.66566 0.25 1.87503 1.0405 1.87503 2.01575V11.7343C1.87503 12.7095 2.66566 13.5 3.64091 13.5H13.3592C14.3344 13.5 15.125 12.7095 15.125 11.7343V2.01575ZM11.3213 9.15875C11.1767 9.45325 10.9977 9.68038 10.7848 9.84013C10.5718 9.99975 10.3047 10.1459 9.98353 10.2274C9.66241 10.309 9.26891 10.375 8.80303 10.375H6.00003V3H8.75816C9.31728 3 9.76553 3.0775 10.1033 3.2255C10.4412 3.37363 10.7055 3.60313 10.8972 3.91088C11.0884 4.21875 11.1842 4.54163 11.1842 4.87775C11.1842 5.1905 11.0992 5.48537 10.9297 5.76162C10.7599 6.03787 10.5037 6.261 10.1609 6.43062C10.6034 6.56037 10.9438 6.782 11.1817 7.09475C11.4195 7.40762 11.5385 7.777 11.5385 8.203C11.5384 8.54575 11.4662 8.86437 11.3213 9.15875Z" fill="#5B4282"/>
</svg>
