<svg width="16" height="16" viewBox="0 0 16 16" fill="none" xmlns="http://www.w3.org/2000/svg">
<g clip-path="url(#clip0_119_76)">
<path d="M12.0625 0.78125H4.1875V15.1562H15.0312V3.76887L12.0625 0.78125Z" fill="#C8C6C6"/>
<path d="M12.0938 0.78125V3.75H15.0312L12.0938 0.78125Z" fill="#E6E6E6"/>
<path d="M5.74416 10.3628L8.46947 8.49146V9.30371L6.47091 10.6097V10.6256L8.46947 11.9236V12.7279L5.74416 10.8565V10.3628V10.3628Z" fill="#7F7F7F"/>
<path d="M8.7875 13.0464L10.1161 7.297H10.6044L9.27012 13.0464H8.7875Z" fill="#7F7F7F"/>
<path d="M13.6703 10.9601L10.9451 12.7279V11.9395L13.1253 10.6176V10.6017L10.9451 9.2798V8.49142L13.6703 10.2592V10.9601V10.9601Z" fill="#7F7F7F"/>
<path d="M0.9375 1.5H11.125V4.875H0.9375V1.5Z" fill="#2E372E"/>
<path d="M5.32613 4.17286C5.24781 4.21751 5.07163 4.26539 4.84231 4.26539C4.19069 4.26539 3.85509 3.8027 3.85509 3.19001C3.85509 2.45608 4.31375 2.04764 4.88425 2.04764C5.10519 2.04764 5.27297 2.0987 5.3485 2.14336L5.26181 2.52945C5.17513 2.48798 5.05488 2.44967 4.90385 2.44967C4.56544 2.44967 4.30256 2.68261 4.30256 3.16126C4.30256 3.59204 4.52628 3.86326 4.90666 3.86326C5.03531 3.86326 5.17794 3.83136 5.26181 3.79308L5.32613 4.17286V4.17286Z" fill="#84E403"/>
<path d="M5.56394 3.73248C5.67859 3.79951 5.85478 3.86651 6.03659 3.86651C6.23234 3.86651 6.33584 3.77398 6.33584 3.63358C6.33584 3.49954 6.24634 3.42295 6.01981 3.33042C5.70659 3.20598 5.50244 3.00814 5.50244 2.69542C5.50244 2.32845 5.7709 2.04764 6.21559 2.04764C6.42812 2.04764 6.58475 2.0987 6.69662 2.15614L6.60153 2.54864C6.52603 2.50714 6.39178 2.44651 6.20722 2.44651C6.02262 2.44651 5.93312 2.54223 5.93312 2.65392C5.93312 2.79114 6.0394 2.85176 6.28272 2.95708C6.61553 3.09748 6.77212 3.29533 6.77212 3.59845C6.77212 3.95904 6.52881 4.26536 6.01144 4.26536C5.79609 4.26536 5.58356 4.20154 5.47728 4.13451L5.56394 3.73248V3.73248Z" fill="#84E403"/>
<path d="M7.01828 3.73248C7.13294 3.79951 7.30913 3.86651 7.49091 3.86651C7.68669 3.86651 7.79016 3.77398 7.79016 3.63358C7.79016 3.49954 7.70066 3.42295 7.47413 3.33042C7.16091 3.20598 6.95675 3.00814 6.95675 2.69542C6.95675 2.32845 7.22522 2.04764 7.66988 2.04764C7.88244 2.04764 8.03903 2.0987 8.15091 2.15614L8.05581 2.54864C7.98031 2.50714 7.84606 2.44651 7.6615 2.44651C7.47691 2.44651 7.38741 2.54223 7.38741 2.65392C7.38741 2.79114 7.49369 2.85176 7.737 2.95708C8.06978 3.09748 8.22641 3.29533 8.22641 3.59845C8.22641 3.95904 7.9831 4.26536 7.46572 4.26536C7.25038 4.26536 7.03785 4.20154 6.93156 4.13451L7.01828 3.73248V3.73248Z" fill="#84E403"/>
</g>
<defs>
<clipPath id="clip0_119_76">
<rect width="16" height="16" fill="white"/>
</clipPath>
</defs>
</svg>
