<svg width="17" height="16" viewBox="0 0 17 16" fill="none" xmlns="http://www.w3.org/2000/svg">
<g clip-path="url(#clip0_30_1064)">
<path d="M16.3125 10.4751C16.3125 10.9501 15.925 11.3376 15.45 11.3376H1.55C1.075 11.3376 0.6875 10.9501 0.6875 10.4751V5.5251C0.6875 5.0501 1.075 4.6626 1.55 4.6626H15.45C15.925 4.6626 16.3125 5.0501 16.3125 5.5251V10.4751Z" fill="#003A2B"/>
<path d="M3.37498 5.69995H4.12498V9.12495C3.74998 9.19995 3.46248 9.22495 3.16248 9.22495C2.26248 9.22495 1.78748 8.81245 1.78748 8.03745C1.78748 7.28745 2.28748 6.78745 3.06248 6.78745C3.18748 6.78745 3.27498 6.79995 3.38748 6.82495V5.69995H3.37498ZM3.37498 7.42495C3.28748 7.39995 3.21248 7.38745 3.12498 7.38745C2.74998 7.38745 2.53748 7.61245 2.53748 8.02495C2.53748 8.42495 2.74998 8.63745 3.12498 8.63745C3.21248 8.63745 3.27498 8.63745 3.37498 8.61245V7.42495ZM5.29998 6.84995V8.56245C5.29998 9.14995 5.26248 9.43745 5.12498 9.68745C4.99998 9.92495 4.84998 10.075 4.52498 10.2375L3.83748 9.91245C4.16248 9.76245 4.32498 9.62495 4.42498 9.41245C4.52498 9.19995 4.56248 8.94995 4.56248 8.31245V6.84995H5.29998ZM4.56248 5.71245H5.29998V6.47495H4.56248V5.71245ZM5.74998 7.01245C6.07498 6.86245 6.38748 6.78745 6.72498 6.78745C7.09998 6.78745 7.34998 6.88745 7.46248 7.08745C7.52498 7.19995 7.54998 7.33745 7.54998 7.64995V9.14995C7.21248 9.19995 6.79998 9.23745 6.48748 9.23745C5.86248 9.23745 5.58748 9.02495 5.58748 8.53745C5.58748 8.01245 5.96248 7.77495 6.86248 7.69995V7.53745C6.86248 7.39995 6.79998 7.34995 6.61248 7.34995C6.33748 7.34995 6.02498 7.42495 5.73748 7.57495V7.01245H5.74998ZM6.89998 8.18745C6.41248 8.23745 6.24998 8.31245 6.24998 8.49995C6.24998 8.64995 6.33748 8.71245 6.53748 8.71245C6.64998 8.71245 6.74998 8.69995 6.88748 8.67495V8.18745H6.89998ZM7.91248 6.96245C8.34998 6.84995 8.71248 6.79995 9.07498 6.79995C9.44998 6.79995 9.72497 6.88745 9.88747 7.04995C10.0375 7.21245 10.0875 7.38745 10.0875 7.74995V9.19995H9.34998V7.77495C9.34998 7.48745 9.24998 7.38745 8.98748 7.38745C8.88748 7.38745 8.79997 7.39995 8.64997 7.43745V9.19995H7.91248V6.96245ZM10.375 9.59995C10.6375 9.73745 10.9 9.79995 11.1625 9.79995C11.65 9.79995 11.85 9.59995 11.85 9.13745V9.12495C11.7 9.19995 11.5625 9.22495 11.375 9.22495C10.725 9.22495 10.3125 8.79995 10.3125 8.12495C10.3125 7.28745 10.925 6.81245 12 6.81245C12.3125 6.81245 12.6125 6.84995 12.9625 6.91245L12.7125 7.44995C12.5125 7.41245 12.7 7.44995 12.55 7.42495V7.49995L12.5625 7.81245V8.21245C12.5625 8.31245 12.5625 8.41245 12.575 8.51245V8.71245C12.575 9.34995 12.525 9.64995 12.3625 9.88745C12.1375 10.25 11.7375 10.425 11.1625 10.425C10.875 10.425 10.625 10.3875 10.3625 10.275V9.59995H10.375ZM11.85 7.39995H11.775C11.625 7.39995 11.4625 7.43745 11.35 7.49995C11.175 7.59995 11.075 7.78745 11.075 8.03745C11.075 8.41245 11.2625 8.62495 11.5875 8.62495C11.6875 8.62495 11.775 8.59995 11.8625 8.57495V7.39995H11.85ZM14.125 6.78745C14.8625 6.78745 15.3125 7.24995 15.3125 8.01245C15.3125 8.78745 14.8375 9.27495 14.0875 9.27495C13.35 9.27495 12.8875 8.81245 12.8875 8.06245C12.9 7.27495 13.375 6.78745 14.125 6.78745ZM14.1125 8.66245C14.4 8.66245 14.5625 8.42495 14.5625 8.01245C14.5625 7.61245 14.4 7.36245 14.1125 7.36245C13.825 7.36245 13.65 7.59995 13.65 8.01245C13.6625 8.43745 13.825 8.66245 14.1125 8.66245Z" fill="white"/>
</g>
<defs>
<clipPath id="clip0_30_1064">
<rect width="16" height="16" fill="white" transform="translate(0.5)"/>
</clipPath>
</defs>
</svg>
