<svg width="16" height="16" viewBox="0 0 16 16" fill="none" xmlns="http://www.w3.org/2000/svg">
<g clip-path="url(#clip0_125_52)">
<path d="M5.33333 16C6.80533 16 8 14.8053 8 13.3333V10.6667H5.33333C3.86133 10.6667 2.66667 11.8613 2.66667 13.3333C2.66667 14.8053 3.86133 16 5.33333 16Z" fill="#0ACF83"/>
<path d="M2.66667 7.99999C2.66667 6.52799 3.86133 5.33333 5.33333 5.33333H8V10.6667H5.33333C3.86133 10.6667 2.66667 9.472 2.66667 7.99999Z" fill="#A259FF"/>
<path d="M2.66667 2.66667C2.66667 1.19467 3.86133 0 5.33333 0H8V5.33333H5.33333C3.86133 5.33333 2.66667 4.13867 2.66667 2.66667Z" fill="#F24E1E"/>
<path d="M8 0H10.6667C12.1387 0 13.3333 1.19467 13.3333 2.66667C13.3333 4.13867 12.1387 5.33333 10.6667 5.33333H8V0Z" fill="#FF7262"/>
<path d="M13.3333 7.99999C13.3333 9.472 12.1387 10.6667 10.6667 10.6667C9.19467 10.6667 8 9.472 8 7.99999C8 6.52799 9.19467 5.33333 10.6667 5.33333C12.1387 5.33333 13.3333 6.52799 13.3333 7.99999Z" fill="#1ABCFE"/>
</g>
<defs>
<clipPath id="clip0_125_52">
<rect width="16" height="16" fill="white"/>
</clipPath>
</defs>
</svg>
