<svg width="17" height="16" viewBox="0 0 17 16" fill="none" xmlns="http://www.w3.org/2000/svg">
<path d="M2.94617 3.37499L3.95704 14.6149L8.49317 15.8251L13.0419 14.6377L14.0539 3.37499H2.94617ZM11.9513 5.93387L11.8879 6.66312L11.86 6.99999H6.53892L6.66604 8.49999H11.7335L11.6997 8.77887L11.3728 12.3925L11.3488 12.6037L8.50004 13.3705V13.3699L8.49667 13.3714L5.64954 12.6319L5.45629 10.5H6.85229L6.95117 11.5575L8.49929 11.9499L8.50004 11.9206V11.9221L10.0515 11.591L10.2135 9.87499H5.39417L5.05242 6.02049L5.01904 5.62499H11.9845L11.9513 5.93387ZM3.99454 0.203369H4.69729V0.897869H5.34029V0.203369H6.04317V2.30612H5.34029V1.60199H4.69742V2.30612H3.99454V0.203369ZM6.96729 0.900744H6.34854V0.203369H8.28917V0.900744H7.67017V2.30612H6.96729V0.900744ZM8.59717 0.203369H9.32992L9.78079 0.942244L10.2312 0.203369H10.9643V2.30612H10.2642V1.26387L9.78079 2.01149H9.76854L9.28479 1.26387V2.30612H8.59704V0.203369H8.59717ZM11.3142 0.203369H12.0172V1.61112H13.0055V2.30624H11.3142V0.203369Z" fill="#E44D26"/>
</svg>
