<svg width="16" height="16" viewBox="0 0 16 16" fill="none" xmlns="http://www.w3.org/2000/svg">
<path fill-rule="evenodd" clip-rule="evenodd" d="M9.23845 12.3342C9.18524 12.2432 9.10498 12.171 9.00883 12.1277C8.91269 12.0844 8.80544 12.0722 8.702 12.0927C8.4547 12.1397 8.20352 12.1634 7.95178 12.1633C5.66511 12.1633 3.82378 10.2558 3.93 7.94423C4.02489 5.88 5.69889 4.20467 7.76156 4.10978C10.0718 4.00334 11.978 5.84623 11.978 8.13423C11.978 9.12489 11.6207 10.032 11.028 10.7336C10.9604 10.8128 10.9189 10.9109 10.9092 11.0146C10.8995 11.1183 10.922 11.2225 10.9738 11.3129L12.1233 13.3053C12.3171 13.6411 12.8013 13.6411 12.9951 13.3053L15.7138 8.59334C15.8021 8.4402 15.8485 8.26654 15.8485 8.08978C15.8485 7.91302 15.8021 7.73936 15.7138 7.58623L12.2687 1.61489C12.1804 1.46176 12.0533 1.33459 11.9003 1.24615C11.7473 1.15771 11.5736 1.11114 11.3969 1.11111H4.50667C4.32997 1.11113 4.1564 1.15768 4.0034 1.24608C3.85041 1.33448 3.72338 1.4616 3.63511 1.61467L0.190003 7.58578C0.101635 7.73893 0.0551147 7.91263 0.0551147 8.08945C0.0551147 8.26626 0.101635 8.43997 0.190003 8.59311L3.63511 14.5644C3.72338 14.7175 3.85041 14.8446 4.0034 14.933C4.1564 15.0214 4.32997 15.068 4.50667 15.068H9.944C10.3316 15.068 10.5736 14.6484 10.38 14.3124L9.23845 12.3342V12.3342Z" fill="#6666FF"/>
<path fill-rule="evenodd" clip-rule="evenodd" d="M7.95178 6.09445C6.84 6.09445 5.93867 6.99623 5.93867 8.1089C5.93867 9.22156 6.84 10.1233 7.952 10.1233C9.06378 10.1233 9.96489 9.22156 9.96489 8.1089C9.96489 6.99623 9.06378 6.09445 7.95178 6.09445V6.09445Z" fill="#6666FF"/>
</svg>
