<svg width="16" height="16" viewBox="0 0 16 16" fill="none" xmlns="http://www.w3.org/2000/svg">
<g clip-path="url(#clip0_119_88)">
<path d="M4.35467 13.036C4.25733 13.036 4.17067 13.03 4.09733 13.0187V13.342C4.248 13.402 4.37267 13.432 4.47467 13.432C4.85667 13.432 5.20867 13.1987 5.53 12.73C5.94067 12.1233 6.27267 11.1493 6.52467 9.81067H5.938C5.84414 10.59 5.65725 11.3552 5.38133 12.09C5.4 11.9507 5.354 11.706 5.24467 11.3553L4.76 9.81067H4.15333L4.82933 11.8767C4.93133 12.1867 4.98267 12.3933 4.98267 12.4947C4.98267 12.6407 4.91733 12.7727 4.786 12.8907C4.67667 12.9867 4.53333 13.036 4.35467 13.036V13.036Z" fill="#105E86"/>
<path d="M12.988 8.862V12.4813H14.7413V12.036H13.578V8.862H12.988Z" fill="#DE8A03"/>
<path d="M0.693333 9.59467H0.7L1.63333 12.4813H2.10333L3.04333 9.59467H3.04867C3.15123 10.5538 3.21129 11.5169 3.22867 12.4813H3.84867C3.81051 11.2711 3.71529 10.0633 3.56333 8.862H2.83333L1.93533 11.522H1.93L1.04 8.862H0.273333C0.122136 10.0632 0.0309118 11.2711 0 12.4813H0.563333C0.581333 11.4227 0.624667 10.4607 0.693333 9.59467V9.59467Z" fill="#105E86"/>
<path d="M12.4527 10.604C12.4527 9.40667 11.974 8.80667 11.016 8.80667C10.5467 8.80667 10.18 8.95867 9.916 9.26267C9.62933 9.59534 9.48533 10.0847 9.48533 10.732C9.48533 11.368 9.612 11.8353 9.868 12.1327C10.1013 12.4013 10.4527 12.5353 10.9233 12.5353C11.0993 12.5353 11.2607 12.514 11.4067 12.4713L12.29 12.9767L12.53 12.57H12.528L11.8507 12.2427C11.9107 12.1927 11.9687 12.1393 12.0207 12.0793C12.3093 11.7473 12.4527 11.2553 12.4527 10.604V10.604ZM10.984 12.0873C10.6873 12.0873 10.4707 11.978 10.332 11.76L10.3333 11.7567C10.1833 11.5213 10.1087 11.1413 10.1087 10.6207C10.1087 9.70867 10.3913 9.25267 10.9553 9.25267C11.2507 9.25267 11.4687 9.362 11.6067 9.58C11.756 9.81667 11.8307 10.1927 11.8307 10.708C11.8307 11.6267 11.548 12.0873 10.984 12.0873ZM8.8 10.716C8.8 10.716 8.27067 10.418 8.00867 10.2773C7.72067 10.12 7.56467 9.93534 7.56467 9.72134C7.5652 9.65546 7.5803 9.59051 7.60888 9.53116C7.63747 9.4718 7.67883 9.4195 7.73 9.378C7.83133 9.28734 7.97733 9.24334 8.166 9.24334C8.39867 9.24334 8.63533 9.294 8.87533 9.394L9.01733 9.08267C8.73899 8.90428 8.41458 8.81113 8.084 8.81467C7.75067 8.81467 7.48067 8.904 7.27067 9.086C7.062 9.266 6.95733 9.50134 6.95733 9.796C6.95733 10.15 7.09733 10.3653 7.37867 10.5667C7.37867 10.5667 7.89533 10.8573 8.154 10.9967C8.43267 11.1507 8.586 11.334 8.586 11.55C8.58711 11.6282 8.56954 11.7055 8.53476 11.7756C8.49997 11.8456 8.44897 11.9063 8.386 11.9527C8.25933 12.0487 8.08533 12.0967 7.864 12.0967C7.626 12.0967 7.36267 12.026 7.07067 11.882L6.91267 12.1933C7.252 12.418 7.59933 12.5307 7.96133 12.5307C8.34867 12.5307 8.65467 12.4327 8.884 12.236C9.11333 12.04 9.228 11.7873 9.228 11.4793L9.232 11.4813C9.232 11.1287 9.08867 10.916 8.8 10.716V10.716Z" fill="#DE8A03"/>
<path d="M10.9367 3.84533C10.86 3.84533 10.808 3.85466 10.754 3.86666V3.87533H10.7633C10.7993 3.94333 10.8607 3.99333 10.906 4.05399C10.942 4.12399 10.9727 4.19399 11.0087 4.26333L11.018 4.25333C11.0807 4.20999 11.1113 4.14066 11.1113 4.03533C11.0847 4.00466 11.0807 3.97399 11.058 3.94399C11.0313 3.89999 10.974 3.87866 10.938 3.84399L10.9367 3.84533Z" fill="#105E86"/>
<path d="M15.7967 8.8C15.6652 8.63029 15.509 8.4813 15.3333 8.358C15.1907 8.26266 14.8787 8.12866 14.82 7.96866L14.8113 7.95933C14.9087 7.95066 15.0247 7.916 15.118 7.89C15.2693 7.85066 15.408 7.85933 15.5647 7.82066C15.6353 7.80333 15.7067 7.78133 15.778 7.75933V7.72C15.698 7.64133 15.638 7.53466 15.5553 7.46133C15.3242 7.26307 15.0782 7.08298 14.8193 6.92266C14.6793 6.83466 14.502 6.77866 14.3547 6.704C14.3013 6.678 14.212 6.66466 14.1813 6.62066C14.1013 6.52533 14.0547 6.398 13.998 6.284C13.87 6.04333 13.7447 5.77666 13.6333 5.52266C13.5533 5.35133 13.5047 5.18066 13.4067 5.02333C12.9467 4.27933 12.4487 3.828 11.6827 3.38733C11.518 3.296 11.3207 3.25666 11.112 3.208C11.0007 3.20266 10.8893 3.19466 10.7787 3.19C10.7053 3.15933 10.6347 3.076 10.572 3.036C10.3187 2.87866 9.66267 2.53866 9.476 2.98866C9.356 3.27266 9.654 3.55266 9.75733 3.69666C9.834 3.79666 9.93067 3.91133 9.984 4.024C10.0153 4.1 10.024 4.178 10.0553 4.25733C10.126 4.45 10.1933 4.664 10.2867 4.84466C10.3353 4.936 10.3887 5.03266 10.4513 5.11466C10.4873 5.16266 10.5487 5.18466 10.5627 5.26333C10.5 5.35266 10.496 5.482 10.46 5.59066C10.3 6.086 10.3627 6.69866 10.5893 7.06333C10.6607 7.172 10.8307 7.41266 11.058 7.32066C11.258 7.242 11.214 6.99333 11.2713 6.774C11.2847 6.72133 11.276 6.68666 11.3033 6.65133V6.66133C11.366 6.78466 11.4287 6.90133 11.486 7.02466C11.6233 7.23933 11.8633 7.462 12.064 7.61066C12.1707 7.68933 12.2553 7.82533 12.3887 7.874V7.86066H12.3787C12.35 7.82266 12.312 7.80466 12.276 7.77333C12.1915 7.69218 12.1135 7.60459 12.0427 7.51133C11.8551 7.25967 11.6885 6.99299 11.5447 6.714C11.4713 6.57666 11.41 6.42866 11.3513 6.29333C11.3247 6.24133 11.3247 6.16266 11.28 6.136C11.2133 6.23133 11.1153 6.31466 11.0667 6.43266C10.982 6.62133 10.9733 6.85266 10.9413 7.094C10.9233 7.09866 10.932 7.094 10.9233 7.10333C10.7807 7.06933 10.732 6.924 10.6787 6.802C10.5453 6.49133 10.5233 5.992 10.6387 5.63333C10.67 5.542 10.8033 5.25266 10.75 5.16466C10.722 5.08133 10.634 5.034 10.5853 4.96666C10.5229 4.87906 10.4693 4.78549 10.4253 4.68733C10.3187 4.44266 10.2653 4.17133 10.1493 3.92666C10.096 3.81333 10.0027 3.69466 9.92667 3.59066C9.842 3.47266 9.74867 3.39 9.68133 3.25C9.65933 3.202 9.628 3.12266 9.66333 3.07066C9.67267 3.03533 9.69133 3.02133 9.726 3.012C9.78467 2.96466 9.94933 3.02666 10.0073 3.05266C10.172 3.118 10.3107 3.17933 10.4487 3.27133C10.5113 3.31466 10.5787 3.39733 10.6587 3.41933H10.752C10.8947 3.45 11.0553 3.42866 11.1887 3.46733C11.4253 3.542 11.6387 3.65066 11.83 3.76866C12.4173 4.13589 12.8968 4.65204 13.22 5.26466C13.2733 5.36533 13.2967 5.458 13.3453 5.56266C13.4387 5.77866 13.554 5.99666 13.6487 6.20533C13.742 6.41133 13.832 6.622 13.966 6.79266C14.0327 6.884 14.3007 6.932 14.4207 6.98C14.5093 7.01933 14.6473 7.05533 14.7273 7.10333C14.8807 7.19466 15.03 7.3 15.174 7.40066C15.2473 7.45066 15.4693 7.56 15.4827 7.648C15.126 7.63866 14.8493 7.674 14.618 7.77133C14.5513 7.79733 14.4447 7.79733 14.4353 7.88066C14.472 7.91533 14.4773 7.972 14.5087 8.02066C14.562 8.108 14.654 8.22533 14.7393 8.28733C14.8327 8.35933 14.926 8.42866 15.024 8.48999C15.1973 8.59466 15.394 8.65666 15.564 8.76199C15.6607 8.82333 15.7593 8.90133 15.8573 8.96666C15.906 8.99933 15.9373 9.05866 16 9.07933V9.06666C15.9693 9.02733 15.96 8.97066 15.93 8.92666C15.8853 8.88266 15.8407 8.84333 15.7967 8.8V8.8Z" fill="#105E86"/>
</g>
<defs>
<clipPath id="clip0_119_88">
<rect width="16" height="16" fill="white"/>
</clipPath>
</defs>
</svg>
