<svg width="16" height="16" viewBox="0 0 16 16" fill="none" xmlns="http://www.w3.org/2000/svg">
<g clip-path="url(#clip0_119_95)">
<path d="M10.7485 9.50938C10.8275 8.85163 10.8039 8.75513 11.2937 8.86163L11.4181 8.87263C11.7949 8.88975 12.2877 8.812 12.5771 8.6775C13.2004 8.38838 13.5699 7.90538 12.9554 8.03225C11.5535 8.32138 11.4571 7.84688 11.4571 7.84688C12.9375 5.6505 13.5564 2.8625 13.0222 2.18C11.5655 0.318502 9.04375 1.19875 9.0015 1.22163L8.988 1.22425C8.711 1.16663 8.40112 1.13238 8.05287 1.12675C7.4185 1.11638 6.93712 1.29313 6.572 1.57C6.572 1.57 2.07337 -0.283373 2.28262 3.90075C2.32712 4.79088 3.5585 10.636 5.02712 8.8705C5.56387 8.225 6.08262 7.67913 6.08262 7.67913C6.34025 7.85025 6.64862 7.9375 6.97212 7.90613L6.99712 7.88488C6.98937 7.965 6.99275 8.04338 7.00725 8.13613C6.62887 8.559 6.74012 8.63325 5.98362 8.78888C5.21837 8.94663 5.668 9.22738 5.96137 9.30075C6.31737 9.38988 7.1405 9.516 7.69687 8.73713L7.67475 8.826C7.82325 8.94475 7.81312 9.67938 7.83412 10.2043C7.85512 10.7291 7.89037 11.2189 7.99737 11.5079C8.10437 11.7966 8.23062 12.5405 9.22475 12.3275C10.0555 12.1493 10.6906 11.893 10.7485 9.50938" fill="black"/>
<path d="M8.901 12.8463C8.46125 12.8463 8.175 12.6763 8.001 12.512C7.7385 12.2644 7.63437 11.9453 7.57225 11.7546L7.54537 11.675C7.42012 11.3369 7.37775 10.8501 7.35262 10.2234C7.34887 10.1294 7.34612 10.0323 7.34325 9.92939C7.34112 9.85426 7.3385 9.76001 7.33475 9.66114C7.1785 9.73601 7.01125 9.78889 6.83512 9.81914C6.52512 9.87214 6.19187 9.85489 5.84437 9.76801C5.59925 9.70676 5.3445 9.57976 5.19937 9.38351C4.77625 9.75414 4.37262 9.70376 4.15275 9.63051C3.76487 9.50114 3.41775 9.13776 3.09137 8.51926C2.859 8.07889 2.63412 7.50489 2.423 6.81351C2.0555 5.60939 1.822 4.34114 1.80125 3.92489C1.736 2.62151 2.08675 1.68951 2.84375 1.15489C4.03812 0.311263 5.8475 0.807263 6.50712 1.03251C6.95025 0.765388 7.47162 0.635263 8.06087 0.644763C8.37737 0.649888 8.67862 0.677763 8.9585 0.727513C9.25037 0.635763 9.82712 0.504013 10.4872 0.512138C11.7035 0.526638 12.7114 1.00064 13.4017 1.88289C13.8944 2.51239 13.6509 3.83414 13.4617 4.56614C13.1959 5.59551 12.7297 6.69064 12.1572 7.64389C12.3127 7.64501 12.5379 7.62626 12.8581 7.56026C13.4899 7.42976 13.6745 7.76851 13.7246 7.92014C13.9255 8.52851 13.0524 8.98814 12.78 9.11451C12.431 9.27664 11.8621 9.37526 11.3961 9.35389L11.3757 9.35251L11.2534 9.34176L11.2412 9.44376L11.2296 9.54364C11.1984 10.7516 11.0257 11.5166 10.6706 12.0223C10.2985 12.5521 9.78112 12.7008 9.3255 12.7984C9.17037 12.8318 9.02912 12.8463 8.901 12.8463V12.8463ZM7.97575 8.44951C8.25962 8.67664 8.2845 9.10401 8.30662 9.90276C8.30937 10.0024 8.312 10.0968 8.3155 10.1849C8.32625 10.4516 8.35137 11.0764 8.44912 11.3404C8.463 11.3776 8.47537 11.4156 8.48837 11.4556C8.59737 11.7896 8.65212 11.957 9.1235 11.856C9.51937 11.7713 9.72275 11.6951 9.882 11.4684C10.1135 11.1386 10.243 10.4758 10.2667 9.49751L10.7482 9.50926L10.27 9.45189L10.284 9.33251C10.3299 8.93901 10.3629 8.65451 10.626 8.46651C10.837 8.31564 11.0776 8.33026 11.2692 8.36476C11.0587 8.20589 11.0005 8.01914 10.985 7.94264L10.9449 7.74489L11.0576 7.57739C11.7076 6.61289 12.2437 5.42751 12.5285 4.32514C12.821 3.19239 12.7317 2.59076 12.6426 2.47701C11.4619 0.968138 9.414 1.59101 9.20025 1.66189L9.164 1.68139L8.98275 1.71526L8.88987 1.69601C8.634 1.64289 8.34975 1.61351 8.04487 1.60851C7.566 1.60051 7.17975 1.71364 6.863 1.95401L6.64325 2.12064L6.38812 2.01551C5.84337 1.79276 4.24287 1.34489 3.39837 1.94301C2.92962 2.27501 2.71612 2.92564 2.76362 3.87676C2.77925 4.19076 2.99275 5.37939 3.3445 6.53239C3.83087 8.12564 4.27287 8.65476 4.45737 8.71639C4.4895 8.72726 4.57312 8.66226 4.65625 8.56251C5.197 7.91214 5.71125 7.37001 5.73287 7.34714L6.01175 7.05376L6.34887 7.27776C6.48475 7.36814 6.63462 7.41926 6.78862 7.42889L7.59275 6.74314L7.47625 7.93189C7.47362 7.95864 7.47237 7.99489 7.48287 8.06239L7.51787 8.28776L7.36625 8.45751L7.34875 8.47714L7.7905 8.68114L7.97575 8.44951V8.44951Z" fill="black"/>
<path d="M12.9558 8.03225C11.5538 8.32138 11.4574 7.84675 11.4574 7.84675C12.9376 5.65038 13.5564 2.86225 13.0224 2.17988C11.5655 0.318376 9.04375 1.19875 9.00163 1.22163L8.988 1.224C8.711 1.16663 8.40113 1.13238 8.05275 1.12675C7.41838 1.11638 6.93713 1.293 6.572 1.56988C6.572 1.56988 2.07325 -0.283374 2.2825 3.90075C2.327 4.79088 3.55838 10.636 5.027 8.8705C5.56375 8.225 6.08238 7.67913 6.08238 7.67913C6.34 7.85025 6.64838 7.9375 6.97175 7.90613L6.99688 7.88488C6.98913 7.965 6.99263 8.04338 7.00688 8.13613C6.62863 8.559 6.73963 8.63325 5.98338 8.78888C5.218 8.94663 5.66763 9.22738 5.96125 9.30075C6.31713 9.38988 7.14038 9.516 7.69663 8.73713L7.67438 8.826C7.82263 8.94475 7.92675 9.59838 7.90925 10.1909C7.89175 10.7834 7.88013 11.1901 7.997 11.5079C8.11388 11.8255 8.23025 12.5405 9.2245 12.3275C10.0553 12.1494 10.4858 11.688 10.5458 10.9185C10.5883 10.3714 10.6844 10.4523 10.6905 9.963L10.7678 9.73138C10.8566 8.98963 10.7819 8.75038 11.2938 8.86175L11.4181 8.87263C11.7949 8.88988 12.2879 8.812 12.5773 8.6775C13.2005 8.38825 13.5701 7.90538 12.9558 8.03225V8.03225Z" fill="#336791"/>
<path d="M8.95125 12.5492C8.12238 12.5494 7.85988 11.893 7.75238 11.6246C7.59525 11.2314 7.56125 9.70487 7.59625 8.453C7.59875 8.36425 7.67213 8.29412 7.76138 8.29687C7.85 8.29937 7.91988 8.37325 7.9175 8.462C7.87713 9.90587 7.9345 11.2142 8.05075 11.5052C8.23238 11.9592 8.50775 12.3564 9.28663 12.1896C10.026 12.031 10.3029 11.7506 10.4261 11.0359C10.5209 10.4872 10.7079 8.92662 10.7309 8.61862C10.7375 8.53012 10.8143 8.46362 10.903 8.47037C10.9915 8.477 11.0579 8.55412 11.0513 8.6425C11.0273 8.963 10.841 10.5207 10.7426 11.0905C10.597 11.9349 10.2206 12.3179 9.35388 12.5037C9.20675 12.5351 9.07288 12.5492 8.95125 12.5492V12.5492ZM4.45738 9.34362C4.37825 9.34375 4.3065 9.32925 4.24438 9.3085C3.706 9.12887 3.19325 8.25212 2.72025 6.70237C2.36025 5.52262 2.13213 4.29137 2.11213 3.89125C2.05275 2.705 2.35838 1.86562 3.02025 1.39662C4.32975 0.468749 6.53275 1.35237 6.62588 1.39037C6.708 1.424 6.74738 1.51775 6.71375 1.59987C6.68025 1.68187 6.58638 1.72137 6.50438 1.68775V1.68787C6.48313 1.67912 4.37063 0.832874 3.20538 1.65925C2.63938 2.06062 2.3795 2.80612 2.43288 3.87537C2.44975 4.21237 2.66288 5.41425 3.0275 6.60875C3.44975 7.99212 3.93038 8.86525 4.346 9.00375C4.41113 9.02562 4.60963 9.09175 4.89363 8.7505C5.42763 8.108 5.91825 7.59525 5.92313 7.59012C5.9845 7.526 6.08625 7.524 6.15025 7.58525C6.21425 7.64662 6.2165 7.74837 6.15513 7.81237C6.15025 7.81737 5.66713 8.3225 5.14063 8.95587C4.89125 9.25562 4.65213 9.34362 4.45738 9.34362V9.34362ZM11.4474 7.99C11.4165 7.99 11.3853 7.98112 11.3578 7.9625C11.2841 7.913 11.2646 7.81312 11.3143 7.7395C12.8106 5.519 13.3359 2.83612 12.886 2.26137C12.3198 1.53787 11.5201 1.15987 10.5095 1.13825C9.76113 1.122 9.16625 1.31312 9.06913 1.3465L9.04475 1.35637C8.947 1.38712 8.872 1.3335 8.84375 1.27087C8.81025 1.19675 8.83775 1.10912 8.90725 1.067L8.9505 1.04925L8.94838 1.04987L8.95063 1.04912C9.11575 0.988749 9.71963 0.807499 10.4678 0.816124C11.5861 0.827874 12.5099 1.25925 13.1391 2.06325C13.4369 2.44375 13.4375 3.32037 13.141 4.46825C12.8388 5.6385 12.27 6.89637 11.5808 7.91912C11.5498 7.96525 11.499 7.99 11.4474 7.99V7.99ZM11.5238 9.01787C11.2683 9.01787 11.0393 8.982 10.9021 8.89975C10.7611 8.81537 10.7343 8.7005 10.7308 8.63962C10.6923 7.96412 11.065 7.8465 11.2551 7.79287C11.2286 7.75287 11.1909 7.70575 11.152 7.65712C11.0411 7.51862 10.8894 7.32887 10.7724 7.04512C10.7541 7.00087 10.6966 6.89775 10.6301 6.7785C10.2698 6.13237 9.52 4.78775 10.0016 4.09912C10.2246 3.7805 10.6684 3.65512 11.3224 3.72512C11.13 3.139 10.2138 1.30537 8.04 1.26975C7.38613 1.25875 6.84988 1.45987 6.447 1.86662C5.54488 2.77775 5.57763 4.42625 5.578 4.44262C5.58038 4.53137 5.51025 4.60512 5.42163 4.60737C5.33288 4.61012 5.25913 4.53975 5.25688 4.451C5.25488 4.37787 5.22113 2.648 6.21875 1.6405C6.68563 1.169 7.30013 0.936249 8.04525 0.948374C9.43625 0.971249 10.3314 1.67825 10.8375 2.2675C11.389 2.9095 11.6595 3.61775 11.6818 3.854C11.6984 4.02975 11.5723 4.065 11.5468 4.07012L11.4889 4.0715C10.847 3.96875 10.4353 4.04 10.265 4.28337C9.89863 4.80687 10.6079 6.07875 10.9108 6.622C10.9881 6.7605 11.0439 6.86062 11.0694 6.9225C11.1689 7.16375 11.2986 7.32587 11.4029 7.45612C11.4945 7.57075 11.574 7.67 11.6025 7.78675C11.6156 7.80987 11.8029 8.08662 12.9135 7.85737C13.1919 7.8 13.3588 7.84912 13.4098 8.00337C13.5101 8.307 12.947 8.661 12.6353 8.80587C12.3555 8.93575 11.9096 9.01787 11.5238 9.01787V9.01787ZM11.0511 8.61312C11.0863 8.64875 11.2625 8.71 11.6276 8.69437C11.9521 8.68037 12.2945 8.60975 12.5 8.5145C12.7628 8.3925 12.938 8.25612 13.0289 8.163L12.9784 8.17225C12.2683 8.31887 11.766 8.29937 11.4856 8.11412C11.4655 8.101 11.4476 8.08725 11.4313 8.07375C11.4009 8.08575 11.3728 8.09362 11.3528 8.09925C11.1936 8.14387 11.0291 8.19 11.0511 8.61312V8.61312ZM6.464 9.5105C6.28763 9.5105 6.102 9.48662 5.91238 9.439C5.716 9.38987 5.38475 9.242 5.38988 8.99912C5.3955 8.7265 5.79188 8.64475 5.94125 8.614C6.48025 8.503 6.51538 8.4585 6.68388 8.24462C6.733 8.18225 6.79413 8.10462 6.87738 8.0115C7.00113 7.87312 7.13638 7.80287 7.27938 7.80287C7.37888 7.80287 7.46063 7.83675 7.5145 7.859C7.6865 7.93025 7.83 8.1025 7.889 8.30875C7.94225 8.49475 7.91688 8.67375 7.8175 8.81275C7.4915 9.26937 7.0235 9.5105 6.464 9.5105V9.5105ZM5.73688 9.013C5.78538 9.05037 5.88238 9.10037 5.99025 9.1275C6.1545 9.1685 6.31375 9.18937 6.464 9.18937C6.92175 9.18937 7.28913 8.99975 7.55613 8.62612C7.61175 8.54812 7.59513 8.44925 7.58025 8.39712C7.549 8.28812 7.4715 8.189 7.39163 8.15575C7.34825 8.13775 7.31238 8.124 7.27938 8.124C7.26163 8.124 7.20775 8.124 7.11688 8.22562C7.04013 8.31137 6.985 8.38137 6.93613 8.44325C6.72638 8.70962 6.63025 8.8 6.006 8.92862C5.85375 8.96012 5.77563 8.99187 5.73688 9.013ZM6.97213 8.272C6.89413 8.272 6.82575 8.21512 6.8135 8.13575C6.80938 8.10912 6.80675 8.08225 6.8055 8.05525C6.39625 8.0475 6.0015 7.872 5.70188 7.55925C5.323 7.16387 5.1505 6.61612 5.22875 6.0565C5.31375 5.44875 5.282 4.91225 5.26488 4.624C5.26013 4.54387 5.25675 4.486 5.257 4.44587C5.25725 4.39512 5.25825 4.26025 5.70888 4.03187C5.86913 3.95062 6.1905 3.80887 6.5415 3.7725C7.12325 3.7125 7.50663 3.9715 7.62138 4.502C7.93113 5.9345 7.64588 6.56812 7.43763 7.03075C7.39875 7.11675 7.36213 7.19825 7.33288 7.277L7.307 7.34662C7.197 7.64162 7.10188 7.8965 7.13113 8.087C7.1445 8.17475 7.08438 8.25662 6.99675 8.27025L6.97213 8.272V8.272ZM5.57925 4.49025L5.58563 4.605C5.60338 4.90437 5.63638 5.46162 5.54688 6.10112C5.48238 6.56262 5.62338 7.01325 5.93375 7.33712C6.179 7.59312 6.502 7.73437 6.83388 7.73437H6.84075C6.878 7.57775 6.93963 7.4125 7.006 7.23437L7.03175 7.16525C7.06488 7.07625 7.10363 6.99012 7.14463 6.899C7.34513 6.4535 7.59463 5.899 7.30725 4.56987C7.25025 4.30675 7.11225 4.15437 6.88538 4.10412C6.41938 4.00112 5.725 4.35162 5.57925 4.49025V4.49025ZM6.54875 4.42212C6.54075 4.47887 6.65288 4.6305 6.79888 4.65075C6.94475 4.67112 7.06963 4.55262 7.0775 4.49587C7.08538 4.439 6.97338 4.3765 6.82725 4.35612C6.68138 4.33575 6.5565 4.36525 6.54875 4.42212V4.42212ZM6.8325 4.70675L6.7915 4.70387C6.70088 4.69125 6.60925 4.63412 6.54663 4.551C6.52463 4.52187 6.48863 4.46512 6.49575 4.41462C6.506 4.3405 6.59625 4.29625 6.73738 4.29625C6.769 4.29625 6.80175 4.29862 6.83488 4.30312C6.91188 4.31387 6.9835 4.33612 7.03638 4.36562C7.128 4.41687 7.13475 4.47387 7.13063 4.5035C7.11925 4.58512 6.989 4.70675 6.8325 4.70675V4.70675ZM6.602 4.43162C6.60663 4.46662 6.69325 4.58225 6.80625 4.59787L6.83238 4.59975C6.93663 4.59975 7.01463 4.51762 7.02375 4.49075C7.01413 4.4725 6.94713 4.42687 6.81988 4.40937C6.79175 4.40537 6.76388 4.40337 6.73725 4.40337C6.65575 4.40325 6.61213 4.42162 6.602 4.43162V4.43162ZM10.9921 4.30625C11 4.36312 10.8881 4.51475 10.742 4.535C10.596 4.55525 10.4711 4.43687 10.4631 4.38C10.4554 4.32325 10.5674 4.26062 10.7134 4.24037C10.8594 4.21987 10.9841 4.24962 10.9921 4.30625ZM10.7084 4.564C10.5678 4.564 10.4466 4.45462 10.4366 4.38375C10.4251 4.29862 10.5653 4.23387 10.7098 4.21387C10.7415 4.20937 10.773 4.20712 10.8034 4.20712C10.928 4.20712 11.0105 4.24375 11.0188 4.30262C11.0241 4.34087 10.9949 4.39975 10.9444 4.45275C10.9111 4.48775 10.8411 4.54837 10.7459 4.5615L10.7084 4.564ZM10.8033 4.26062C10.7754 4.26062 10.7464 4.26275 10.717 4.26675C10.5718 4.28687 10.4854 4.34525 10.4895 4.3765C10.4944 4.41075 10.587 4.5105 10.7083 4.5105L10.7381 4.50837C10.8174 4.49725 10.8769 4.44562 10.9053 4.41575C10.9498 4.36887 10.9675 4.32487 10.9654 4.30975C10.9628 4.29012 10.9093 4.26062 10.8033 4.26062V4.26062ZM11.2025 7.56725C11.1718 7.56725 11.1408 7.5585 11.1133 7.54012C11.0395 7.49062 11.0198 7.391 11.0691 7.31725C11.4111 6.80637 11.3485 6.28525 11.288 5.7815C11.2621 5.56675 11.2355 5.34487 11.2425 5.13175C11.2495 4.91262 11.2773 4.73187 11.3043 4.55687C11.3361 4.34975 11.3663 4.15387 11.3538 3.92162C11.3489 3.83312 11.4169 3.7575 11.5055 3.7525C11.5944 3.74775 11.6698 3.81575 11.6746 3.90437C11.6889 4.16987 11.6548 4.39137 11.6218 4.60575C11.5963 4.77112 11.5699 4.94212 11.5635 5.142C11.5574 5.33062 11.5815 5.531 11.607 5.743C11.6715 6.27887 11.7444 6.88625 11.3361 7.49587C11.3051 7.54212 11.2543 7.56725 11.2025 7.56725Z" fill="white"/>
<path d="M0.354374 12.898C0.490999 12.8752 0.669624 12.8557 0.897249 12.8557C1.17662 12.8557 1.3815 12.9207 1.5115 13.0377C1.63175 13.1417 1.70325 13.301 1.70325 13.4961C1.70325 13.6944 1.64462 13.8504 1.53412 13.9641C1.38462 14.1234 1.14087 14.2046 0.864624 14.2046C0.780124 14.2046 0.702124 14.2014 0.637249 14.1851V15.0627H0.354374V12.898V12.898ZM0.637249 13.9542C0.698999 13.9705 0.776999 13.977 0.871249 13.977C1.21237 13.977 1.4205 13.8112 1.4205 13.509C1.4205 13.2197 1.21575 13.08 0.903749 13.08C0.780249 13.08 0.685999 13.0897 0.637249 13.1027V13.9542V13.9542ZM3.416 14.263C3.416 14.8447 3.01287 15.0984 2.63262 15.0984C2.20687 15.0984 1.87862 14.7864 1.87862 14.289C1.87862 13.7625 2.22312 13.4537 2.65862 13.4537C3.1105 13.4536 3.416 13.782 3.416 14.263V14.263ZM2.168 14.2792C2.168 14.6237 2.36625 14.8837 2.64575 14.8837C2.91875 14.8837 3.12337 14.627 3.12337 14.2727C3.12337 14.0062 2.99025 13.6682 2.65212 13.6682C2.314 13.6682 2.168 13.9802 2.168 14.2792ZM3.73762 14.77C3.82212 14.8252 3.97162 14.8837 4.11462 14.8837C4.32262 14.8837 4.42012 14.7797 4.42012 14.6497C4.42012 14.5132 4.339 14.4385 4.12762 14.3605C3.84487 14.2597 3.71162 14.1037 3.71162 13.9152C3.71162 13.6617 3.91637 13.4537 4.25437 13.4537C4.41362 13.4537 4.5535 13.4992 4.64125 13.5512L4.56975 13.7592C4.508 13.7202 4.39425 13.6682 4.248 13.6682C4.079 13.6682 3.98475 13.7657 3.98475 13.8827C3.98475 14.0127 4.07912 14.0712 4.28387 14.1492C4.55687 14.2532 4.69662 14.3897 4.69662 14.6237C4.69662 14.9 4.48212 15.095 4.10837 15.095C3.93612 15.095 3.77687 15.0527 3.66637 14.9877L3.73762 14.77V14.77ZM5.40825 13.0376V13.4894H5.81762V13.7071H5.40825V14.5554C5.40825 14.7504 5.46337 14.8609 5.62275 14.8609C5.6975 14.8609 5.75275 14.8511 5.7885 14.8414L5.8015 15.0559C5.74637 15.0786 5.6585 15.0949 5.54812 15.0949C5.41487 15.0949 5.3075 15.0526 5.23925 14.9746C5.15812 14.8901 5.12875 14.7504 5.12875 14.5651V13.7071H4.885V13.4894H5.12875V13.1124L5.40825 13.0376V13.0376ZM7.47525 13.4895C7.46862 13.6032 7.46225 13.73 7.46225 13.9217V14.835C7.46225 15.1957 7.39075 15.4167 7.238 15.5534C7.08525 15.6964 6.86425 15.7419 6.666 15.7419C6.4775 15.7419 6.2695 15.6964 6.14262 15.6119L6.21412 15.3941C6.31812 15.4591 6.48062 15.5176 6.67562 15.5176C6.96812 15.5176 7.18262 15.3649 7.18262 14.9684V14.7929H7.17612C7.08837 14.9391 6.91937 15.0561 6.67562 15.0561C6.28562 15.0561 6.00612 14.7246 6.00612 14.289C6.00612 13.756 6.35387 13.4537 6.71462 13.4537C6.98775 13.4537 7.13725 13.5967 7.2055 13.7267H7.212L7.225 13.4895H7.47525V13.4895ZM7.1795 14.1102C7.1795 14.0615 7.17625 14.0192 7.16325 13.9802C7.11125 13.8145 6.9715 13.678 6.7635 13.678C6.49037 13.678 6.2955 13.9087 6.2955 14.2727C6.2955 14.5815 6.4515 14.8382 6.76025 14.8382C6.93575 14.8382 7.095 14.7277 7.15675 14.5457C7.173 14.497 7.17962 14.4417 7.17962 14.393V14.1102H7.1795ZM7.91712 13.9802C7.91712 13.795 7.91387 13.6357 7.90412 13.4895H8.1545L8.16412 13.7982H8.17712C8.24862 13.587 8.42087 13.4537 8.61262 13.4537C8.64512 13.4537 8.66775 13.457 8.69375 13.4635V13.7332C8.66462 13.7267 8.63525 13.7235 8.59637 13.7235C8.39487 13.7235 8.25175 13.8762 8.21287 14.0907C8.20637 14.1297 8.19987 14.1752 8.19987 14.224V15.0625H7.91712V13.9802ZM9.10675 14.328C9.11325 14.7147 9.36012 14.874 9.64612 14.874C9.851 14.874 9.97437 14.8382 10.0816 14.7927L10.1304 14.9975C10.0296 15.043 9.85737 15.095 9.60712 15.095C9.12287 15.095 8.83362 14.7765 8.83362 14.302C8.83362 13.8275 9.11312 13.4536 9.57137 13.4536C10.0849 13.4536 10.2214 13.9054 10.2214 14.1946C10.2214 14.2531 10.2149 14.2986 10.2116 14.3279H9.10675V14.328ZM9.94525 14.1232C9.94837 13.9412 9.87037 13.6585 9.54875 13.6585C9.2595 13.6585 9.13275 13.925 9.10987 14.1232H9.94525V14.1232Z" fill="black"/>
<path d="M10.5464 14.718C10.6731 14.796 10.8584 14.861 11.0534 14.861C11.3426 14.861 11.5116 14.7082 11.5116 14.4872C11.5116 14.2825 11.3946 14.1655 11.0989 14.0517C10.7414 13.925 10.5204 13.7397 10.5204 13.431C10.5204 13.0897 10.8031 12.8362 11.2289 12.8362C11.4531 12.8362 11.6156 12.8882 11.7131 12.9435L11.6351 13.1742C11.5636 13.1352 11.4174 13.0702 11.2191 13.0702C10.9201 13.0702 10.8064 13.249 10.8064 13.3985C10.8064 13.6032 10.9395 13.704 11.2419 13.821C11.6124 13.9641 11.8009 14.1427 11.8009 14.4645C11.8009 14.8025 11.5506 15.095 11.0339 15.095C10.8226 15.095 10.5919 15.0332 10.4748 14.9552L10.5464 14.718V14.718ZM13.9946 15.3842C13.6989 15.3062 13.4096 15.2185 13.1561 15.1307C13.1106 15.1145 13.0651 15.0982 13.0229 15.0982C12.5029 15.0787 12.0576 14.6952 12.0576 13.99C12.0576 13.288 12.4866 12.8362 13.0781 12.8362C13.6729 12.8362 14.0598 13.2977 14.0598 13.9445C14.0598 14.5067 13.7998 14.8675 13.4358 14.9942V15.0072C13.6535 15.0625 13.8908 15.1145 14.076 15.147L13.9946 15.3842V15.3842ZM13.7606 13.9575C13.7606 13.5187 13.5333 13.0669 13.0684 13.0669C12.5906 13.0669 12.3566 13.5089 12.3599 13.9835C12.3566 14.4482 12.6134 14.8675 13.0554 14.8675C13.5073 14.8675 13.7606 14.458 13.7606 13.9575V13.9575ZM14.4268 12.872H14.7096V14.8252H15.6456V15.0625H14.4268V12.872Z" fill="#336791"/>
</g>
<defs>
<clipPath id="clip0_119_95">
<rect width="16" height="16" fill="white"/>
</clipPath>
</defs>
</svg>
