<svg width="16" height="16" viewBox="0 0 16 16" fill="none" xmlns="http://www.w3.org/2000/svg">
<g clip-path="url(#clip0_119_102)">
<path d="M7.94234 0C3.88063 0 4.13377 1.77058 4.13377 1.77058L4.13821 3.60495H8.01483V4.15578H2.5996C2.5996 4.15578 0 3.85956 0 7.97919C0 12.0988 2.26867 11.9531 2.26867 11.9531H3.62262V10.0414C3.62262 10.0414 3.5497 7.76088 5.85504 7.76088H9.69928C9.69928 7.76088 11.8592 7.79601 11.8592 5.66254V2.13535C11.8592 2.13535 12.1873 0 7.94234 0ZM5.80504 1.23357C5.96619 1.23373 6.12231 1.29004 6.2468 1.39291C6.37128 1.49579 6.45644 1.63887 6.48776 1.79777C6.51908 1.95668 6.49463 2.12158 6.41857 2.2644C6.34251 2.40722 6.21955 2.51911 6.07064 2.58103C5.92172 2.64294 5.75605 2.65104 5.60186 2.60395C5.44766 2.55686 5.31448 2.45749 5.22499 2.32277C5.1355 2.18805 5.09524 2.02631 5.11107 1.8651C5.12689 1.70388 5.19783 1.55318 5.3118 1.43864C5.37657 1.37354 5.45347 1.32193 5.53811 1.28674C5.62274 1.25155 5.71345 1.23348 5.80504 1.23357V1.23357Z" fill="url(#paint0_linear_119_102)"/>
<path d="M8.05766 16C12.1195 16 11.8659 14.2287 11.8659 14.2287L11.8615 12.3943H7.98532V11.8442H13.4005C13.4005 11.8442 15.9997 12.1406 15.9997 8.02066C15.9997 3.90074 13.731 4.04691 13.731 4.04691H12.3775V5.95861C12.3775 5.95861 12.4504 8.23912 10.1451 8.23912H6.30072C6.30072 8.23912 4.14079 8.20398 4.14079 10.3376V13.8658C4.14079 13.8658 3.81344 16 8.05766 16V16ZM10.195 14.7666C10.0338 14.7665 9.8776 14.7102 9.75306 14.6073C9.62852 14.5045 9.5433 14.3614 9.51193 14.2024C9.48056 14.0435 9.50497 13.8786 9.58101 13.7357C9.65705 13.5928 9.78001 13.4809 9.92895 13.4189C10.0779 13.3569 10.2436 13.3488 10.3978 13.3959C10.5521 13.4429 10.6853 13.5423 10.7748 13.677C10.8644 13.8117 10.9047 13.9735 10.8889 14.1348C10.8731 14.296 10.8022 14.4468 10.6882 14.5614C10.6234 14.6265 10.5465 14.6781 10.4619 14.7133C10.3773 14.7485 10.2866 14.7666 10.195 14.7666Z" fill="url(#paint1_linear_119_102)"/>
</g>
<defs>
<linearGradient id="paint0_linear_119_102" x1="1.54246" y1="1.43445" x2="9.50307" y2="9.28857" gradientUnits="userSpaceOnUse">
<stop stop-color="#387EB8"/>
<stop offset="1" stop-color="#366994"/>
</linearGradient>
<linearGradient id="paint1_linear_119_102" x1="6.40111" y1="6.50873" x2="14.9563" y2="14.5496" gradientUnits="userSpaceOnUse">
<stop stop-color="#FFE052"/>
<stop offset="1" stop-color="#FFC331"/>
</linearGradient>
<clipPath id="clip0_119_102">
<rect width="16" height="16" fill="white"/>
</clipPath>
</defs>
</svg>
