<svg width="17" height="16" viewBox="0 0 17 16" fill="none" xmlns="http://www.w3.org/2000/svg">
<g clip-path="url(#clip0_30_1065)">
<path d="M8.50007 9.42495C9.28708 9.42495 9.92507 8.78696 9.92507 7.99995C9.92507 7.21295 9.28708 6.57495 8.50007 6.57495C7.71307 6.57495 7.07507 7.21295 7.07507 7.99995C7.07507 8.78696 7.71307 9.42495 8.50007 9.42495Z" fill="#61DAFB"/>
<path d="M13.9125 5.64995C13.6375 5.54995 13.35 5.44995 13.05 5.36245C13.125 5.06245 13.1875 4.76245 13.2375 4.47495C13.5 2.82495 13.2125 1.66245 12.4125 1.21245C12.175 1.07495 11.9125 1.01245 11.6125 1.01245C10.7375 1.01245 9.62505 1.66245 8.50005 2.74995C7.37505 1.66245 6.26255 1.01245 5.38755 1.01245C5.08755 1.01245 4.82505 1.07495 4.58755 1.21245C3.78755 1.67495 3.50005 2.83745 3.76255 4.47495C3.81255 4.76245 3.87505 5.06245 3.95005 5.36245C3.65005 5.44995 3.36255 5.53745 3.08755 5.64995C1.52505 6.24995 0.675049 7.07495 0.675049 7.99995C0.675049 8.92495 1.53755 9.74995 3.08755 10.35C3.36255 10.45 3.65005 10.55 3.95005 10.6375C3.87505 10.9375 3.81255 11.2375 3.76255 11.525C3.50005 13.175 3.78755 14.3375 4.58755 14.7875C4.82505 14.925 5.08755 14.9875 5.38755 14.9875C6.27505 14.9875 7.38755 14.3375 8.50005 13.25C9.62505 14.3375 10.7375 14.9875 11.6125 14.9875C11.9125 14.9875 12.175 14.925 12.4125 14.7875C13.2125 14.325 13.5 13.1625 13.2375 11.525C13.1875 11.2375 13.125 10.9375 13.05 10.6375C13.35 10.55 13.6375 10.4625 13.9125 10.35C15.475 9.74995 16.325 8.92495 16.325 7.99995C16.325 7.07495 15.475 6.24995 13.9125 5.64995ZM12.0625 1.83745C12.575 2.13745 12.75 3.06245 12.5375 4.37495C12.5 4.63745 12.4375 4.91245 12.3625 5.19995C11.7125 5.04995 11.025 4.94995 10.3 4.88745C9.87505 4.28745 9.43755 3.74995 9.00005 3.26245C9.92505 2.34995 10.8625 1.72495 11.625 1.72495C11.7875 1.72495 11.9375 1.76245 12.0625 1.83745ZM10.6625 9.24995C10.4375 9.64995 10.175 10.05 9.90005 10.45C9.43755 10.4875 8.97505 10.5 8.50005 10.5C8.01255 10.5 7.55005 10.4875 7.10005 10.45C6.82505 10.05 6.57505 9.64995 6.35005 9.24995C6.11255 8.83745 5.88755 8.41245 5.68755 7.99995C5.88755 7.58745 6.11255 7.16245 6.35005 6.74995C6.57505 6.34995 6.83755 5.94995 7.11255 5.54995C7.57505 5.51245 8.03755 5.49995 8.51255 5.49995C9.00005 5.49995 9.46255 5.51245 9.91255 5.54995C10.1875 5.94995 10.4375 6.34995 10.6625 6.74995C10.9 7.16245 11.125 7.58745 11.325 7.99995C11.1125 8.41245 10.9 8.82495 10.6625 9.24995ZM11.7 8.83745C11.8875 9.27495 12.0375 9.69995 12.175 10.125C11.75 10.225 11.3 10.3 10.825 10.3625C10.975 10.125 11.1375 9.87495 11.275 9.61245C11.425 9.34995 11.5625 9.08745 11.7 8.83745ZM8.50005 12.225C8.20005 11.9 7.91255 11.55 7.63755 11.1875C7.92505 11.2 8.21255 11.2125 8.50005 11.2125C8.78755 11.2125 9.07505 11.2 9.36255 11.1875C9.08755 11.55 8.80005 11.9 8.50005 12.225ZM6.17505 10.35C5.70005 10.2875 5.25005 10.2125 4.82505 10.1125C4.96255 9.69995 5.11255 9.26245 5.30005 8.82495C5.43755 9.07495 5.57505 9.33745 5.72505 9.58745C5.87505 9.86245 6.02505 10.1 6.17505 10.35ZM5.30005 7.16245C5.11255 6.72495 4.96255 6.29995 4.82505 5.87495C5.25005 5.77495 5.70005 5.69995 6.17505 5.63745C6.02505 5.87495 5.86255 6.12495 5.72505 6.38745C5.57505 6.64995 5.43755 6.91245 5.30005 7.16245ZM8.50005 3.77495C8.80005 4.09995 9.08755 4.44995 9.36255 4.81245C9.07505 4.79995 8.78755 4.78745 8.50005 4.78745C8.21255 4.78745 7.92505 4.79995 7.63755 4.81245C7.91255 4.44995 8.20005 4.09995 8.50005 3.77495ZM11.275 6.39995L10.825 5.64995C11.3 5.71245 11.75 5.78745 12.175 5.88745C12.0375 6.29995 11.8875 6.73745 11.7 7.17495C11.5625 6.91245 11.425 6.64995 11.275 6.39995ZM4.46255 4.37495C4.25005 3.06245 4.42505 2.13745 4.93755 1.83745C5.06255 1.76245 5.21255 1.72495 5.37505 1.72495C6.12505 1.72495 7.06255 2.33745 8.00005 3.26245C7.56255 3.73745 7.12505 4.28745 6.70005 4.88745C5.97505 4.94995 5.28755 5.06245 4.63755 5.19995C4.56255 4.91245 4.51255 4.63745 4.46255 4.37495ZM1.37505 7.99995C1.37505 7.41245 2.08755 6.78745 3.33755 6.32495C3.58755 6.22495 3.86255 6.13745 4.13755 6.06245C4.33755 6.68745 4.58755 7.34995 4.88755 8.01245C4.58755 8.67495 4.32505 9.32495 4.13755 9.94995C2.41255 9.44995 1.37505 8.69995 1.37505 7.99995ZM4.93755 14.1625C4.42505 13.8625 4.25005 12.9375 4.46255 11.625C4.50005 11.3625 4.56255 11.0875 4.63755 10.8C5.28755 10.95 5.97505 11.05 6.70005 11.1125C7.12505 11.7125 7.56255 12.25 8.00005 12.7375C7.07505 13.65 6.13755 14.275 5.37505 14.275C5.21255 14.275 5.06255 14.2375 4.93755 14.1625ZM12.5375 11.625C12.75 12.9375 12.575 13.8625 12.0625 14.1625C11.9375 14.2375 11.7875 14.275 11.625 14.275C10.875 14.275 9.93755 13.6625 9.00005 12.7375C9.43755 12.2625 9.87505 11.7125 10.3 11.1125C11.025 11.05 11.7125 10.9375 12.3625 10.8C12.4375 11.0875 12.4875 11.3625 12.5375 11.625ZM13.6625 9.67495C13.4125 9.77495 13.1375 9.86245 12.8625 9.93745C12.6625 9.31245 12.4125 8.64995 12.1125 7.98745C12.4125 7.32495 12.675 6.67495 12.8625 6.04995C14.5875 6.54995 15.625 7.29995 15.625 7.99995C15.625 8.58745 14.9 9.21245 13.6625 9.67495Z" fill="#61DAFB"/>
</g>
<defs>
<clipPath id="clip0_30_1065">
<rect width="16" height="16" fill="white" transform="translate(0.5)"/>
</clipPath>
</defs>
</svg>
