<svg width="256" height="256" viewBox="0 0 256 256" fill="none" xmlns="http://www.w3.org/2000/svg">
<g clip-path="url(#clip0_30_1073)">
<path d="M256 0H0V256H256V0Z" fill="#353047"/>
<path d="M53.6909 204.336C53.6909 204.336 19.425 170.844 57.9256 126.93C96.4263 83.0168 151.051 72.0578 182.69 88.9827C214.329 105.908 237.045 174.414 199.307 202.015L53.6909 204.336Z" fill="#E6F5FF"/>
<path d="M-1.94491 131.042C-18.2197 173.485 12.584 209.644 44.379 207.839C76.1739 206.035 71.1136 280.247 31.3295 286.106" stroke="#353047" stroke-miterlimit="10"/>
<path d="M3.63371 128.556C-12.6411 170.999 18.1626 207.158 49.9576 205.353C81.7525 203.548 76.6922 277.761 36.9081 283.62" stroke="#353047" stroke-width="1.2222" stroke-miterlimit="10"/>
<path d="M9.21245 126.069C-7.06232 168.512 23.7413 204.671 55.5362 202.866C87.3312 201.062 82.2708 275.274 42.4867 281.133" stroke="#353047" stroke-width="1.4444" stroke-miterlimit="10"/>
<path d="M14.7911 123.583C-1.48371 166.025 29.3199 202.185 61.1149 200.38C92.9099 198.575 87.8495 272.788 48.0654 278.647" stroke="#353047" stroke-width="1.6667" stroke-miterlimit="10"/>
<path d="M20.3696 121.096C4.09495 163.539 34.8986 199.698 66.6935 197.893C98.4885 196.088 93.4281 270.301 53.644 276.16" stroke="#353047" stroke-width="1.8889" stroke-miterlimit="10"/>
<path d="M25.9483 118.61C9.67351 161.052 40.4772 197.212 72.2722 195.407C104.067 193.602 99.0068 267.815 59.2226 273.674" stroke="#353047" stroke-width="2.1111" stroke-miterlimit="10"/>
<path d="M31.5271 116.123C15.2524 158.566 46.056 194.725 77.851 192.92C109.646 191.115 104.586 265.328 64.8014 271.187" stroke="#353047" stroke-width="2.3333" stroke-miterlimit="10"/>
<path d="M37.1056 113.637C20.8309 156.079 51.6346 192.238 83.4294 190.434C115.224 188.629 110.164 262.842 70.3799 268.701" stroke="#353047" stroke-width="2.5555" stroke-miterlimit="10"/>
<path d="M42.6844 111.15C26.4096 153.593 57.2133 189.752 89.0082 187.947C120.803 186.142 115.743 260.355 75.9586 266.214" stroke="#353047" stroke-width="2.7778" stroke-miterlimit="10"/>
<path d="M48.263 108.664C31.9882 151.106 62.7919 187.265 94.5869 185.461C126.382 183.656 121.321 257.869 81.5373 263.728" stroke="#353047" stroke-width="3" stroke-miterlimit="10"/>
<path d="M53.8417 106.177C37.5669 148.62 68.3707 184.779 100.166 182.974C131.96 181.169 126.9 255.382 87.116 261.241" stroke="#353047" stroke-width="3.2222" stroke-miterlimit="10"/>
<path d="M59.4203 103.69C43.1456 146.133 73.9492 182.292 105.744 180.488C137.539 178.683 132.479 252.896 92.6946 258.754" stroke="#353047" stroke-width="3.4444" stroke-miterlimit="10"/>
<path d="M64.9991 101.204C48.7243 143.647 79.5279 179.806 111.323 178.001C143.118 176.196 138.057 250.409 98.2733 256.268" stroke="#353047" stroke-width="3.6667" stroke-miterlimit="10"/>
<path d="M70.5777 98.7174C54.3029 141.16 85.1065 177.319 116.901 175.514C148.696 173.71 143.636 247.922 103.852 253.781" stroke="#353047" stroke-width="3.8889" stroke-miterlimit="10"/>
<path d="M76.1563 96.2308C59.8815 138.674 90.6852 174.833 122.48 173.028C154.275 171.223 149.215 245.436 109.43 251.295" stroke="#353047" stroke-width="4.1111" stroke-miterlimit="10"/>
<path d="M81.7351 93.7442C65.4602 136.187 96.2639 172.346 128.059 170.541C159.854 168.737 154.793 242.949 115.009 248.808" stroke="#353047" stroke-width="4.3333" stroke-miterlimit="10"/>
<path d="M87.3136 91.2578C71.0389 133.7 101.842 169.86 133.637 168.055C165.432 166.25 160.372 240.463 120.588 246.322" stroke="#353047" stroke-width="4.5556" stroke-miterlimit="10"/>
<path d="M92.8923 88.7712C76.6174 131.214 107.421 167.373 139.216 165.568C171.011 163.763 165.951 237.976 126.166 243.835" stroke="#353047" stroke-width="4.7778" stroke-miterlimit="10"/>
<path d="M98.471 86.2847C82.1962 128.727 113 164.886 144.795 163.082C176.59 161.277 171.529 235.49 131.745 241.349" stroke="#353047" stroke-width="5" stroke-miterlimit="10"/>
<path d="M104.05 83.798C87.775 126.241 118.579 162.4 150.374 160.595C182.169 158.79 177.108 233.003 137.324 238.862" stroke="#353047" stroke-width="5.2222" stroke-miterlimit="10"/>
<path d="M109.628 81.3115C93.3535 123.754 124.157 159.913 155.952 158.109C187.747 156.304 182.687 230.517 142.903 236.376" stroke="#353047" stroke-width="5.4444" stroke-miterlimit="10"/>
<path d="M115.207 78.825C98.9322 121.268 129.736 157.427 161.531 155.622C193.326 153.817 188.265 228.03 148.481 233.889" stroke="#353047" stroke-width="5.6667" stroke-miterlimit="10"/>
<path d="M120.786 76.3385C104.511 118.781 135.315 154.94 167.11 153.136C198.905 151.331 193.844 225.544 154.06 231.402" stroke="#353047" stroke-width="5.8889" stroke-miterlimit="10"/>
<path d="M126.364 73.8519C110.09 116.295 140.893 152.454 172.688 150.649C204.483 148.844 199.423 223.057 159.638 228.916" stroke="#353047" stroke-width="6.1111" stroke-miterlimit="10"/>
<path d="M131.943 71.3653C115.668 113.808 146.472 149.967 178.267 148.162C210.062 146.358 205.001 220.571 165.217 226.429" stroke="#353047" stroke-width="6.3333" stroke-miterlimit="10"/>
<path d="M137.522 68.8788C121.247 111.321 152.051 147.481 183.845 145.676C215.64 143.871 210.58 218.084 170.796 223.943" stroke="#353047" stroke-width="6.5555" stroke-miterlimit="10"/>
<path d="M143.1 66.3923C126.825 108.835 157.629 144.994 189.424 143.189C221.219 141.385 216.159 215.597 176.374 221.456" stroke="#353047" stroke-width="6.7778" stroke-miterlimit="10"/>
<path d="M148.679 63.9058C132.404 106.348 163.208 142.508 195.003 140.703C226.798 138.898 221.737 213.111 181.953 218.97" stroke="#353047" stroke-width="7" stroke-miterlimit="10"/>
<path d="M154.258 61.4192C137.983 103.862 168.786 140.021 200.581 138.216C232.376 136.411 227.316 210.624 187.532 216.483" stroke="#353047" stroke-width="7.2222" stroke-miterlimit="10"/>
<path d="M159.836 58.9326C143.561 101.375 174.365 137.535 206.16 135.73C237.955 133.925 232.895 208.138 193.11 213.997" stroke="#353047" stroke-width="7.4444" stroke-miterlimit="10"/>
<path d="M165.415 56.446C149.14 98.8888 179.944 135.048 211.739 133.243C243.534 131.438 238.473 205.651 198.689 211.51" stroke="#353047" stroke-width="7.6667" stroke-miterlimit="10"/>
<path d="M170.994 53.9596C154.719 96.4023 185.522 132.561 217.317 130.757C249.112 128.952 244.052 203.165 204.268 209.024" stroke="#353047" stroke-width="7.8889" stroke-miterlimit="10"/>
<path d="M176.572 51.4731C160.297 93.9158 191.101 130.075 222.896 128.27C254.691 126.465 249.631 200.678 209.846 206.537" stroke="#353047" stroke-width="8.1111" stroke-miterlimit="10"/>
<path d="M182.151 48.9864C165.876 91.4292 196.68 127.588 228.475 125.784C260.27 123.979 255.209 198.192 215.425 204.05" stroke="#353047" stroke-width="8.3333" stroke-miterlimit="10"/>
<path d="M187.73 46.4999C171.455 88.9426 202.258 125.102 234.053 123.297C265.848 121.492 260.788 195.705 221.004 201.564" stroke="#353047" stroke-width="8.5556" stroke-miterlimit="10"/>
<path d="M193.308 44.0134C177.033 86.4561 207.837 122.615 239.632 120.81C271.427 119.006 266.367 193.219 226.582 199.077" stroke="#353047" stroke-width="8.7778" stroke-miterlimit="10"/>
<path d="M198.887 41.5269C182.612 83.9696 213.416 120.129 245.211 118.324C277.006 116.519 271.945 190.732 232.161 196.591" stroke="#353047" stroke-width="9" stroke-miterlimit="10"/>
<path d="M109.36 158.518C109.36 158.518 111.291 172.755 111.291 181.099C111.291 189.443 109.36 206.329 109.36 206.329C109.36 206.329 117.003 214.176 129.916 212.885C142.829 211.593 148.871 207.123 148.871 207.123C148.871 207.123 149.037 191.926 147.795 183.681C146.554 175.437 150.03 153.882 150.03 153.882L151.962 134.744L150.863 131.632L142.857 128.387H126.853L117.858 126.93L108.256 131.632L107.263 154.544L109.36 158.518Z" fill="#9CBDEF"/>
<path d="M123.045 115.805C123.045 121.235 123.211 123.222 121.003 125.076C118.796 126.93 117.858 126.93 117.858 126.93C117.858 126.93 120.304 133.817 129.759 133.486C139.214 133.155 142.856 128.387 142.856 128.387C142.856 128.387 137.274 125.695 136.841 121.632C136.408 117.569 136.179 114.679 136.179 114.679L123.045 115.805Z" fill="#F7BF6D"/>
<path d="M113.402 99.0016C113.173 102.144 113.816 104.813 115.471 106.65C117.127 108.488 118.203 108.438 118.203 108.438C118.203 108.438 120.065 113.686 122.493 116.732C124.922 119.778 128.564 123.288 132.482 120.772C136.4 118.255 138.607 115.209 139.932 112.627C141.256 110.044 141.698 107.726 141.698 107.726C141.698 107.726 142.498 108.687 143.85 106.501C145.202 104.316 146.333 103.19 146.14 98.7534C145.946 94.3166 145.533 93.224 145.533 93.224C145.533 93.224 141.504 84.0525 130.743 85.1451C119.983 86.2377 115.43 90.3102 115.43 90.3102L113.94 97.5116C113.94 97.5117 113.468 98.0939 113.402 99.0016Z" fill="#FFCC7B"/>
<path d="M113.94 97.5117C115.057 97.4622 116.216 97.76 116.837 100.392C117.458 103.025 117.127 105.061 117.748 105.309C118.368 105.558 118.244 102.329 118.12 99.7468C117.996 97.1642 117.416 92.0984 120.893 92.3466C124.37 92.595 127.46 102.296 135.13 93.7539C135.13 93.7539 134.303 97.4835 129.888 98.8303C129.888 98.8303 135.462 101.833 139.38 96.4026C139.38 96.4026 139.311 99.3495 140.511 99.3992C141.711 99.4487 142.29 101.634 141.794 104.068C141.297 106.501 142.249 106.799 142.829 103.521C143.408 100.243 142.87 98.555 144.567 97.8099C146.264 97.0648 146.14 98.7535 146.14 98.7535C146.14 98.7535 150.113 73.4242 135.213 72.1328C120.314 70.8414 114.023 81.7999 113.691 89.035C113.36 96.2701 113.94 97.5117 113.94 97.5117Z" fill="#191919"/>
<path d="M108.256 131.632C100.53 134.678 98.4332 138.387 97.3295 149.511C96.2258 160.637 94.46 177.324 94.2392 182.489C94.0185 187.655 95.3979 194.476 99.3161 196.661C103.234 198.846 113.388 198.25 113.388 198.25L113.83 188.781C113.83 188.781 105.386 184.542 104.448 183.35C103.51 182.159 109.304 165.206 110.381 157.061C111.457 148.916 108.256 131.632 108.256 131.632Z" fill="#819FFC"/>
<path d="M150.863 131.632C158.589 134.678 160.686 138.387 161.789 149.511C162.893 160.637 164.659 177.324 164.88 182.489C165.101 187.655 163.721 194.476 159.803 196.661C155.885 198.846 145.731 198.25 145.731 198.25L145.289 188.781C145.289 188.781 153.733 184.542 154.671 183.35C155.609 182.159 149.815 165.206 148.738 157.061C147.662 148.916 150.863 131.632 150.863 131.632Z" fill="#819FFC"/>
<path d="M156.74 192.843C156.74 195.441 154.985 197.547 152.82 197.547H106.404C104.239 197.547 102.484 195.441 102.484 192.843L98.564 166.796C98.564 164.198 100.319 162.092 102.484 162.092H155.096C157.261 162.092 159.016 164.198 159.016 166.796L156.74 192.843Z" fill="#BCBCBC"/>
<path d="M220.442 202.015H39.6692V206.656H220.442V202.015Z" fill="#828282"/>
<path d="M215.273 206.656H44.8375V214.961H215.273V206.656Z" fill="#6D6D6D"/>
<path d="M156.74 200.997C156.74 201.559 156.36 202.015 155.892 202.015H103.333C102.864 202.015 102.484 201.559 102.484 200.997V199.37C102.484 198.807 102.864 198.351 103.333 198.351H155.892C156.36 198.351 156.74 198.807 156.74 199.37V200.997V200.997Z" fill="#565656"/>
<path d="M156.74 193.647C156.74 196.245 154.985 198.352 152.82 198.352H106.404C104.239 198.352 102.484 196.246 102.484 193.647L98.564 167.6C98.564 165.002 100.319 162.896 102.484 162.896H155.096C157.261 162.896 159.016 165.002 159.016 167.6L156.74 193.647Z" fill="#AAAAAA"/>
<path d="M231.954 133.378H182.362V167.439H231.954V133.378Z" fill="#BBE2EF"/>
<path d="M189.566 136.459H185.373V141.49H189.566V136.459Z" fill="#353047"/>
<path d="M213.058 136.459H191.044V138.426H213.058V136.459Z" fill="#353047"/>
<path d="M202.199 139.523H191.044V141.49H202.199V139.523Z" fill="#353047"/>
<path d="M189.566 144.229H185.373V149.26H189.566V144.229Z" fill="#353047"/>
<path d="M213.058 144.229H191.044V146.196H213.058V144.229Z" fill="#353047"/>
<path d="M202.199 147.293H191.044V149.26H202.199V147.293Z" fill="#353047"/>
<path d="M189.566 151.999H185.373V157.03H189.566V151.999Z" fill="#353047"/>
<path d="M213.058 151.999H191.044V153.966H213.058V151.999Z" fill="#353047"/>
<path d="M202.199 155.063H191.044V157.03H202.199V155.063Z" fill="#353047"/>
<path d="M189.566 159.769H185.373V164.8H189.566V159.769Z" fill="#353047"/>
<path d="M213.058 159.769H191.044V161.736H213.058V159.769Z" fill="#353047"/>
<path d="M202.199 162.833H191.044V164.8H202.199V162.833Z" fill="#353047"/>
<path d="M230.583 136.168H214.859V150.893H230.583V136.168Z" fill="#353047"/>
<path d="M230.583 152.692H214.859V165.262H230.583V152.692Z" fill="#353047"/>
<path d="M216.31 147.293C217.318 144.103 219.012 140.394 220.342 142.522C221.673 144.651 223.568 146.87 224.011 146.196C224.455 145.522 225.422 143.345 226.591 143.151C227.761 142.958 229.776 147.293 229.776 147.293H216.31Z" fill="#8ECC36"/>
<path d="M216.31 162.468C217.318 159.278 219.012 155.569 220.342 157.697C221.673 159.826 223.568 162.045 224.011 161.371C224.455 160.697 225.422 158.52 226.591 158.326C227.761 158.133 229.776 162.468 229.776 162.468H216.31Z" fill="#8ECC36"/>
<path d="M185.642 138.797L186.663 140.764L189.27 138.184L189.136 138.023L186.686 139.97L185.719 138.676L185.642 138.797Z" fill="#FF8500"/>
<path d="M185.642 146.309L186.663 148.277L189.27 145.696L189.136 145.535L186.686 147.482L185.719 146.188L185.642 146.309Z" fill="#FF8500"/>
<path d="M185.642 153.821L186.663 155.789L189.27 153.209L189.136 153.047L186.686 154.994L185.719 153.7L185.642 153.821Z" fill="#FF8500"/>
<path d="M185.642 161.333L186.663 163.301L189.27 160.721L189.136 160.559L186.686 162.507L185.719 161.212L185.642 161.333Z" fill="#FF8500"/>
<path d="M92.5739 100.438H42.9825V134.499H92.5739V100.438Z" fill="#BBE2EF"/>
<path d="M66.725 104.255H46.8885V105.675H66.725V104.255Z" fill="#353047"/>
<path d="M58.554 106.9H46.8885V108.32H58.554V106.9Z" fill="#353047"/>
<path d="M66.725 111.932H46.8885V113.351H66.725V111.932Z" fill="#353047"/>
<path d="M58.554 114.577H46.8885V115.996H58.554V114.577Z" fill="#353047"/>
<path d="M66.725 119.609H46.8885V121.028H66.725V119.609Z" fill="#353047"/>
<path d="M58.554 122.253H46.8885V123.673H58.554V122.253Z" fill="#353047"/>
<path d="M66.725 127.285H46.8885V128.705H66.725V127.285Z" fill="#353047"/>
<path d="M58.554 129.93H46.8885V131.349H58.554V129.93Z" fill="#353047"/>
<path d="M88.6579 118.157C88.6579 123.983 84.7228 128.705 79.8686 128.705C75.0143 128.705 71.0792 123.983 71.0792 118.157C71.0792 112.332 75.0143 107.61 79.8686 107.61C80.1799 107.61 80.4878 107.63 80.7911 107.668L79.8686 118.157L88.5555 116.543C88.6232 117.07 88.6579 117.609 88.6579 118.157Z" fill="#FF8500"/>
<path d="M89.335 115.612L80.6481 117.226L81.5706 106.737C85.5459 107.235 88.7334 110.912 89.335 115.612Z" fill="#8ECC36"/>
<path d="M184.299 73.4071H156.74V116.148H184.299V73.4071Z" fill="#BBE2EF"/>
<path d="M180.57 76.9068H160.468V78.7842H180.57V76.9068Z" fill="#353047"/>
<path d="M180.57 80.6102H160.468V82.4877H180.57V80.6102Z" fill="#353047"/>
<path d="M180.57 84.3136H160.468V86.1911H180.57V84.3136Z" fill="#353047"/>
<path d="M174.079 88.0171H160.468V89.8945H174.079V88.0171Z" fill="#353047"/>
<path d="M180.57 91.7205H160.468V93.598H180.57V91.7205Z" fill="#353047"/>
<path d="M180.57 95.4239H160.468V97.3014H180.57V95.4239Z" fill="#353047"/>
<path d="M180.571 102.952H170.519V113.289H180.571V102.952Z" fill="#353047"/>
<path d="M169.694 102.952H160.468V113.289H169.694V102.952Z" fill="#353047"/>
<path d="M170.519 99.1273H160.468V101.005H170.519V99.1273Z" fill="#353047"/>
<path d="M110.391 40.0272H82.8326V82.7683H110.391V40.0272Z" fill="#BBE2EF"/>
<path d="M106.663 55.576H86.5608V57.4535H106.663V55.576Z" fill="#353047"/>
<path d="M106.663 59.2794H86.5608V61.1569H106.663V59.2794Z" fill="#353047"/>
<path d="M106.663 45.471H96.3917V47.3485H106.663V45.471Z" fill="#353047"/>
<path d="M103.089 49.1744H96.3917V51.0519H103.089V49.1744Z" fill="#353047"/>
<path d="M106.663 69.6622H96.3917V71.5397H106.663V69.6622Z" fill="#353047"/>
<path d="M103.089 73.3656H96.3917V75.2431H103.089V73.3656Z" fill="#353047"/>
<path d="M95.4626 68.0764H86.8846V77.6871H95.4626V68.0764Z" fill="#353047"/>
<path d="M96.6119 62.9828H86.5608V64.8603H96.6119V62.9828Z" fill="#353047"/>
<path d="M89.3951 50.0237C90.7137 50.0237 91.7827 48.741 91.7827 47.1587C91.7827 45.5763 90.7137 44.2936 89.3951 44.2936C88.0765 44.2936 87.0076 45.5763 87.0076 47.1587C87.0076 48.741 88.0765 50.0237 89.3951 50.0237Z" stroke="#FF8500" stroke-width="8" stroke-miterlimit="10"/>
<path d="M90.9824 49.2982L94.8166 53.6241" stroke="#FF8500" stroke-width="8" stroke-miterlimit="10"/>
<path d="M77.6766 151.922H28.0853V185.983H77.6766V151.922Z" fill="#BBE2EF"/>
<path d="M39.3143 173.891H36.2261V180.408H39.3143V173.891Z" fill="#FF8500"/>
<path d="M44.7563 170.039H41.668V180.408H44.7563V170.039Z" fill="#8ECC36"/>
<path d="M50.1981 167.373H47.1099V180.408H50.1981V167.373Z" fill="#FF8500"/>
<path d="M55.6401 172.789H52.5519V180.408H55.6401V172.789Z" fill="#8ECC36"/>
<path d="M61.0821 166.259H57.9939V180.408H61.0821V166.259Z" fill="#FF8500"/>
<path d="M66.524 160.972H63.4358V180.408H66.524V160.972Z" fill="#8ECC36"/>
<path d="M32.8698 170.69C32.7086 170.924 49.1583 159.829 49.1583 159.829L52.8695 166.259L66.2533 155.958" stroke="#8ECC36" stroke-width="6" stroke-miterlimit="10"/>
<path d="M40.9871 155.958H31.7408V157.377H40.9871V155.958Z" fill="#E6F5FF"/>
<path d="M37.5467 159.022H31.7408V160.441H37.5467V159.022Z" fill="#E6F5FF"/>
<path d="M90.1568 161.956H72.8809V163.648H90.1568V161.956Z" fill="#8ECC36"/>
<path d="M84.7582 165.003H72.8809V166.696H84.7582V165.003Z" fill="#8ECC36"/>
<path d="M87.0911 168.05H72.8809V169.743H87.0911V168.05Z" fill="#8ECC36"/>
<path d="M81.1453 171.098H72.8809V172.79H81.1453V171.098Z" fill="#8ECC36"/>
<path d="M75.9881 79.1442H59.2694V81.5863H75.9881V79.1442Z" fill="#FF8500"/>
<path d="M75.9881 83.5413H51.0587V85.9832H75.9881V83.5413Z" fill="#FF8500"/>
<path d="M68.2067 87.9384H51.8813V90.3804H68.2067V87.9384Z" fill="#FF8500"/>
<path d="M62.9844 92.3356H51.0587V94.7776H62.9844V92.3356Z" fill="#FF8500"/>
<path d="M213.26 113.468H192.225V115.529H213.26V113.468Z" fill="#BBE2EF"/>
<path d="M204.892 117.178H192.225V119.239H204.892V117.178Z" fill="#BBE2EF"/>
<path d="M213.26 120.889H192.225V122.949H213.26V120.889Z" fill="#BBE2EF"/>
<path d="M202.288 124.599H192.225V126.66H202.288V124.599Z" fill="#BBE2EF"/>
<path d="M174.76 202.015H159.27C159.27 202.015 159.969 202.015 161.96 199.851C163.952 197.686 167.933 191.317 173.907 187.542C173.907 187.542 175.624 194.748 175.732 198.991C175.777 200.78 175.536 202.041 174.76 202.015Z" fill="#424242"/>
<path d="M206.112 209.818C201.504 214.961 193.564 238.729 185.429 229.547C181.961 225.632 195.957 210.33 199.541 208.384C203.125 206.438 203.125 202.138 203.125 202.138C203.125 202.138 202.005 202.246 200.273 202.384C194.752 202.823 183.009 203.558 181.45 202.015C180.495 201.069 178.964 199.495 177.603 198.085C176.045 196.472 174.709 195.072 174.709 195.072L174.961 185.468C178.629 177.05 194.421 176.729 201.845 182.054C209.269 187.379 210.72 204.674 206.112 209.818Z" fill="#EAEAEA"/>
<path d="M186.942 222.427C186.681 224.631 186.681 224.836 188.046 226.202C189.412 227.567 189.321 223.676 190.703 224.836C192.085 225.997 193.565 224.836 195.157 222.037C196.75 219.238 196.964 219.58 198.706 217.805C200.448 216.03 203.349 214.05 203.349 214.05C203.349 214.05 198.582 224.836 195.078 228.659C191.573 232.482 188.558 233.245 186.112 231.635C183.666 230.025 184.007 226.645 184.747 225.212C185.486 223.778 186.942 222.427 186.942 222.427Z" fill="#424242"/>
<path d="M200.273 202.384C198.002 202.565 194.675 202.795 191.439 202.897C186.812 203.042 182.368 202.923 181.45 202.015C180.628 201.2 179.378 199.92 178.178 198.68C177.984 198.479 177.792 198.28 177.603 198.085C177.758 194.293 177.92 190.377 177.92 190.377L177.323 182.272C182.272 180.736 185.766 182.682 186.536 184.218C187.307 185.754 188.245 185.242 191.061 186.47C193.877 187.699 196.181 185.139 197.547 188.518C198.912 191.898 195.311 195.107 195.703 197.547C196.096 199.987 198.059 200.379 199.168 200.183C199.875 200.058 200.339 201.174 200.273 202.384Z" fill="#424242"/>
<path d="M174.76 202.015H159.36C160.253 201.592 161.337 200.67 163.264 200.371C164.371 200.2 170.764 199.549 171.077 198.963C171.662 197.871 173.135 196.822 175.044 198.644C175.229 198.82 175.462 198.932 175.732 198.991C175.777 200.78 175.536 202.041 174.76 202.015Z" fill="#EAEAEA"/>
<path d="M193.336 202.897C188.708 203.042 182.368 202.923 181.45 202.015C180.628 201.2 179.378 199.92 178.178 198.68C180.921 197.824 184.36 195.822 185.201 196.728C186.453 198.075 188.532 196.716 188.801 198.352C189.07 199.987 189.416 200.345 191.118 201.39C191.591 201.68 193.089 202.5 193.336 202.897Z" fill="#EAEAEA"/>
<path d="M188.357 194.117C187.721 197.116 186.976 199.083 186.007 200.363C184.637 202.171 182.82 202.61 180.221 202.65C175.784 202.718 174.76 202.015 174.76 202.015C167.592 194.389 172.087 182.715 178.06 182.101C181.31 181.767 184.527 183.211 186.536 185.763C188.221 187.901 189.058 190.817 188.357 194.117Z" fill="#F4F4F4"/>
<path d="M187.105 192C194.927 188.348 195.701 192 195.701 192C195.701 192 196.065 195.14 187.333 195.618C183.802 195.811 187.105 192.354 187.105 192.354V192Z" fill="#EAA03D"/>
<path d="M188.357 194.117C187.72 197.116 186.976 199.083 186.007 200.363C182.917 200.513 181.499 198.388 181.419 196.966C181.334 195.466 178.133 195.994 178.69 194.202C179.245 192.41 180.224 192 181.12 190.377C182.016 188.754 183.765 190.003 186.536 185.763C188.221 187.901 189.058 190.817 188.357 194.117Z" fill="#EAA03D"/>
<path d="M176.221 187.051C170.242 179.981 172.702 177.639 172.702 177.639C172.702 177.639 174.941 175.955 178.879 185.32C180.471 189.107 176.49 186.906 176.49 186.906L176.221 187.051Z" fill="#F4F4F4"/>
<path d="M174.334 199.696C174.334 201.055 175.386 201.694 176.154 201.25C176.922 200.806 176.609 200.191 175.585 199.696C174.561 199.202 174.334 198.996 174.334 199.696Z" fill="#232323"/>
<path d="M179.257 198.273L189.324 198.963L179.252 198.375L179.257 198.273Z" fill="#A0A0A0"/>
<path d="M179.069 198.915L188.414 202.654L179.042 199.012L179.069 198.915Z" fill="#A0A0A0"/>
<path d="M178.711 199.393L186.536 205.09L178.667 199.481L178.711 199.393Z" fill="#A0A0A0"/>
<path d="M174.198 196.775L164.832 192.293L174.23 196.68L174.198 196.775Z" fill="#A0A0A0"/>
<path d="M174.546 196.239L166.67 189.138L174.597 196.156L174.546 196.239Z" fill="#A0A0A0"/>
<path d="M175.012 195.921L169.094 187.542L175.076 195.854L175.012 195.921Z" fill="#A0A0A0"/>
<path d="M186.536 178.652C186.667 181.299 188.8 183.252 189.611 182.532C190.421 181.811 191.027 180.537 191.727 181.712C192.427 182.886 192.512 183.525 193.92 182.054C195.328 180.583 197.751 179.952 197.751 179.952C197.751 179.952 192.393 177.728 186.536 178.652Z" fill="#EAA03D"/>
<path d="M198.443 193.536C197.066 194.695 196.736 194.661 197.461 196.197C198.187 197.734 199.982 198.246 200.279 196.454C200.576 194.662 199.355 192.768 198.443 193.536Z" fill="#EAA03D"/>
</g>
<defs>
<clipPath id="clip0_30_1073">
<rect width="256" height="256" fill="white"/>
</clipPath>
</defs>
</svg>
